SplineFontDB: 3.0
FontName: LindenHill-Italic
FullName: Linden Hill Italic
FamilyName: Linden Hill
Weight: Regular
Copyright: Copyright (c) 2009 Barry Schwartz\n\nPermission is hereby granted, free of charge, to any person\nobtaining a copy of this software and associated documentation\nfiles (the "Software"), to deal in the Software without\nrestriction, including without limitation the rights to use,\ncopy, modify, merge, publish, distribute, sublicense, and/or sell\ncopies of the Software, and to permit persons to whom the\nSoftware is furnished to do so, subject to the following\nconditions:\n\nThe above copyright notice and this permission notice shall be\nincluded in all copies or substantial portions of the Software.\n\nTHE SOFTWARE IS PROVIDED "AS IS", WITHOUT WARRANTY OF ANY KIND,\nEXPRESS OR IMPLIED, INCLUDING BUT NOT LIMITED TO THE WARRANTIES\nOF MERCHANTABILITY, FITNESS FOR A PARTICULAR PURPOSE AND\nNONINFRINGEMENT. IN NO EVENT SHALL THE AUTHORS OR COPYRIGHT\nHOLDERS BE LIABLE FOR ANY CLAIM, DAMAGES OR OTHER LIABILITY,\nWHETHER IN AN ACTION OF CONTRACT, TORT OR OTHERWISE, ARISING\nFROM, OUT OF OR IN CONNECTION WITH THE SOFTWARE OR THE USE OR\nOTHER DEALINGS IN THE SOFTWARE.
UComments: "Scaling: Cut the 12-point to 640 pixels high and scale it to 122%." 
Version: 001.000
ItalicAngle: -4
UnderlinePosition: -99
UnderlineWidth: 49
Ascent: 734
Descent: 266
LayerCount: 3
Layer: 0 0 "Back"  1
Layer: 1 0 "Fore"  0
Layer: 2 0 "backup"  1
NeedsXUIDChange: 1
XUID: [1021 658 797806517 427014]
FSType: 0
OS2Version: 0
OS2_WeightWidthSlopeOnly: 0
OS2_UseTypoMetrics: 1
CreationTime: 1249677682
ModificationTime: 1254549617
PfmFamily: 17
TTFWeight: 400
TTFWidth: 5
LineGap: 90
VLineGap: 0
OS2TypoAscent: 0
OS2TypoAOffset: 1
OS2TypoDescent: 0
OS2TypoDOffset: 1
OS2TypoLinegap: 90
OS2WinAscent: 0
OS2WinAOffset: 1
OS2WinDescent: 0
OS2WinDOffset: 1
HheadAscent: 0
HheadAOffset: 1
HheadDescent: 0
HheadDOffset: 1
OS2Vendor: 'PfEd'

StartChar: i
Encoding: 105 105 0
Width: 241
VWidth: 0
Flags: HW
LayerCount: 3
Fore
Refer: 241 775 N 1 0 0 1 341 0 2
Refer: 178 305 N 1 0 0 1 0 0 2
Layer: 2
SplineSet
137.6953125 629.8828125 m 0
 137.6953125 638.671875 157.2265625 667.96875 180.17578125 667.96875 c 0
 194.82421875 667.96875 211.42578125 643.5546875 211.42578125 625 c 0
 211.42578125 605.46875 179.19921875 583.49609375 171.38671875 583.49609375 c 0
 155.76171875 583.49609375 137.6953125 611.328125 137.6953125 629.8828125 c 0
162.59765625 384.765625 m 0
 162.59765625 353.02734375 139.6484375 130.37109375 139.6484375 102.05078125 c 0
 139.6484375 84.47265625 143.06640625 78.61328125 147.94921875 78.61328125 c 0
 163.0859375 78.61328125 214.84375 161.1328125 214.84375 161.1328125 c 1
 231.4453125 147.94921875 l 1
 231.4453125 147.94921875 213.37890625 104.00390625 170.41015625 59.08203125 c 0
 150.87890625 38.57421875 102.5390625 -5.37109375 87.890625 -5.37109375 c 0
 77.1484375 -5.37109375 71.2890625 0.9765625 71.2890625 16.6015625 c 0
 71.2890625 40.0390625 97.65625 247.55859375 97.65625 336.9140625 c 0
 97.65625 345.703125 94.7265625 352.5390625 85.9375 352.5390625 c 0
 70.3125 352.5390625 25.390625 334.47265625 25.390625 334.47265625 c 1
 16.6015625 358.88671875 l 1
 16.6015625 358.88671875 132.32421875 400.390625 151.85546875 400.390625 c 0
 158.69140625 400.390625 162.59765625 395.5078125 162.59765625 384.765625 c 0
EndSplineSet
AlternateSubs2: "'aalt' Access All Alternates in Latin lookup 0 subtable" i.TRK
Substitution2: "turkish subtable" i.TRK
EndChar

StartChar: j
Encoding: 106 106 1
Width: 241
VWidth: 0
Flags: HMW
LayerCount: 3
Fore
Refer: 241 775 N 1 0 0 1 351 0 2
Refer: 179 567 N 1 0 0 1 0 0 2
Layer: 2
SplineSet
147.4609375 629.8828125 m 0
 147.4609375 638.671875 166.9921875 667.96875 189.94140625 667.96875 c 0
 204.58984375 667.96875 221.19140625 643.5546875 221.19140625 625 c 0
 221.19140625 605.46875 188.96484375 583.49609375 181.15234375 583.49609375 c 0
 165.52734375 583.49609375 147.4609375 611.328125 147.4609375 629.8828125 c 0
103.02734375 352.05078125 m 0
 92.7734375 352.05078125 74.70703125 344.23828125 33.203125 327.63671875 c 1
 24.4140625 354.00390625 l 1
 112.3046875 388.671875 152.34375 401.85546875 170.8984375 401.85546875 c 0
 179.19921875 401.85546875 181.15234375 395.5078125 181.15234375 384.765625 c 0
 181.15234375 374.0234375 162.59765625 183.59375 157.71484375 91.796875 c 0
 151.85546875 -12.6953125 144.53125 -99.609375 130.859375 -153.3203125 c 0
 105.46875 -253.41796875 15.13671875 -257.8125 3.90625 -257.8125 c 0
 -39.0625 -257.8125 -83.984375 -233.88671875 -83.984375 -198.73046875 c 0
 -83.984375 -176.7578125 -70.80078125 -153.3203125 -48.828125 -153.3203125 c 0
 -13.671875 -153.3203125 -27.34375 -222.65625 20.5078125 -222.65625 c 0
 52.734375 -222.65625 69.82421875 -171.38671875 76.66015625 -115.234375 c 0
 93.26171875 20.5078125 112.3046875 305.6640625 112.3046875 336.9140625 c 0
 112.3046875 344.7265625 109.375 352.05078125 103.02734375 352.05078125 c 0
EndSplineSet
EndChar

StartChar: l
Encoding: 108 108 2
Width: 247
VWidth: 0
Flags: HMW
HStem: -10 10G<72 81> 702 10G<140 159>
DStem2: 65 67 127 98 0.0759471 0.997112<16.5229 225.976>
AnchorPoint: "cedilla" 86 -88 basechar 0
AnchorPoint: "commaright" 249 654 basechar 0
AnchorPoint: "top" 91 732 basechar 0
LayerCount: 3
Fore
SplineSet
87 668 m 0
 81 668 40 658 21 652 c 1
 15 679 l 1
 15 679 128 712 152 712 c 0
 166 712 174 705 173 694 c 0
 151 479 127 113 127 98 c 0
 127 91 128 79 135 79 c 0
 154 79 203 166 203 166 c 1
 225 150 l 1
 225 150 173 48 105 0 c 0
 94 -8 84 -10 78 -10 c 0
 65 -10 62 3 62 20 c 0
 62 33 64 48 65 67 c 0
 84 431 98 608 98 654 c 0
 98 663 96 668 87 668 c 0
EndSplineSet
EndChar

StartChar: .notdef
Encoding: 65536 -1 4
Width: 500
VWidth: 0
Flags: W
HStem: 0 32<183.262 229.781> 119 55<179.258 220.739> 654 55<185.046 286.577>
VStem: 52 117<39.2863 109.463 587.001 637.898> 52 102<199.25 340.037> 221 227<174.004 244.649> 246 202<42.7051 111.413> 372 76<443.516 563.713>
LayerCount: 3
Fore
SplineSet
209 174 m 0xe9
 216 174 221 179 221 185 c 0xec
 221 200 201 196 201 247 c 0
 201 321 372 430 372 488 c 0
 372 580 276 654 231 654 c 0
 191 654 167 612 167 598 c 0
 167 589 170 587 179 587 c 0
 205 587 243 596 258 596 c 0
 286 596 312 578 312 545 c 0
 312 452 154 368 154 277 c 0
 154 207 194 174 209 174 c 0xe9
169 76 m 0xf2
 169 65 190 32 204 32 c 0
 221 32 246 64 246 75 c 0
 246 88 225 119 209 119 c 0
 197 119 169 94 169 76 c 0xf2
52 0 m 17xe9
 52 709 l 9
 448 709 l 25
 448 0 l 25
 52 0 l 17xe9
EndSplineSet
EndChar

StartChar: k
Encoding: 107 107 5
Width: 413
VWidth: 0
Flags: HMW
HStem: -8 67<274 310> 364 21<208 278> 670 35<49 151>
DStem2: 40 12 111 178 0.079295 0.996851<-11.7513 18.9554 170.659 386.142>
AnchorPoint: "cedilla" 167 -88 basechar 0
LayerCount: 3
Fore
SplineSet
80 670 m 0
 74 670 22 656 15 655 c 1
 10 678 l 1
 49 689 134 705 147 705 c 0
 155 705 161 702 161 695 c 0
 161 671 111 178 111 178 c 1
 111 178 279 286 279 347 c 0
 279 363 262 364 254 364 c 2
 234 364 l 2
 226 364 217 363 206 363 c 1
 208 385 l 1
 241 388 294 389 316 389 c 0
 354 389 359 385 359 379 c 0
 359 362 329 325 301 296 c 0
 258 252 205 216 205 216 c 1
 205 216 268 59 302 59 c 0
 322 59 358 136 358 136 c 1
 381 123 l 1
 381 123 370 100 354 74 c 0
 331 37 298 -8 278 -8 c 0
 237 -8 157 184 157 184 c 1
 109 151 l 1
 109 151 103 80 102 55 c 2
 101 26 l 2
 101 5 95 -2 72 -2 c 0
 58 -2 40 0 40 12 c 0
 40 26 68 285 91 657 c 0
 91 658 l 0
 91 664 90 670 80 670 c 0
EndSplineSet
Layer: 2
SplineSet
80.078125 669.921875 m 4
 73.73046875 669.921875 21.484375 656.73828125 14.6484375 655.2734375 c 5
 10.25390625 678.22265625 l 5
 49.31640625 688.96484375 134.765625 705.078125 147.4609375 705.078125 c 4
 155.2734375 705.078125 161.1328125 702.63671875 161.1328125 695.3125 c 4
 161.1328125 671.38671875 110.83984375 177.734375 110.83984375 177.734375 c 5
 110.83984375 177.734375 278.80859375 286.1328125 278.80859375 347.16796875 c 4
 278.80859375 363.28125 261.71875 363.76953125 253.90625 363.76953125 c 6
 234.375 363.76953125 l 6
 226.5625 363.76953125 217.28515625 363.76953125 206.0546875 363.28125 c 5
 207.51953125 384.765625 l 5
 240.234375 387.6953125 293.9453125 388.671875 315.91796875 388.671875 c 4
 354.00390625 388.671875 358.88671875 385.25390625 358.88671875 379.39453125 c 4
 358.88671875 362.79296875 329.58984375 324.70703125 301.26953125 295.8984375 c 4
 258.30078125 251.953125 205.078125 215.8203125 205.078125 215.8203125 c 5
 205.078125 215.8203125 267.578125 59.08203125 301.7578125 59.08203125 c 4
 321.2890625 59.08203125 358.3984375 135.7421875 358.3984375 135.7421875 c 5
 380.859375 122.55859375 l 5
 380.859375 122.55859375 369.62890625 100.09765625 353.515625 73.73046875 c 4
 330.56640625 36.62109375 297.8515625 -8.30078125 278.3203125 -8.30078125 c 4
 237.3046875 -8.30078125 156.73828125 183.59375 156.73828125 183.59375 c 5
 108.88671875 150.87890625 l 5
 108.88671875 150.87890625 102.5390625 80.078125 101.5625 55.17578125 c 6
 100.5859375 26.3671875 l 6
 100.09765625 4.8828125 94.7265625 -2.44140625 71.77734375 -2.44140625 c 4
 58.10546875 -2.44140625 39.55078125 0.48828125 39.55078125 12.20703125 c 4
 39.55078125 25.87890625 67.3828125 284.66796875 90.8203125 656.73828125 c 4
 90.8203125 663.0859375 91.30859375 669.921875 80.078125 669.921875 c 4
EndSplineSet
EndChar

StartChar: n
Encoding: 110 110 6
Width: 408
VWidth: 0
Flags: MW
HStem: -1 15G<70.5 98.5 258 278> 378 20G<124.5 139.5 297.5 326.5>
DStem2: 57 14 118 18 0.0633645 0.99799<-12.3449 167.627 315.634 336.912> 250 16 320 111 0.0983797 0.995149<71.3452 101.426 264.282 307.528>
AnchorPoint: "cedilla" 186 -93 basechar 0
AnchorPoint: "top" 246 488 basechar 0
LayerCount: 3
Fore
SplineSet
11 357 m 1
 27 362 114 399 135 399 c 0
 144 399 148 394 148 383 c 0
 148 364 133 286 132 190 c 1
 225 355 279 398 316 398 c 0
 337 398 340 356 340 332 c 0
 340 257 320 144 320 111 c 0
 320 93 322 80 328 80 c 0
 338 80 356 115 375 148 c 1
 392 139 l 1
 359 67 293 -7 263 -7 c 0
 253 -7 250 2 250 16 c 0
 250 69 276 197 276 279 c 0
 276 301 272 324 260 324 c 0
 238 324 165 222 136 147 c 0
 119 104 124 88 118 18 c 0
 117 6 105 -1 92 -1 c 2
 76 -1 l 2
 65 -1 56 2 57 14 c 0
 69 140 77 298 77 329 c 0
 77 345 74 351 66 351 c 0
 57 351 20 336 20 336 c 1
 11 357 l 1
EndSplineSet
EndChar

StartChar: a
Encoding: 97 97 7
Width: 362
VWidth: 0
Flags: W
HStem: -11 70<70.7575 118.86> 355 45<166.756 222.18>
VStem: 25 51<67.2474 216.225> 223 61<72.0132 149> 258 61<339 413.36>
AnchorPoint: "top" 225 488 basechar 0
LayerCount: 3
Fore
SplineSet
74 -11 m 0xf0
 54 -11 25 7 25 99 c 0
 25 185 44 222 88 293 c 0
 104 319 175 400 207 400 c 0
 243 400 258 339 258 339 c 1
 268 395 l 2
 271 412 285 412 291 412 c 2
 301 412 l 2
 316 412 319 411 319 400 c 0xe8
 319 391 284 189 284 121 c 0
 284 90 288 72 296 72 c 0
 305 72 313 84 333 107 c 1
 351 93 l 1
 351 93 280 -11 240 -11 c 0
 229 -11 218 0 218 61 c 0
 218 83 220 111 223 149 c 1
 211 126 186 81 156 44 c 0
 131 14 90 -11 74 -11 c 0xf0
245 290 m 0
 245 321 204 355 184 355 c 0
 149 355 76 235 76 131 c 0
 76 86 98 59 113 59 c 0
 152 59 245 230 245 290 c 0
EndSplineSet
Layer: 2
SplineSet
74 -11 m 4xf0
 54 -11 25 7 25 99 c 4
 25 185 44 222 88 293 c 4
 104 319 175 400 207 400 c 4
 243 400 258 339 258 339 c 5
 268 395 l 6
 271 412 285 412 291 412 c 6
 301 412 l 6
 316 412 319 411 319 400 c 4xe8
 319 391 284 189 284 121 c 4
 284 90 288 72 296 72 c 4
 305 72 313 84 333 107 c 5
 351 93 l 5
 351 93 280 -11 240 -11 c 4
 229 -11 218 0 218 61 c 4
 218 83 220 111 223 149 c 5
 211 126 186 81 156 44 c 4
 131 14 90 -11 74 -11 c 4xf0
245 290 m 4
 245 321 204 355 184 355 c 4
 149 355 76 235 76 131 c 4
 76 86 98 59 113 59 c 4
 152 59 245 230 245 290 c 4
EndSplineSet
EndChar

StartChar: h
Encoding: 104 104 8
Width: 413
VWidth: 0
Flags: MW
HStem: 0 3G<66 85 253 263> 327 67<248 305> 696 10G<136 146>
DStem2: 61 206 111 190 0.0893233 0.996003<-203.51 -172.344 -143.564 -14.1935 0 213.491> 243 19 308 95 0.0895666 0.995981<0 81.1958 272.58 304.815>
AnchorPoint: "top" 281 732 basechar 0
LayerCount: 3
Fore
SplineSet
12 677 m 17
 51 688 130 706 143 706 c 0
 151 706 156 703 156 696 c 0
 156 677 122 341 111 190 c 1
 171 293 248 394 292 394 c 0
 319 394 329 353 329 290 c 0
 329 217 308 142 308 95 c 0
 308 86 308 75 314 75 c 0
 325 75 351 106 369 131 c 2
 385 154 l 9
 400 143 l 17
 371 91 335 56 315 36 c 0
 276 -2 269 -7 256 -7 c 0
 250 -7 243 -4 243 19 c 0
 243 51 267 229 267 291 c 0
 267 319 260 327 252 327 c 0
 225 327 129 209 113 137 c 0
 107 109 104 83 103 58 c 2
 102 29 l 2
 102 8 96 0 73 0 c 0
 59 0 48 3 48 15 c 0
 48 39 57 143 61 206 c 0
 88 648 88 593 88 648 c 2
 88 652 l 2
 88 662 88 669 80 669 c 0
 74 669 38 660 16 654 c 9
 12 677 l 17
EndSplineSet
EndChar

StartChar: f
Encoding: 102 102 9
Width: 252
VWidth: 0
Flags: HMW
HStem: -258 35<-31 39> 360 32<28 98 159 232> 661 42<210 302>
DStem2: 76 76 139 76 0.0772214 0.997014<-221.565 4.90176 320.898 533.564>
LayerCount: 3
Fore
SplineSet
-14 -258 m 0
 -49 -258 -83 -241 -83 -205 c 0
 -83 -184 -72 -161 -52 -161 c 0
 -33 -161 -27 -180 -18 -196 c 0
 -9 -211 4 -223 20 -223 c 0
 58 -223 61 -136 76 76 c 0
 81 153 88 248 98 360 c 1
 28 360 l 1
 28 392 l 1
 99 392 l 1
 109 490 107 586 167 646 c 0
 199 678 231 702 280 702 c 0
 324 702 341 674 341 650 c 0
 341 630 331 613 315 613 c 0
 288 613 272 661 248 661 c 0
 177 661 172 525 159 392 c 1
 234 392 l 1
 232 360 l 1
 157 360 l 1
 149 248 144 154 139 76 c 0
 123 -167 105 -258 -14 -258 c 0
EndSplineSet
Layer: 2
SplineSet
-13.671875 -257.8125 m 4
 -48.828125 -257.8125 -82.51953125 -240.72265625 -82.51953125 -205.078125 c 4
 -82.51953125 -184.08203125 -71.77734375 -161.1328125 -51.7578125 -161.1328125 c 4
 -32.71484375 -161.1328125 -26.85546875 -179.6875 -17.578125 -195.80078125 c 4
 -8.7890625 -210.44921875 3.41796875 -223.14453125 19.53125 -223.14453125 c 4
 70.80078125 -223.14453125 60.05859375 -61.5234375 97.65625 359.86328125 c 5
 28.3203125 359.86328125 l 5
 28.3203125 391.6015625 l 5
 98.6328125 391.6015625 l 5
 108.88671875 489.2578125 106.4453125 585.9375 166.50390625 645.99609375 c 4
 198.2421875 677.734375 231.4453125 702.1484375 280.2734375 702.1484375 c 4
 324.70703125 702.1484375 341.30859375 674.31640625 341.30859375 649.90234375 c 4
 341.30859375 630.37109375 330.56640625 612.79296875 314.94140625 612.79296875 c 4
 287.59765625 612.79296875 272.4609375 660.64453125 248.046875 660.64453125 c 4
 176.7578125 660.64453125 171.875 524.4140625 158.69140625 391.6015625 c 5
 234.375 391.6015625 l 5
 232.421875 359.86328125 l 5
 156.73828125 359.86328125 l 5
 125.48828125 -99.609375 143.06640625 -257.8125 -13.671875 -257.8125 c 4
EndSplineSet
EndChar

StartChar: e
Encoding: 101 101 10
Width: 277
VWidth: 0
Flags: W
HStem: -4 65<82.5 155.354> 355 43<134.518 201.5>
VStem: 20 55<86.3076 184.557 191 242.273> 191 68<306 361>
AnchorPoint: "top" 203 488 basechar 0
LayerCount: 3
Fore
SplineSet
151 355 m 0
 121 355 75 298 75 199 c 2
 75 191 l 1
 81 197 191 299 191 313 c 0
 191 345 165 355 151 355 c 0
250 123 m 1
 265 100 l 1
 265 100 157 -4 93 -4 c 0
 72 -4 20 19 20 101 c 0
 20 171 37 245 62 299 c 0
 86 352 111 362 140 380 c 0
 161 393 183 398 193 398 c 0
 210 398 259 369 259 353 c 0
 259 342 160 232 76 169 c 1
 76 156 78 61 139 61 c 0
 186 61 235 109 250 123 c 1
EndSplineSet
Layer: 2
SplineSet
138.671875 58.59375 m 4
 186.03515625 58.59375 235.3515625 106.93359375 251.46484375 122.0703125 c 5
 265.625 104.98046875 l 5
 260.25390625 100.09765625 238.28125 63.4765625 158.203125 20.01953125 c 4
 129.39453125 4.39453125 109.86328125 -2.9296875 93.26171875 -2.9296875 c 4
 60.05859375 -2.9296875 41.9921875 30.76171875 30.2734375 50.78125 c 4
 23.4375 62.5 21.97265625 93.26171875 21.97265625 98.14453125 c 4
 23.4375 158.69140625 33.203125 250.9765625 80.56640625 328.125 c 4
 101.07421875 361.328125 169.43359375 394.53125 192.87109375 394.53125 c 4
 208.984375 394.53125 255.859375 366.69921875 255.859375 352.5390625 c 4
 255.859375 333.49609375 168.45703125 249.0234375 154.296875 235.83984375 c 4
 109.375 193.359375 73.73046875 168.9453125 73.73046875 168.9453125 c 5
 73.73046875 168.9453125 74.21875 58.59375 138.671875 58.59375 c 4
150.87890625 355.95703125 m 4
 131.8359375 355.95703125 117.67578125 339.35546875 103.515625 319.3359375 c 4
 74.21875 277.34375 72.265625 202.63671875 72.265625 185.546875 c 5
 140.13671875 250.48828125 l 5
 167.96875 278.80859375 193.84765625 308.10546875 193.84765625 312.98828125 c 4
 193.84765625 347.16796875 165.52734375 355.95703125 150.87890625 355.95703125 c 4
EndSplineSet
EndChar

StartChar: d
Encoding: 100 100 11
Width: 382
VWidth: 0
Flags: HMW
HStem: -9 74<64 120> 363 34<151 205> 696 10G<308 320>
VStem: 19 50<79 231>
DStem2: 245 328 299 296 0.0827246 0.996572<-294.69 -189.003 -32.2265 205.768>
AnchorPoint: "commaright" 399 662 basechar 0
LayerCount: 3
Fore
SplineSet
176 682 m 1
 205 688 304 706 312 706 c 0
 328 706 331 700 331 690 c 0
 331 685 330 679 330 672 c 2
 299 296 l 2
 291 201 283 144 283 100 c 0
 283 79 286 74 293 74 c 0
 311 74 346 138 346 138 c 1
 363 129 l 1
 363 128 344 75 282 19 c 0
 263 2 245 -10 235 -10 c 0
 228 -10 224 -5 224 7 c 0
 224 72 239 178 239 178 c 1
 224 133 133 -9 75 -9 c 0
 53 -9 19 18 19 116 c 0
 19 194 50 268 83 311 c 0
 117 355 159 397 190 397 c 0
 228 397 238 340 245 328 c 1
 259 624 l 2
 259 631 259 638 259 643 c 0
 259 665 256 670 249 670 c 0
 242 670 235 669 180 659 c 1
 176 682 l 1
233 278 m 2
 233 333 192 363 174 363 c 0
 143 363 109 305 100 286 c 0
 79 242 69 195 69 176 c 0
 69 128 78 65 119 65 c 0
 155 65 233 173 233 262 c 2
 233 278 l 2
EndSplineSet
EndChar

StartChar: c
Encoding: 99 99 12
Width: 277
VWidth: 0
Flags: W
HStem: -8 66<84 151.325> 358 42<130.577 214.281>
VStem: 18 52<84.1782 243.298>
AnchorPoint: "cedilla" 82 -93 basechar 0
AnchorPoint: "top" 203 488 basechar 0
LayerCount: 3
Fore
SplineSet
254 115 m 2
 253.981968363 114.982766223 164.951551774 -8 93 -8 c 0
 75 -8 66 1 62 4 c 0
 37 24 18 52 18 110 c 4
 18 169 29 217 49 272 c 0
 74 340 124 400 209 400 c 0
 248 400 260 381 260 368 c 0
 260 343 251 330 237 330 c 0
 216 330 190 358 146 358 c 0
 110 358 70 253 70 170 c 0
 70 93 105 58 128 58 c 0
 176 58 229 116 240 127 c 1
 254 115 l 2
EndSplineSet
Layer: 2
SplineSet
237 330 m 4
 216 330 190 358 146 358 c 4
 110 358 70 253 70 170 c 4
 70 93 105 58 128 58 c 4
 176 58 229 116 240 127 c 5
 254 115 l 5
 254 115 202 41 141 7 c 4
 120 -5 105 -8 93 -8 c 4
 75 -8 66 1 62 4 c 4
 37 24 18 52 18 110 c 4
 18 169 29 217 49 272 c 4
 74 340 124 400 209 400 c 4
 248 400 260 381 260 368 c 4
 260 343 251 330 237 330 c 4
EndSplineSet
EndChar

StartChar: b
Encoding: 98 98 13
Width: 333
VWidth: 0
Flags: HMW
HStem: -4 44<139 191> 347 52<209 271> 698 10G<129 143>
VStem: 270 48<175 324>
DStem2: 49 68 103 135 0.0651144 0.997878<17.8196 417.626>
LayerCount: 3
Fore
SplineSet
78 634 m 0
 78 659 74 667 64 667 c 0
 59 667 52 665 42 662 c 2
 9 653 l 1
 3 674 l 1
 79 694 120 708 138 708 c 0
 148 708 151 704 151 692 c 0
 151 686 149 672 108 270 c 1
 174 366 234 398 265 398 c 0
 279 398 317 384 317 294 c 0
 317 284 306 152 250 78 c 0
 231 53 174 -4 155 -4 c 0
 129 -4 99 19 66 42 c 0
 52 52 49 57 49 68 c 0
 49 79 61 218 69 368 c 0
 74 461 78 559 78 634 c 0
176 40 m 0
 207 40 270 150 270 239 c 0
 270 300 242 347 215 347 c 0
 195 347 158 315 132 267 c 0
 105 218 103 184 103 135 c 0
 103 73 166 40 176 40 c 0
EndSplineSet
Layer: 2
SplineSet
78.125 633.7890625 m 4
 78.125 659.1796875 74.70703125 666.9921875 64.453125 666.9921875 c 4
 59.08203125 666.9921875 52.24609375 665.0390625 42.48046875 662.109375 c 6
 9.27734375 652.83203125 l 5
 3.41796875 674.31640625 l 5
 79.58984375 693.84765625 120.1171875 708.0078125 138.18359375 708.0078125 c 4
 147.94921875 708.0078125 151.3671875 704.58984375 151.3671875 692.3828125 c 4
 151.3671875 687.01171875 150.390625 680.17578125 149.4140625 670.41015625 c 6
 107.91015625 269.53125 l 5
 173.828125 365.234375 233.3984375 398.4375 264.6484375 398.4375 c 4
 278.3203125 398.4375 317.3828125 383.7890625 317.3828125 293.9453125 c 4
 317.3828125 283.69140625 306.15234375 152.34375 250.48828125 78.125 c 4
 231.4453125 53.22265625 173.828125 -4.39453125 154.78515625 -4.39453125 c 4
 128.41796875 -4.39453125 99.12109375 18.5546875 66.40625 41.9921875 c 4
 52.734375 51.7578125 49.31640625 57.6171875 49.31640625 68.359375 c 4
 49.31640625 85.9375 78.125 438.96484375 78.125 633.7890625 c 4
176.26953125 39.55078125 m 4
 207.03125 40.0390625 269.53125 149.90234375 269.53125 238.76953125 c 4
 269.53125 299.8046875 242.67578125 346.6796875 215.33203125 346.6796875 c 4
 195.3125 346.6796875 158.203125 314.453125 131.8359375 266.6015625 c 4
 104.98046875 217.28515625 103.02734375 184.5703125 103.02734375 135.25390625 c 4
 103.02734375 73.2421875 166.015625 39.55078125 176.26953125 39.55078125 c 4
EndSplineSet
EndChar

StartChar: g
Encoding: 103 103 14
Width: 393
VWidth: 0
Flags: MW
HStem: -263 35<75.4844 222.814> -92 21<38.0199 53> 91 32<138.748 193.688> 372 35<153.704 211.707>
VStem: -33 55<-185.933 -98.2614> 26 48<-7.87598 68.0089> 40 65<152.806 290.98> 237 59<193.832 316.687> 287 64<-178.802 -103.926>
AnchorPoint: "l;s;gg" -42 -246 basechar 0
AnchorPoint: "r;s;gg" 351 -244 basechar 0
AnchorPoint: "top" 221 488 basechar 0
LayerCount: 3
Fore
SplineSet
59 -92 m 1xfc80
 59 -92 22 -100 22 -136 c 0
 22 -176 67 -228 146 -228 c 0
 220 -228 287 -183 287 -135 c 0
 287 -109 259 -95 219 -85 c 0
 143 -65 26 -39 26 24 c 0xfc80
 26 66 88 99 92 102 c 1
 57 118 40 159 40 197 c 0
 40 288 111 407 204 407 c 0
 260 407 282 373 333 373 c 0
 341 373 348 379 353 385 c 2
 360 393 l 1
 380 383 l 1
 351 315 353 311 333 311 c 0
 325 311 294 317 294 317 c 1
 295 308 296 298 296 289 c 0xfb
 296 215 246 91 145 91 c 0
 136 91 127 92 117 94 c 1
 117 94 74 70 74 44 c 0
 74 19 153 4 221 -9 c 0
 255 -15 351 -29 351 -113 c 0
 351 -203 247 -263 127 -263 c 0
 7 -263 -33 -198 -33 -155 c 0
 -33 -75 53 -71 53 -71 c 1
 59 -92 l 1xfc80
184 372 m 0
 148 372 105 296 105 228 c 0
 105 163 145 123 168 123 c 0
 206 123 237 208 237 279 c 0xfb
 237 329 209 372 184 372 c 0
EndSplineSet
Layer: 2
SplineSet
151.85546875 -222.65625 m 4
 243.65234375 -222.65625 287.109375 -165.0390625 287.109375 -133.7890625 c 4
 287.109375 -110.3515625 265.13671875 -93.75 227.5390625 -83.984375 c 4
 194.82421875 -75.68359375 26.3671875 -38.57421875 26.3671875 33.69140625 c 4
 26.3671875 70.80078125 75.1953125 98.14453125 81.0546875 102.5390625 c 5
 81.0546875 102.5390625 41.50390625 125.9765625 41.50390625 184.08203125 c 4
 41.50390625 234.375 69.82421875 305.6640625 93.75 336.9140625 c 4
 124.51171875 377.44140625 162.59765625 397.94921875 198.2421875 397.94921875 c 4
 253.90625 397.94921875 279.296875 358.3984375 330.078125 358.3984375 c 4xfa
 337.890625 358.3984375 345.21484375 364.2578125 350.5859375 370.60546875 c 6
 357.91015625 378.90625 l 5
 372.55859375 368.65234375 l 5
 347.65625 322.265625 l 6
 342.7734375 313.4765625 336.9140625 309.08203125 327.63671875 309.08203125 c 4
 320.3125 309.08203125 311.03515625 310.546875 298.33984375 312.5 c 5
 298.33984375 272.94921875 296.38671875 245.1171875 267.578125 187.5 c 4
 242.1875 136.71875 203.125 95.703125 141.6015625 95.703125 c 4
 125 95.703125 117.1875 97.16796875 114.2578125 97.16796875 c 4
 93.75 97.16796875 60.546875 73.2421875 60.546875 52.734375 c 4
 60.546875 -25.390625 350.09765625 24.90234375 350.09765625 -114.74609375 c 4
 350.09765625 -195.80078125 234.375 -255.859375 126.46484375 -255.859375 c 4
 81.0546875 -255.859375 46.38671875 -246.09375 34.1796875 -241.69921875 c 4
 -28.3203125 -219.23828125 -28.3203125 -174.8046875 -28.3203125 -134.765625 c 4
 -28.3203125 -89.84375 14.6484375 -77.63671875 45.8984375 -70.80078125 c 5
 49.8046875 -83.984375 l 5
 19.53125 -95.21484375 8.7890625 -120.1171875 8.7890625 -138.18359375 c 4
 8.7890625 -179.6875 76.171875 -222.65625 151.85546875 -222.65625 c 4
181.640625 372.0703125 m 4
 143.5546875 372.0703125 101.5625 296.875 101.5625 228.515625 c 4
 101.5625 184.5703125 116.2109375 118.1640625 165.0390625 118.1640625 c 4
 204.1015625 118.1640625 236.328125 208.0078125 236.328125 277.34375 c 4
 236.328125 316.89453125 210.9375 372.0703125 181.640625 372.0703125 c 4
EndSplineSet
EndChar

StartChar: r
Encoding: 114 114 15
Width: 334
VWidth: 0
Flags: HMW
HStem: -1 10G<83 117> 392 10G<138 157 255 290>
DStem2: 69 12 133 15 0.0844431 0.996428<-9.61421 206.064 217.079 340.541>
AnchorPoint: "cedilla" 94 -93 basechar 0
AnchorPoint: "top" 205 486 basechar 0
LayerCount: 3
Fore
SplineSet
313 291 m 0
 298 291 288 316 268 316 c 0
 215 316 177 232 157 172 c 0
 137 111 138 77 133 15 c 0
 132 4 122 -1 112 -1 c 2
 89 -1 l 2
 76 -1 69 4 69 12 c 0
 79 121 92 267 94 331 c 0
 94 346 89 353 80 353 c 0
 69 353 31 336 19 331 c 1
 12 354 l 1
 12 354 124 402 153 402 c 0
 162 402 165 396 165 389 c 0
 165 360 144 224 144 224 c 1
 144 224 229 398 282 398 c 0
 298 398 326 347 326 316 c 0
 326 302 322 291 313 291 c 0
EndSplineSet
EndChar

StartChar: s
Encoding: 115 115 16
Width: 299
VWidth: 0
Flags: W
HStem: -7 35<88.1265 179.502> 370 29<135.867 204.136>
VStem: 77 52<289.205 364.087> 208 60<56.6685 152.407>
AnchorPoint: "cedilla" 102 -93 basechar 0
AnchorPoint: "top" 202 488 basechar 0
LayerCount: 3
Fore
SplineSet
129 336 m 0
 129 272 268 213 268 118 c 0
 268 56 201 -7 116 -7 c 0
 67 -7 35 5 26 17 c 0
 20 24 18 37 18 60 c 0
 18 78 25 101 42 101 c 0
 71 101 68 28 130 28 c 0
 174 28 208 60 208 101 c 0
 208 177 77 218 77 311 c 0
 77 371 137 399 200 399 c 0
 238 399 279 381 279 348 c 0
 279 339 272 325 261 325 c 0
 221 325 208 370 169 370 c 0
 145 370 129 355 129 336 c 0
EndSplineSet
AlternateSubs2: "'aalt' Access All Alternates lookup 0 subtable" longs
AlternateSubs2: "'aalt' Access All Alternates in Latin lookup 0 subtable" longs
Substitution2: "'hist' Historical Forms in Latin lookup 8 subtable" longs
EndChar

StartChar: o
Encoding: 111 111 17
Width: 327
VWidth: 0
Flags: W
HStem: -12 38<122.492 181.736> 369 32<159.591 216.166>
VStem: 23 67<60.9375 241.877> 248 65<153.977 338.936>
AnchorPoint: "top" 227 488 basechar 0
LayerCount: 3
Fore
SplineSet
212 401 m 0
 294 401 313 317 313 264 c 0
 313 138 217 -12 126 -12 c 0
 64 -12 23 52 23 128 c 0
 23 254 92 325 103 338 c 0
 128 367 169 401 212 401 c 0
187 369 m 0
 148 369 90 276 90 170 c 0
 90 94 115 26 154 26 c 0
 201 26 248 145 248 238 c 0
 248 289 231 369 187 369 c 0
EndSplineSet
EndChar

StartChar: w
Encoding: 119 119 18
Width: 593
VWidth: 0
Flags: MW
HStem: -13 66<110 185 329 406> 376 20G<342.5 379.5 528 554> 382 20G<142.5 158.5>
VStem: 78 66<56 324> 304 63<53 187> 531 46<238 349>
AnchorPoint: "top" 375 488 basechar 0
LayerCount: 3
Fore
SplineSet
531 288 m 0xdc
 531 328 505 339 505 369 c 0
 505 381 516 396 540 396 c 0xdc
 568 396 577 369 577 342 c 0
 577 285 539 173 494 104 c 0
 434 12 379 -13 350 -13 c 0
 308 -13 304 30 304 72 c 0
 304 98 311 187 311 187 c 1
 311 187 277 107 235 54 c 0
 204 14 153 -13 129 -13 c 0
 90 -13 78 30 78 72 c 0
 78 156 97 274 98 325 c 0
 98 338 93 347 84 347 c 0
 78 347 78 346 23 322 c 1
 15 341 l 1
 77 374 132 402 153 402 c 0xbc
 164 402 169 397 169 387 c 0
 169 370 144 171 144 136 c 0
 144 96 151 53 174 53 c 0
 193 53 229 82 271 159 c 0
 309 228 322 330 326 367 c 0
 328 385 332 396 353 396 c 2
 373 396 l 2
 386 396 390 383 390 374 c 0
 386 326 367 278 367 145 c 0
 367 93 369 52 392 52 c 0
 425 52 531 177 531 288 c 0xdc
EndSplineSet
Layer: 2
SplineSet
531 288 m 4
 531 328 505 339 505 369 c 4
 505 381 516 396 540 396 c 4
 568 396 577 369 577 342 c 4
 577 285 539 173 494 104 c 4
 434 12 379 -13 350 -13 c 4
 308 -13 304 30 304 72 c 4
 304 98 311 187 311 187 c 5
 311 187 277 107 235 54 c 4
 204 14 153 -13 129 -13 c 4
 90 -13 78 30 78 72 c 4
 78 156 97 274 98 325 c 4
 98 338 93 347 84 347 c 4
 78 347 78 346 23 322 c 5
 15 341 l 5
 77 374 132 402 153 402 c 4
 164 402 169 397 169 387 c 4
 169 370 144 171 144 136 c 4
 144 96 151 53 174 53 c 4
 193 53 229 82 271 159 c 4
 309 228 322 330 326 367 c 4
 328 385 332 396 353 396 c 6
 373 396 l 6
 386 396 390 383 390 374 c 4
 386 326 367 278 367 145 c 4
 367 93 369 52 392 52 c 4
 425 52 531 177 531 288 c 4
EndSplineSet
EndChar

StartChar: u
Encoding: 117 117 19
Width: 463
VWidth: 0
Flags: HMW
HStem: -10 10G<89 110 302 314> 389 10G<141 163 327 365>
VStem: 285 66<18 274>
DStem2: 73 48 145 124 0.0805807 0.996748<0 80.7349 222.215 299.141>
AnchorPoint: "top" 250 488 basechar 0
LayerCount: 3
Fore
SplineSet
157 74 m 0
 187 74 309 254 309 347 c 2
 309 369 l 2
 309 388 315 399 338 399 c 2
 362 399 l 2
 369 399 377 394 376 384 c 0
 369 307 352 184 352 97 c 0
 352 88 356 78 363 78 c 0
 379 78 425 151 425 151 c 1
 443 138 l 1
 435 125 415 79 344 11 c 0
 331 -2 319 -10 310 -10 c 0
 295 -10 285 7 285 38 c 0
 285 80 295 147 300 229 c 1
 300 229 280 184 249 133 c 0
 200 50 123 -9 97 -9 c 0
 81 -9 73 13 73 48 c 0
 73 118 96 239 96 326 c 0
 96 341 92 349 83 349 c 0
 80 349 75 348 71 346 c 2
 26 326 l 1
 15 353 l 1
 15 353 126 402 156 402 c 0
 169 402 173 395 173 381 c 0
 173 359 161 320 155 265 c 0
 148 196 145 152 145 124 c 0
 145 102 145 74 157 74 c 0
EndSplineSet
EndChar

StartChar: t
Encoding: 116 116 20
Width: 267
VWidth: 0
Flags: MW
HStem: -5 63<90 168.062> 361 31<17 91 157 241>
DStem2: 96 392 157 392 0.175526 0.984475<10.7071 106.651>
AnchorPoint: "commaright" 248 654 basechar 0
AnchorPoint: "cedilla" 106 -93 basechar 0
LayerCount: 3
Fore
SplineSet
152 361 m 1
 151 351 135 225 135 129 c 0
 135 93 137 58 157 58 c 0
 179 58 235 121 235 121 c 1
 252 105 l 1
 192 16 110 -5 99 -5 c 0
 81 -5 67 14 67 36 c 0
 67 189 91 361 91 361 c 1
 14 361 l 1
 17 392 l 1
 96 392 l 1
 110 476 l 2
 111 484 153 503 166 503 c 0
 172 503 175 497 175 490 c 0
 175 471 162 438 157 392 c 1
 245 392 l 1
 241 361 l 1
 152 361 l 1
EndSplineSet
EndChar

StartChar: y
Encoding: 121 121 21
Width: 372
VWidth: 0
Flags: HMW
HStem: -260 23<-8 34> 391 10G<118 146 302 327>
VStem: 292 62<271 378>
DStem2: 182 306 124 262 0.259711 -0.965686<-48.6024 231.377>
AnchorPoint: "top" 245 488 basechar 0
LayerCount: 3
Fore
SplineSet
292 339 m 0
 292 373 270 378 270 378 c 1
 271 395 l 1
 287 397 299 397 306 397 c 2
 312 397 l 2
 342 397 354 395 354 371 c 0
 354 322 282 85 216 -49 c 0
 181 -120 145 -182 101 -244 c 0
 94 -253 90 -260 74 -260 c 2
 -8 -260 l 1
 -8 -237 l 1
 31 -227 30 -239 92 -173 c 0
 139 -123 195 -29 195 -2 c 0
 195 27 157 173 124 262 c 0
 109 302 95 331 87 331 c 0
 72 331 57 301 32 263 c 1
 9 277 l 1
 12 281 39 329 68 360 c 0
 89 382 110 401 127 401 c 0
 148 401 163 370 182 306 c 0
 197 254 215 179 240 82 c 1
 268 150 292 236 292 339 c 0
EndSplineSet
Layer: 2
SplineSet
292 339 m 4
 292 373 270 378 270 378 c 5
 271 395 l 5
 287 397 299 397 306 397 c 6
 312 397 l 6
 342 397 354 395 354 371 c 4
 354 322 282 85 216 -49 c 4
 181 -120 145 -182 101 -244 c 4
 94 -253 90 -260 74 -260 c 6
 -8 -260 l 5
 -8 -237 l 5
 31 -227 30 -239 92 -173 c 4
 139 -123 195 -29 195 -2 c 4
 195 40 113 331 87 331 c 4
 72 331 57 301 32 263 c 5
 9 277 l 5
 12 281 39 329 68 360 c 4
 89 382 110 401 127 401 c 4
 165 401 185 297 240 82 c 5
 268 150 292 236 292 339 c 4
EndSplineSet
EndChar

StartChar: quoteright
Encoding: 8217 8217 22
Width: 243
VWidth: 0
Flags: HW
HStem: 468 212<81 124>
VStem: 131 59<530.73 606.23>
AnchorPoint: "r;s;quote" 294 589 basechar 0
AnchorPoint: "l;s;quote" 124 589 basechar 0
AnchorPoint: "l;x" 0 376 basechar 0
AnchorPoint: "l;hi" 0 684 basechar 0
AnchorPoint: "l;o" 0 195 basechar 0
AnchorPoint: "r;x" 243 376 basechar 0
AnchorPoint: "r;hi" 243 684 basechar 0
AnchorPoint: "r;o" 243 195 basechar 0
LayerCount: 3
Fore
SplineSet
69 477 m 4
 69 501 131 505 131 567 c 4
 131 617 80 608 80 624 c 4
 80 626 82 629 84 633 c 6
 108 668 l 6
 110 671 118 680 124 680 c 4
 129 680 137 675 152 666 c 4
 173 653 190 646 190 602 c 4
 190 519 110 468 81 468 c 4
 74 468 69 471 69 477 c 4
EndSplineSet
EndChar

StartChar: G
Encoding: 71 71 23
Width: 773
VWidth: 0
Flags: W
HStem: -23 49<310.689 535.071> 260 39<474 593 674 749> 630 48<291.341 541.046>
VStem: 37 90<222.332 418.927> 593 81<64.7957 260> 621 40<476 580.361 632 682> 629 39<464 495.143>
AnchorPoint: "top" 394 732 basechar 0
LayerCount: 3
Fore
SplineSet
37 298 m 0xf8
 37 482 176 678 417 678 c 0
 499 678 559 657 621 632 c 1
 621 682 l 1
 661 682 l 1xf4
 668 464 l 1
 629 463 l 1xf2
 622 567 l 1
 622 567 545 630 409 630 c 0
 216 630 127 491 127 346 c 0
 127 189 231 26 420 26 c 0
 537 26 593 81 593 81 c 1
 593 260 l 1
 474 260 l 1
 473 299 l 1
 749 299 l 1
 750 260 l 1
 674 260 l 1
 674 55 l 1
 595 22 526 -23 401 -23 c 0
 149 -23 37 133 37 298 c 0xf8
EndSplineSet
Layer: 2
SplineSet
37.109375 298.33984375 m 0xf8
 37.109375 482.421875 176.7578125 677.734375 417.48046875 677.734375 c 0
 499.0234375 677.734375 559.5703125 657.2265625 621.09375 631.8359375 c 1
 621.09375 682.12890625 l 1
 661.1328125 682.12890625 l 1xf4
 667.96875 463.8671875 l 1
 628.90625 462.890625 l 1xf2
 622.0703125 567.3828125 l 1
 622.0703125 567.3828125 545.41015625 630.37109375 409.1796875 630.37109375 c 0
 215.8203125 630.37109375 126.953125 490.72265625 126.953125 345.703125 c 0
 126.953125 188.96484375 230.95703125 25.87890625 419.921875 25.87890625 c 0
 537.109375 25.87890625 593.26171875 81.0546875 593.26171875 81.0546875 c 1
 593.26171875 259.765625 l 1
 473.6328125 259.765625 l 1
 472.65625 298.33984375 l 1
 748.53515625 298.33984375 l 1
 749.51171875 259.765625 l 1
 674.31640625 259.765625 l 1
 674.31640625 54.6875 l 1
 595.703125 21.484375 526.3671875 -23.4375 401.3671875 -23.4375 c 0
 149.4140625 -23.4375 37.109375 133.30078125 37.109375 298.33984375 c 0xf8
EndSplineSet
Position2: "'cpsp' Capital Spacing in Latin lookup 2 subtable" dx=6 dy=0 dh=12 dv=0
EndChar

StartChar: A
Encoding: 65 65 24
Width: 720
VWidth: 0
Flags: HW
HStem: 0 39<25 78.7924 137.012 219 468 541.985 638.163 695> 264 44<245 441>
DStem2: 106 113 147 88 0.396983 0.917826<-39.703 186.23 234.157 491.777> 377 691 346 545 0.372772 -0.927923<123.921 379.252 426.418 655.114>
AnchorPoint: "top" 366 732 basechar 0
LayerCount: 3
Fore
SplineSet
24 39 m 1
 74 42 69 31 106 113 c 0
 239 410 240 410 254 443 c 2
 356 691 l 1
 377 691 l 1
 416 589 512 353 594 155 c 0
 646 27 641 42 696 39 c 1
 695 0 l 1
 467 0 l 1
 468 39 l 1
 522 40 542 37 542 51 c 0
 542 57 538 66 532 82 c 2
 458 264 l 1
 226 264 l 1
 147 88 l 2
 142 76 137 63 137 56 c 0
 137 40 146 39 178 39 c 0
 183 39 190 39 197 39 c 0
 204 39 211 39 219 39 c 1
 219 0 l 1
 25 0 l 1
 24 39 l 1
245 308 m 1
 441 308 l 1
 346 545 l 1
 245 308 l 1
EndSplineSet
Layer: 2
SplineSet
25.390625 0 m 29
 24.4140625 39.0625 l 21
 74.21875 41.9921875 69.82421875 31.73828125 106.4453125 113.28125 c 4
 239.74609375 410.15625 240.234375 410.15625 253.90625 443.359375 c 4
 356.93359375 691.40625 352.05078125 691.40625 363.76953125 691.40625 c 6
 370.60546875 691.40625 l 6
 381.34765625 691.40625 380.37109375 679.19921875 410.64453125 605.46875 c 6
 624.0234375 82.03125 l 6
 643.5546875 34.1796875 646.484375 40.0390625 696.2890625 39.0625 c 13
 694.82421875 0 l 29
 466.796875 0 l 29
 467.7734375 39.0625 l 21
 521.97265625 40.0390625 541.9921875 37.109375 541.9921875 50.78125 c 4
 541.9921875 57.12890625 538.57421875 66.40625 532.2265625 82.03125 c 6
 458.0078125 263.671875 l 13
 225.5859375 263.671875 l 21
 146.97265625 87.890625 l 6
 141.6015625 76.171875 137.20703125 63.4765625 137.20703125 56.15234375 c 4
 137.20703125 35.15625 153.3203125 40.52734375 219.23828125 39.0625 c 13
 219.23828125 0 l 29
 25.390625 0 l 29
244.62890625 307.6171875 m 29
 440.91796875 307.6171875 l 29
 345.703125 545.41015625 l 29
 244.62890625 307.6171875 l 29
EndSplineSet
Position2: "'cpsp' Capital Spacing in Latin lookup 2 subtable" dx=5 dy=0 dh=11 dv=0
EndChar

StartChar: B
Encoding: 66 66 25
Width: 528
VWidth: 0
Flags: HW
HStem: 0 44<29 100.961 182.895 346.805> 344 29<182 284.784> 623 44<23 100.337 182.021 313.651>
VStem: 101 81<47.2511 344 373 622.273> 386 93<436.838 556.592> 408 95<99.4596 259.284>
LayerCount: 3
Fore
SplineSet
21 627 m 1xf4
 23 667 l 1
 244 667 l 2
 427 667 479 579 479 503 c 0xf8
 479 432 413 380 351 362 c 1
 463 337 503 248 503 172 c 0
 503 130 490 88 458 59 c 0
 396 3 282 0 171 0 c 2
 29 0 l 1
 29 39 l 1
 88 41 101 34 101 68 c 2
 101 591 l 2
 101 625 85 627 49 627 c 0
 45 627 41 627 36 627 c 0
 31 627 26 627 21 627 c 1xf4
180 344 m 1
 182 76 l 2
 182 48 196 44 247 44 c 0
 388 44 408 125 408 179 c 0xf4
 408 319 265 344 180 344 c 1
182 373 m 1
 280 373 l 2
 348 373 386 441 386 491 c 0xf8
 386 544 343 623 212 623 c 0
 189 623 182 615 182 600 c 2
 182 373 l 1
EndSplineSet
Position2: "'cpsp' Capital Spacing in Latin lookup 2 subtable" dx=4 dy=0 dh=8 dv=0
EndChar

StartChar: C
Encoding: 67 67 26
Width: 757
VWidth: 0
Flags: HW
HStem: -16 44<319.515 529.005> 622 47<294.175 547.51>
VStem: 39 85<233.494 436.788> 617 38<639.464 675> 636 32<106.354 187 484 558.94>
AnchorPoint: "cedilla" 402 -93 basechar 0
AnchorPoint: "top" 392 732 basechar 0
LayerCount: 3
Fore
SplineSet
39 314 m 0xe8
 39 554 241 669 401 669 c 0
 548 669 585 638 601 638 c 0
 618 638 616 644 617 675 c 1
 655 675 l 1xf0
 657 612 661 548 667 484 c 1
 631 483 l 1
 619 582 632 560 570 591 c 0
 541 606 472 622 404 622 c 0
 236 622 124 494 124 343 c 0
 124 184 250 28 427 28 c 0
 529 28 635 101 636 131 c 2
 639 215 l 1
 674 215 l 1
 668 69 l 1
 668 69 549 -16 402 -16 c 0
 171 -16 39 112 39 314 c 0xe8
EndSplineSet
Position2: "'cpsp' Capital Spacing in Latin lookup 2 subtable" dx=5 dy=0 dh=11 dv=0
EndChar

StartChar: D
Encoding: 68 68 27
Width: 728
VWidth: 0
Flags: HW
HStem: 0 39<35 111.549 196.232 412.801> 620 47<195.906 405.546> 627 40<20 112.522>
VStem: 113 81<42.625 618.531> 600 90<235.088 440.725>
LayerCount: 3
Fore
SplineSet
17 667 m 1xb8
 287 667 l 2xd8
 393 667 478 665 551 623 c 0
 645 568 690 465 690 359 c 0
 690 222 610 0 293 0 c 2
 35 0 l 1
 34 39 l 1
 105 42 113 31 113 83 c 2
 113 591 l 2
 113 625 111 627 62 627 c 0
 56 627 50 627 43 627 c 0
 36 627 29 627 20 627 c 1
 17 667 l 1xb8
194 85 m 2
 194 43 196 39 279 39 c 0
 536 39 600 194 600 328 c 0
 600 469 505 620 272 620 c 2
 235 620 l 2
 203 620 194 615 194 573 c 2
 194 85 l 2
EndSplineSet
Position2: "'cpsp' Capital Spacing in Latin lookup 2 subtable" dx=5 dy=0 dh=11 dv=0
EndChar

StartChar: E
Encoding: 69 69 28
Width: 612
VWidth: 0
Flags: HW
HStem: 0 46<200.008 438.299> 0 39<39 116.965> 354 44<199.409 419.417> 624 43<20 117.135 200.328 491.75>
VStem: 118 81<46.6074 353.476 398.264 622.375> 421 37<246 353.288 399.231 485> 500 39<510 621.709>
DStem2: 521 76 571 155 0.159232 0.987241<-24.3317 85.476>
AnchorPoint: "top" 300 732 basechar 0
LayerCount: 3
Fore
SplineSet
19 667 m 25x7e
 534 667 l 17
 535 610 536 567 539 510 c 9
 500 508 l 17
 496 611 490 621 476 623 c 0
 466 624 448 624 427 624 c 2
 257 624 l 2
 202 624 199 622 199 577 c 2
 199 438 l 2
 199 401 200 398 232 398 c 2
 383 398 l 2
 426 398 420 403 421 486 c 9
 458 485 l 25
 458 246 l 25
 421 246 l 17
 420 354 426 354 385 354 c 2
 235 354 l 2
 201 354 199 349 199 323 c 2
 199 87 l 2
 199 52 205 46 231 46 c 0xbe
 523 49 514 50 521 76 c 0
 528 99 533 139 537 160 c 9
 571 155 l 25
 546 0 l 25
 39 0 l 25
 39 39 l 17
 112 41 118 34 118 77 c 2
 118 584 l 2
 118 630 113 626 20 627 c 9
 19 667 l 25x7e
EndSplineSet
Position2: "'cpsp' Capital Spacing in Latin lookup 2 subtable" dx=4 dy=0 dh=9 dv=0
EndChar

StartChar: F
Encoding: 70 70 29
Width: 575
VWidth: 0
Flags: HW
HStem: 0 39<39 116.965 201.149 296> 354 44<199.409 419.417> 624 43<22 117.281 200.328 491.75>
VStem: 118 81<40.6846 353.476 398.264 622.221> 421 37<246 353.288 399.124 485> 500 39<510 621.709>
LayerCount: 3
Fore
SplineSet
21 667 m 25
 534 667 l 17
 535 610 536 567 539 510 c 9
 500 508 l 17
 496 611 490 621 476 623 c 0
 466 624 448 624 427 624 c 2
 257 624 l 2
 202 624 199 622 199 577 c 2
 199 438 l 2
 199 401 200 398 232 398 c 2
 383 398 l 2
 426 398 420 402 421 485 c 9
 458 485 l 25
 458 246 l 25
 421 246 l 17
 420 354 426 354 385 354 c 2
 235 354 l 2
 201 354 199 349 199 323 c 2
 199 87 l 2
 199 52 203 39 229 39 c 2
 296 39 l 9
 296 0 l 25
 39 0 l 25
 39 39 l 17
 112 41 118 34 118 77 c 2
 118 584 l 2
 118 626 117 627 22 627 c 9
 21 667 l 25
EndSplineSet
Position2: "'cpsp' Capital Spacing in Latin lookup 2 subtable" dx=4 dy=0 dh=9 dv=0
EndChar

StartChar: H
Encoding: 72 72 30
Width: 703
VWidth: 0
Flags: HW
HStem: 0 39<37 112.256 196.179 293 444 517.87 601.478 693> 345 48<194 519> 627 40<28 111.872 196.767 277 425 518.456 601.885 678>
VStem: 113 81<42.1527 345 393 624.429> 519 81<41.3464 345 393 625.265>
AnchorPoint: "top" 355 732 basechar 0
LayerCount: 3
Fore
SplineSet
28 627 m 1
 28 667 l 1
 277 667 l 1
 277 627 l 1
 215 624 194 636 194 583 c 2
 194 393 l 1
 519 393 l 1
 519 591 l 2
 519 625 517 627 467 627 c 0
 461 627 455 627 448 627 c 0
 441 627 434 627 425 627 c 1
 424 667 l 1
 678 667 l 1
 678 627 l 1
 616 624 600 636 600 585 c 2
 600 80 l 2
 600 35 607 40 694 39 c 1
 693 0 l 1
 444 0 l 1
 443 39 l 1
 514 42 519 31 519 83 c 2
 519 345 l 1
 194 345 l 1
 194 83 l 2
 194 35 204 40 295 39 c 1
 293 0 l 1
 37 0 l 1
 36 39 l 1
 112 41 113 31 113 83 c 2
 113 594 l 2
 113 630 100 626 28 627 c 1
EndSplineSet
Layer: 2
SplineSet
27.83203125 627.44140625 m 5
 27.83203125 666.50390625 l 5
 276.85546875 666.50390625 l 5
 276.85546875 627.44140625 l 5
 214.84375 624.0234375 193.84765625 635.7421875 193.84765625 583.0078125 c 6
 193.84765625 393.06640625 l 5
 519.04296875 393.06640625 l 5
 519.04296875 591.30859375 l 6
 519.04296875 633.7890625 516.11328125 625.9765625 424.8046875 627.44140625 c 5
 423.828125 666.50390625 l 5
 678.22265625 666.50390625 l 5
 678.22265625 627.44140625 l 5
 616.2109375 624.0234375 600.09765625 636.71875 600.09765625 585.44921875 c 6
 600.09765625 80.078125 l 6
 600.09765625 35.15625 607.421875 40.0390625 694.3359375 39.0625 c 5
 693.359375 0 l 5
 444.3359375 0 l 5
 442.87109375 39.0625 l 5
 514.16015625 41.9921875 519.04296875 31.25 519.04296875 83.49609375 c 6
 519.04296875 344.23828125 l 5
 193.84765625 344.23828125 l 5
 193.84765625 82.51953125 l 6
 193.84765625 34.1796875 204.1015625 40.0390625 294.921875 39.0625 c 5
 293.45703125 0 l 5
 37.109375 0 l 5
 36.1328125 39.0625 l 5
 112.3046875 41.015625 112.79296875 31.25 112.79296875 83.49609375 c 6
 112.79296875 593.75 l 6
 112.79296875 629.8828125 99.609375 625.9765625 27.83203125 627.44140625 c 5
EndSplineSet
Position2: "'cpsp' Capital Spacing in Latin lookup 2 subtable" dx=5 dy=0 dh=11 dv=0
EndChar

StartChar: I
Encoding: 73 73 31
Width: 315
VWidth: 0
Flags: HW
HStem: 0 39<32 111.228 195.954 287> 627 40<21 112.522 196.232 272>
VStem: 113 81<41.0248 625.265>
AnchorPoint: "top" 150 732 basechar 0
LayerCount: 3
Fore
SplineSet
20 627 m 1
 21 667 l 1
 272 667 l 1
 272 627 l 1
 261 626 251 626 243 626 c 0
 240 626 l 0
 204 626 194 626 194 581 c 2
 194 85 l 2
 194 33 200 40 287 39 c 1
 288 0 l 1
 32 0 l 1
 31 39 l 1
 102 42 113 31 113 83 c 2
 113 591 l 2
 113 625 111 627 62 627 c 0
 56 627 50 627 43 627 c 0
 36 627 29 627 20 627 c 1
EndSplineSet
Position2: "'cpsp' Capital Spacing in Latin lookup 2 subtable" dx=2 dy=0 dh=5 dv=0
EndChar

StartChar: J
Encoding: 74 74 32
Width: 298
VWidth: 0
Flags: HW
HStem: -258 55<-25.5 71.0372> 627 40<31 112.316 195.911 269>
VStem: 113 81<-131.69 625.567>
AnchorPoint: "top" 145 732 basechar 0
LayerCount: 3
Fore
SplineSet
-83 -210 m 0
 -83 -182 -43 -148 -21 -148 c 0
 9 -148 18 -203 48 -203 c 0
 104 -203 113 -108 113 -24 c 2
 113 591 l 2
 113 633 107 625 31 627 c 1
 31 667 l 1
 271 667 l 1
 269 627 l 1
 258 626 249 626 241 626 c 0
 237 626 l 0
 202 626 194 626 194 581 c 2
 194 -2 l 2
 194 -70 188 -108 168 -141 c 0
 151 -170 100 -222 62 -242 c 0
 42 -252 21 -258 -5 -258 c 0
 -46 -258 -83 -232 -83 -210 c 0
EndSplineSet
Position2: "'cpsp' Capital Spacing in Latin lookup 2 subtable" dx=2 dy=0 dh=4 dv=0
EndChar

StartChar: K
Encoding: 75 75 33
Width: 712
VWidth: 0
Flags: HW
HStem: 0 39<29 101.977 187.067 285 590.631 682> 627 40<10 102.522 186.018 260 416 500.989 564.719 654>
VStem: 103 81<42.0336 304 351 625.508>
DStem2: 184 351 221 334 0.781341 0.624105<0 18.2998 94.5132 412.113> 281 381 221 334 0.673114 -0.739539<0 446.004>
AnchorPoint: "cedilla" 363 -93 basechar 0
LayerCount: 3
Fore
SplineSet
10 627 m 1
 10 667 l 1
 260 667 l 1
 260 627 l 1
 249 626 239 626 231 626 c 0
 228 626 l 0
 193 626 184 626 184 581 c 2
 184 351 l 1
 476 588 l 2
 493 602 501 611 501 617 c 0
 501 625 486 627 455 627 c 2
 416 627 l 1
 414 667 l 1
 654 667 l 1
 654 627 l 1
 628 627 l 2
 585 627 581 621 507 562 c 2
 281 381 l 1
 583 66 l 2
 605 43 613 39 626 39 c 2
 684 39 l 1
 682 0 l 1
 525 0 l 1
 221 334 l 1
 184 304 l 1
 184 85 l 2
 184 33 198 40 285 39 c 1
 285 0 l 1
 29 0 l 1
 28 39 l 1
 99 42 103 31 103 83 c 2
 103 591 l 2
 103 625 101 627 52 627 c 0
 46 627 40 627 33 627 c 0
 26 627 19 627 10 627 c 1
EndSplineSet
Position2: "'cpsp' Capital Spacing in Latin lookup 2 subtable" dx=5 dy=0 dh=11 dv=0
EndChar

StartChar: L
Encoding: 76 76 34
Width: 569
VWidth: 0
Flags: HW
HStem: 0 56<265.775 505.387> 0 46<198.967 443.365> 0 39<43 116.334> 627 40<30 115.583 199.448 286>
VStem: 117 81<46.6074 624.625> 524 35<131.576 167>
AnchorPoint: "commaright" 366 654 basechar 0
AnchorPoint: "top" 155 732 basechar 0
LayerCount: 3
Fore
SplineSet
29 627 m 1x3c
 30 667 l 1
 286 667 l 1
 286 627 l 1
 273 626 261 626 251 626 c 0
 247 626 244 626 241 626 c 0
 208 626 198 625 198 590 c 2
 198 85 l 2
 198 50 205 46 231 46 c 0x5c
 386 47 455 51 483 56 c 0x9c
 503 59 505 59 524 169 c 9
 559 167 l 25
 526 0 l 25
 43 0 l 25
 42 39 l 17
 115 41 117 34 117 77 c 2
 117 594 l 2
 117 633 94 625 29 627 c 1x3c
EndSplineSet
Position2: "'cpsp' Capital Spacing in Latin lookup 2 subtable" dx=4 dy=0 dh=9 dv=0
EndChar

StartChar: M
Encoding: 77 77 35
Width: 804
VWidth: 0
Flags: HW
HStem: -7 21G<378.5 388.5> 0 39<22 89.5 139.173 238 538 616.335 700.674 780> 627 40<23 101.74 700.412 785>
VStem: 92 46<42.1403 465.556> 101 41<194.444 529> 618 81<41.3464 542>
DStem2: 173 667 142 529 0.392672 -0.919679<114.743 580.638> 401 133 464 179 0.386821 0.922155<0 461.101>
LayerCount: 3
Fore
SplineSet
22 0 m 1x74
 22 39 l 1
 85 41 91 35 92 86 c 2x74
 101 574 l 2
 101 585 102 593 102 600 c 0
 102 622 97 627 74 627 c 2
 23 627 l 1
 22 667 l 1
 173 667 l 1
 401 133 l 1
 625 667 l 1
 785 667 l 1
 785 627 l 1
 722 626 699 632 699 595 c 2
 699 85 l 2
 699 33 704 42 780 39 c 1
 781 0 l 1
 538 0 l 1
 537 39 l 1x6c
 608 42 618 31 618 83 c 2
 618 542 l 1
 464 179 l 2
 386 -5 395 -7 382 -7 c 0
 375 -7 365 13 343 64 c 2
 142 529 l 1xac
 138 73 l 2
 138 40 144 39 238 39 c 1
 238 0 l 1
 22 0 l 1x74
EndSplineSet
Position2: "'cpsp' Capital Spacing in Latin lookup 2 subtable" dx=6 dy=0 dh=12 dv=0
EndChar

StartChar: N
Encoding: 78 78 36
Width: 724
VWidth: 0
Flags: HW
HStem: -17 21G<598.5 622.5> 0 39<32 102.237 153.828 242> 627 40<16 94 492 578.606 630.396 705>
VStem: 104 47<41.8743 561> 580 47<138 623.776>
DStem2: 170 667 104 615 0.614812 -0.788673<0 0.433392 68.8439 669.281>
AnchorPoint: "cedilla" 367 -93 basechar 0
AnchorPoint: "top" 362 732 basechar 0
LayerCount: 3
Fore
SplineSet
15 667 m 1x78
 170 667 l 1
 580 138 l 1
 580 591 l 2
 580 625 568 627 525 627 c 0
 520 627 515 627 509 627 c 0
 503 627 497 627 490 627 c 1
 492 667 l 1
 705 667 l 1
 705 627 l 1
 650 625 627 633 627 583 c 2
 627 7 l 2
 627 -10 627 -17 618 -17 c 2
 604 -17 l 2xb8
 593 -17 595 -16 582 1 c 2
 512 91 l 0
 401 233 l 0
 146 561 l 1
 151 85 l 2
 151 41 160 39 225 39 c 0
 230 39 236 39 242 39 c 1
 242 0 l 1
 32 0 l 1
 32 39 l 1
 95 41 104 32 104 83 c 2
 104 615 l 1
 94 627 l 1
 16 627 l 1
 15 667 l 1x78
EndSplineSet
Position2: "'cpsp' Capital Spacing in Latin lookup 2 subtable" dx=5 dy=0 dh=11 dv=0
EndChar

StartChar: O
Encoding: 79 79 37
Width: 757
VWidth: 0
Flags: HW
HStem: -16 43<301.725 492.407> 640 41<269.52 453.316>
VStem: 34 90<231.925 457.632> 633 91<204.928 441.943>
AnchorPoint: "top" 376 732 basechar 0
LayerCount: 3
Fore
SplineSet
34 327 m 0
 34 563 208 681 381 681 c 0
 553 681 724 565 724 333 c 0
 724 159 608 -16 373 -16 c 0
 146 -16 34 155 34 327 c 0
124 360 m 0
 124 198 220 27 400 27 c 0
 520 27 633 119 633 308 c 0
 633 520 495 640 360 640 c 0
 269 640 124 578 124 360 c 0
EndSplineSet
Position2: "'cpsp' Capital Spacing in Latin lookup 2 subtable" dx=5 dy=0 dh=11 dv=0
EndChar

StartChar: p
Encoding: 112 112 38
Width: 375
VWidth: 0
Flags: MW
HStem: -6 44<154 229> 334 61<238 310> 394 10G<140 156>
VStem: 302 52<176 314>
DStem2: -21 -242 -21 -271 0.996322 0.0856837<0 73.1157 138.051 242.212> 51 -208 114 -202 0.0818413 0.996645<-11.7154 10.9948>
LayerCount: 3
Fore
SplineSet
88 349 m 0xd0
 82 349 74 346 25 324 c 1
 15 347 l 1
 15 347 129 403 152 403 c 0
 160 403 166 400 166 391 c 0
 166 387 153 313 147 273 c 1
 147 273 225 395 292 395 c 0
 327 395 354 364 354 287 c 0
 354 227 326 154 312 125 c 0
 278 55 220 -6 186 -6 c 0
 155 -6 129 22 129 22 c 1
 124 -89 114 -182 114 -202 c 0
 114 -219 114 -227 133 -227 c 0
 142 -227 187 -223 223 -221 c 1
 222 -248 l 1
 -21 -271 l 1
 -21 -242 l 1
 53 -235 49 -241 51 -208 c 0
 72 68 83 202 89 266 c 0
 92 305 96 325 96 337 c 0
 96 345 94 349 88 349 c 0xd0
248 334 m 0
 212 334 135 247 135 149 c 0
 135 71 159 39 188 39 c 0
 237 39 302 131 302 225 c 0
 302 260 291 334 248 334 c 0
EndSplineSet
EndChar

StartChar: q
Encoding: 113 113 39
Width: 341
VWidth: 0
Flags: HMW
HStem: -3 62<56 125> 360 36<143 198>
VStem: 15 57<77 234>
DStem2: 81 -237 80 -270 0.996615 0.0822157<0 106.261 175.114 239.878> 190 -188 254 -202 0.0596309 0.99822<-33.1223 198.689>
LayerCount: 3
Fore
SplineSet
323 -226 m 1
 323 -250 l 1
 80 -270 l 1
 81 -237 l 1
 176 -230 185 -239 190 -188 c 2
 222 146 l 1
 222 146 144 -3 76 -3 c 0
 36 -3 15 54 15 109 c 0
 15 143 26 212 44 255 c 0
 86 355 158 396 190 396 c 0
 233 396 266 341 266 341 c 1
 266 341 275 392 280 412 c 1
 305 408 l 1
 291 328 289 308 278 207 c 0
 266 100 254 -180 254 -202 c 0
 254 -225 260 -227 283 -227 c 0
 293 -227 308 -226 323 -226 c 1
226 259 m 0
 226 327 189 360 165 360 c 0
 117 360 71 239 71 171 c 0
 71 84 103 59 122 59 c 0
 145 59 168 91 188 123 c 0
 211 159 226 210 226 259 c 0
EndSplineSet
EndChar

StartChar: v
Encoding: 118 118 40
Width: 363
VWidth: 0
Flags: HMW
HStem: -15 65<96 170> 396 10G<136 148 293 317>
VStem: 71 67<76 308> 299 46<233 350>
LayerCount: 3
Fore
SplineSet
12 355 m 1
 126 403 129 406 142 406 c 0
 155 406 160 399 160 390 c 0
 160 361 138 268 138 191 c 2
 138 147 l 2
 138 83 142 50 167 50 c 0
 192 50 299 164 299 291 c 0
 299 335 273 337 273 371 c 0
 273 391 283 403 303 403 c 0
 331 403 345 372 345 345 c 0
 345 288 312 176 267 107 c 0
 207 15 145 -15 115 -15 c 0
 76 -15 71 33 71 75 c 0
 71 144 82 264 88 328 c 0
 89 341 84 349 75 349 c 0
 72 349 67 348 63 346 c 2
 18 327 l 1
 12 355 l 1
EndSplineSet
EndChar

StartChar: x
Encoding: 120 120 41
Width: 397
VWidth: 0
Flags: W
HStem: -8 71<225.5 289.462> -8 40<16.1394 94.579> 341 58<133.946 209.5 337.692 388.679> 360 39<311.528 375.466>
VStem: 177 47<99.3563 125 134.59 265.78>
LayerCount: 3
Fore
SplineSet
390 371 m 0x68
 390 355 374 341 363 341 c 0x68
 351 341 352 360 337 360 c 0
 325 360 297 336 271 303 c 0
 241 265 224 229 224 182 c 0
 224 114 264 63 283 63 c 0
 310 63 340 125 350 147 c 1
 374 140 l 1
 355 98 349 76 292 16 c 0
 279 2 265 -8 254 -8 c 0x98
 197 -8 181 125 181 125 c 1
 181 125 120 -8 43 -8 c 0
 19 -8 3 2 3 22 c 0
 3 34 17 50 27 50 c 0
 41 50 38 32 55 32 c 0
 84 32 119 74 129 89 c 0
 158 131 177 172 177 227 c 0
 177 273 176 343 151 343 c 0
 114 343 89 269 89 269 c 1
 69 280 l 1
 75 296 81 316 114 357 c 0
 133 380 157 400 187 400 c 0
 232 400 232 292 232 292 c 1
 232 292 303 399 356 399 c 0
 383 399 390 382 390 371 c 0x68
EndSplineSet
EndChar

StartChar: z
Encoding: 122 122 42
Width: 447
VWidth: 0
Flags: MW
HStem: -12 65<226.069 362.388> 346 56<101.587 313.895>
VStem: 9 36<-55.3558 15.4062> 56 29<304.254 335.76> 377 34<71.822 145.972> 378 51<384.781 442.634>
DStem2: 124 131 104 71 0.709575 0.70463<-56.2065 273.641>
AnchorPoint: "top" 251 488 basechar 0
LayerCount: 3
Fore
SplineSet
377 110 m 0xf8
 377 130 367 140 361 146 c 1
 376 160 l 1
 376 160 411 146 411 99 c 0xf8
 411 55 377 -12 306 -12 c 0
 248 -12 189 29 127 29 c 0
 73 29 45 12 45 -8 c 0
 45 -11 49 -26 49 -37 c 0
 49 -47 46 -56 32 -56 c 0
 19 -56 9 -45 9 -26 c 0
 9 32 71 77 124 131 c 26
 316 326 l 1
 238 331 177 346 153 346 c 0
 95 346 85 325 85 321 c 0
 85 308 112 302 112 285 c 0
 112 274 106 264 88 264 c 0
 74 264 56 280 56 307 c 0
 56 360 113 402 181 402 c 0
 254 402 291 384 359 384 c 0
 373 384 378 387 378 399 c 0
 378 404 372 412 372 421 c 0
 372 433 381 445 398 445 c 0
 407 445 429 434 429 410 c 0xf4
 429 394 407 372 391 356 c 2
 104 71 l 1
 104 71 127 81 176 81 c 0
 232 81 278 53 321 53 c 0
 365 53 377 102 377 110 c 0xf8
EndSplineSet
EndChar

StartChar: P
Encoding: 80 80 43
Width: 582
VWidth: 0
Flags: HW
HStem: 0 39<46 112.784 194.378 312> 263 32<214.481 373.021> 627 40<50 112.2 195.65 336.09>
VStem: 113 81<40.7262 284 304.5 626.376> 452 94<360.511 529.3>
LayerCount: 3
Fore
SplineSet
46 0 m 1
 46 39 l 1
 109 41 113 33 113 68 c 2
 113 591 l 2
 113 625 107 627 75 627 c 0
 71 627 67 627 63 627 c 0
 59 627 54 627 49 627 c 1
 50 667 l 1
 256 667 l 2
 359 667 414 662 461 624 c 0
 509 585 546 525 546 445 c 0
 546 357 479 263 335 263 c 0
 263 263 196 284 194 284 c 1
 194 68 l 2
 194 32 201 42 312 39 c 1
 312 0 l 1
 46 0 l 1
194 314 m 1
 194 314 220 295 288 295 c 0
 393 295 452 347 452 447 c 0
 452 565 348 627 224 627 c 0
 201 627 194 623 194 581 c 2
 194 314 l 1
EndSplineSet
Position2: "'cpsp' Capital Spacing in Latin lookup 2 subtable" dx=4 dy=0 dh=9 dv=0
EndChar

StartChar: Q
Encoding: 81 81 44
Width: 762
VWidth: 0
Flags: W
HStem: -238 60<709.92 804.993> 640 41<269.52 453.316>
VStem: 34 90<229.528 457.632> 633 91<206.385 441.943>
LayerCount: 3
Fore
SplineSet
34 327 m 0
 34 563 208 681 381 681 c 0
 553 681 724 565 724 333 c 0
 724 190 648 74 544 22 c 0
 527 13 481 -1 481 -1 c 1
 579 -42 697 -178 771 -178 c 0
 801 -178 809 -167 819 -167 c 0
 825 -167 828 -172 828 -178 c 0
 828 -190 814 -238 722 -238 c 0
 610 -238 529 -142 458 -84 c 0
 399 -36 380 -24 354 -17 c 0
 314 -6 277 -14 198 28 c 0
 80 90 34 217 34 327 c 0
124 360 m 0
 124 198 220 27 400 27 c 0
 520 27 633 119 633 308 c 0
 633 520 495 640 360 640 c 0
 269 640 124 578 124 360 c 0
EndSplineSet
Position2: "'cpsp' Capital Spacing in Latin lookup 2 subtable" dx=5 dy=0 dh=11 dv=0
EndChar

StartChar: R
Encoding: 82 82 45
Width: 674
VWidth: 0
Flags: HW
HStem: 0 39<34 100.784 182.445 300 575.057 654> 307 29<182.656 297> 627 40<14 98.625 183.65 320.02>
VStem: 101 81<40.8908 313 339.164 623.872> 420 99<401.09 543.798>
DStem2: 376 321 297 308 0.570596 -0.821231<0 340.646>
AnchorPoint: "top" 273 732 basechar 0
LayerCount: 3
Fore
SplineSet
13 627 m 1
 14 667 l 1
 244 667 l 2
 347 667 400 657 447 619 c 0
 495 580 519 528 519 479 c 0
 519 417 483 349 376 321 c 1
 568 66 l 2
 588 41 598 39 611 39 c 2
 654 39 l 1
 656 0 l 1
 511 0 l 1
 297 308 l 1
 289 308 281 307 273 307 c 0
 210 307 196 310 182 313 c 1
 182 68 l 2
 182 32 191 42 302 39 c 1
 300 0 l 1
 34 0 l 1
 34 39 l 1
 97 41 101 33 101 68 c 2
 101 591 l 2
 101 625 79 627 41 627 c 0
 37 627 33 627 28 627 c 0
 23 627 18 627 13 627 c 1
182 346 m 1
 182 346 195 336 246 336 c 0
 368 336 420 377 420 464 c 0
 420 559 347 627 212 627 c 0
 189 627 182 623 182 581 c 2
 182 346 l 1
EndSplineSet
Position2: "'cpsp' Capital Spacing in Latin lookup 2 subtable" dx=5 dy=0 dh=10 dv=0
EndChar

StartChar: S
Encoding: 83 83 46
Width: 497
VWidth: 0
Flags: HW
HStem: -9 42<113.419 308.619> 628 47<170.011 343.054>
VStem: 54 34<-25 -12.282> 58 66<459.148 576.324> 367 81<95.4738 211.821> 376 30<655.865 681> 385 36<500 568.222>
AnchorPoint: "cedilla" 229 -93 basechar 0
AnchorPoint: "top" 252 732 basechar 0
LayerCount: 3
Fore
SplineSet
15 170 m 1xe8
 50 174 l 1
 63 112 l 2
 72 69 73 68 110 55 c 0
 152 40 181 33 234 33 c 0
 305 33 367 78 367 154 c 0xe8
 367 210 320 246 263 281 c 0
 173 335 58 372 58 497 c 0
 58 601 157 675 257 675 c 0
 306 675 350 655 357 655 c 0
 372 655 372 681 372 681 c 1
 406 683 l 1xd4
 421 500 l 1
 385 499 l 1xc2
 376 588 l 1
 376 588 322 628 240 628 c 0
 178 628 124 584 124 521 c 0xd4
 124 370 448 359 448 178 c 0
 448 82 367 -9 221 -9 c 0
 153 -9 125 9 105 9 c 0
 90 9 87 -3 87 -12 c 0
 87 -18 88 -25 88 -25 c 1
 54 -28 l 1
 42 39 28 105 15 170 c 1xe8
EndSplineSet
Position2: "'cpsp' Capital Spacing in Latin lookup 2 subtable" dx=3 dy=0 dh=7 dv=0
EndChar

StartChar: T
Encoding: 84 84 47
Width: 680
VWidth: 0
Flags: HW
HStem: 1 38<221 303.31 388.708 484> 623 44<100.954 302.919 386.812 603.002>
VStem: 54 36<506 609.748> 305 81<41.7301 621.79> 598 36<508 589.292> 604 42<510.138 620.496>
AnchorPoint: "cedilla" 347 -93 basechar 0
AnchorPoint: "top" 344 732 basechar 0
LayerCount: 3
Fore
SplineSet
54 506 m 1xf4
 58 544 63 592 69 667 c 1
 646 667 l 1xf4
 637 575 637 539 634 507 c 1
 598 508 l 1xf8
 602 554 604 575 604 590 c 0
 604 618 591 623 553 623 c 2
 438 623 l 2
 386 623 386 621 386 575 c 2
 386 85 l 2
 386 31 401 41 484 39 c 1
 485 0 l 1
 221 1 l 1
 221 39 l 1
 295 44 305 30 305 81 c 2
 305 567 l 2
 305 620 300 623 261 623 c 2
 156 623 l 2
 91 623 98 608 90 505 c 1
 54 506 l 1xf4
EndSplineSet
Position2: "'cpsp' Capital Spacing in Latin lookup 2 subtable" dx=5 dy=0 dh=10 dv=0
EndChar

StartChar: U
Encoding: 85 85 48
Width: 729
VWidth: 0
Flags: HW
HStem: -18 58<292.695 525.503> 627 40<45 111.937 196.669 285 524 610.606 661.013 712>
VStem: 113 81<133.083 623.906> 612 47<124.34 625.181>
AnchorPoint: "top" 396 732 basechar 0
LayerCount: 3
Fore
SplineSet
45 627 m 1
 45 667 l 1
 285 667 l 1
 286 627 l 1
 224 625 194 634 194 590 c 2
 194 220 l 2
 194 187 205 40 403 40 c 0
 608 40 612 150 612 267 c 2
 612 591 l 2
 612 625 600 627 557 627 c 0
 552 627 547 627 541 627 c 0
 535 627 529 627 522 627 c 1
 524 667 l 1
 712 667 l 1
 712 627 l 1
 672 625 659 633 659 583 c 2
 659 228 l 2
 659 99 609 -18 403 -18 c 0
 179 -18 113 93 113 215 c 2
 113 591 l 2
 113 625 105 627 72 627 c 0
 68 627 63 627 59 627 c 0
 55 627 50 627 45 627 c 1
EndSplineSet
Position2: "'cpsp' Capital Spacing in Latin lookup 2 subtable" dx=5 dy=0 dh=11 dv=0
EndChar

StartChar: V
Encoding: 86 86 49
Width: 758
VWidth: 0
Flags: HW
HStem: -15 21G<355.773 389.889> 627 40<21 105.127 194.006 271 528 608.984 659.636 727>
DStem2: 208 567 132 549 0.38042 -0.924814<-48.3997 498.022> 394 105 381 -15 0.406138 0.913812<0 545.838>
LayerCount: 3
Fore
SplineSet
21 627 m 1
 21 667 l 1
 272 667 l 1
 271 627 l 1
 218 627 l 2
 202 627 194 626 194 614 c 0
 194 605 197 594 208 567 c 2
 394 105 l 1
 604 588 l 2
 607 596 609 602 609 607 c 0
 609 626 587 627 560 627 c 2
 528 627 l 1
 526 667 l 1
 729 667 l 1
 727 627 l 1
 721 627 703 627 698 627 c 0
 659 626 660 613 605 489 c 2
 381 -15 l 1
 364 -15 l 1
 132 549 l 2
 95 637 102 625 21 627 c 1
EndSplineSet
Position2: "'cpsp' Capital Spacing in Latin lookup 2 subtable" dx=5 dy=0 dh=11 dv=0
EndChar

StartChar: W
Encoding: 87 87 50
Width: 1013
VWidth: 0
Flags: HW
HStem: -16 21G<301.677 332.784 682.267 713.7> 627 40<21 76.8706 161.15 242 395 474.076 554.004 633 825 899.85 946.803 996>
DStem2: 163 594 97 564 0.343826 -0.939033<-10.884 506.462> 336 118 325 -15 0.362716 0.9319<0 409.679> 718 121 706 -16 0.359306 0.93322<0 516.895>
AnchorPoint: "top" 511 732 basechar 0
LayerCount: 3
Fore
SplineSet
21 627 m 1
 21 667 l 1
 243 667 l 1
 242 627 l 1
 213 624 161 633 161 605 c 0
 161 602 162 598 163 594 c 2
 336 118 l 1
 501 540 l 1
 490 571 478 627 444 627 c 2
 395 627 l 1
 395 667 l 1
 633 667 l 1
 633 627 l 1
 580 627 l 2
 559 627 554 625 554 611 c 0
 554 595 558 588 718 121 c 1
 896 588 l 2
 898 595 900 601 900 605 c 0
 900 626 877 627 851 627 c 2
 825 627 l 1
 825 667 l 1
 996 667 l 1
 997 627 l 1
 991 627 984 627 979 627 c 0
 951 626 950 620 927 558 c 2
 706 -16 l 1
 689 -16 l 1
 520 486 l 1
 325 -15 l 1
 309 -15 l 1
 97 564 l 2
 71 635 61 625 21 627 c 1
EndSplineSet
Position2: "'cpsp' Capital Spacing in Latin lookup 2 subtable" dx=7 dy=0 dh=15 dv=0
EndChar

StartChar: X
Encoding: 88 88 51
Width: 799
VWidth: 0
Flags: HW
HStem: 0 39<24 103.992 161.013 237 472 545.977 657.877 729> 627 40<41 114.519 226.009 295 510 583.981 646.656 724>
DStem2: 149 108 184 85 0.661921 0.749573<-36.0653 280.984 367.729 570.579> 392 384 340 324 0.619553 -0.784955<-241.378 0 54.0834 279.409>
LayerCount: 3
Fore
SplineSet
24 0 m 1
 24 39 l 1
 98 39 89 41 149 108 c 2
 340 324 l 1
 143 573 l 2
 100 627 106 626 41 627 c 1
 41 667 l 1
 295 667 l 1
 295 627 l 1
 268 627 l 2
 238 627 226 627 226 617 c 0
 226 605 229 602 392 384 c 1
 577 592 584 599 584 614 c 0
 584 626 568 627 537 627 c 0
 529 627 519 627 509 627 c 1
 510 667 l 1
 724 667 l 1
 724 627 l 1
 660 627 664 627 622 581 c 2
 417 355 l 1
 680 22 652 40 729 39 c 1
 730 0 l 1
 472 0 l 1
 472 39 l 1
 515 40 546 37 546 52 c 0
 546 62 544 62 364 293 c 1
 184 85 l 2
 167 66 161 55 161 49 c 0
 161 37 178 40 237 39 c 1
 237 0 l 1
 24 0 l 1
EndSplineSet
Layer: 2
SplineSet
23.92578125 0 m 5
 23.92578125 39.0625 l 5
 98.14453125 39.0625 89.84375 41.50390625 149.4140625 108.3984375 c 6
 340.33203125 323.73046875 l 5
 142.578125 573.2421875 l 6
 99.609375 627.44140625 106.4453125 625.9765625 41.015625 627.44140625 c 5
 40.52734375 666.50390625 l 5
 294.921875 666.50390625 l 5
 294.921875 627.44140625 l 5
 240.72265625 627.44140625 227.05078125 625 227.05078125 612.3046875 c 4
 227.05078125 602.05078125 229.4921875 601.07421875 391.6015625 384.27734375 c 5
 578.125 594.7265625 581.54296875 596.19140625 581.54296875 609.86328125 c 4
 581.54296875 625 562.01171875 626.953125 509.27734375 627.44140625 c 5
 509.765625 666.50390625 l 5
 724.12109375 666.50390625 l 5
 724.12109375 627.44140625 l 5
 659.66796875 627.44140625 663.0859375 626.953125 621.58203125 581.0546875 c 6
 416.9921875 355.46875 l 5
 679.6875 22.94921875 652.34375 40.0390625 729.4921875 39.0625 c 5
 730.46875 0 l 5
 472.16796875 0 l 5
 472.16796875 39.0625 l 5
 515.625 40.52734375 545.8984375 37.109375 545.8984375 51.7578125 c 4
 545.8984375 61.5234375 543.9453125 62.01171875 363.76953125 293.45703125 c 5
 183.59375 84.9609375 l 6
 166.9921875 65.91796875 160.64453125 55.6640625 160.64453125 49.31640625 c 4
 160.64453125 37.109375 178.7109375 40.0390625 237.3046875 39.0625 c 5
 237.3046875 0 l 5
 23.92578125 0 l 5
EndSplineSet
Position2: "'cpsp' Capital Spacing in Latin lookup 2 subtable" dx=6 dy=0 dh=12 dv=0
EndChar

StartChar: Y
Encoding: 89 89 52
Width: 629
VWidth: 0
Flags: HW
HStem: 0 39<172 265.761 350.465 452> 627 40<22 77.3374 174.022 246 435 515.976 560.695 616>
VStem: 268 81<41.4774 303>
DStem2: 335 354 349 303 0.568755 0.822507<0 316.679>
AnchorPoint: "top" 328 732 basechar 0
LayerCount: 3
Fore
SplineSet
21 627 m 1
 22 667 l 1
 246 667 l 1
 246 627 l 1
 204 625 174 630 174 614 c 0
 174 605 179 600 335 354 c 1
 510 602 l 2
 513 607 516 611 516 614 c 0
 516 628 483 626 435 627 c 1
 434 667 l 1
 616 667 l 1
 616 627 l 1
 579 626 574 628 544 585 c 2
 349 303 l 1
 349 85 l 2
 349 33 350 41 453 39 c 1
 452 0 l 1
 171 0 l 1
 172 39 l 1
 179 39 185 39 191 39 c 0
 199 39 206 39 212 39 c 0
 261 39 268 41 268 83 c 2
 268 311 l 1
 104 566 l 2
 65 627 70 627 21 627 c 1
EndSplineSet
Position2: "'cpsp' Capital Spacing in Latin lookup 2 subtable" dx=4 dy=0 dh=9 dv=0
EndChar

StartChar: Z
Encoding: 90 90 53
Width: 663
VWidth: 0
Flags: HW
HStem: 0 83<135 575.802> 588 79<83.1341 519>
VStem: 34 40<490 584.381> 595 38<90.4553 175>
DStem2: 70 80 135 83 0.658505 0.752577<45.0605 677.978>
AnchorPoint: "top" 323 732 basechar 0
LayerCount: 3
Fore
SplineSet
23 20 m 0
 23 32 49 55 70 80 c 2
 519 588 l 1
 111 588 l 2
 84 588 84 583 78 523 c 0
 77 512 74 500 74 488 c 1
 34 490 l 1
 41 550 47 608 49 667 c 1
 594 667 l 2
 614 667 625 666 625 657 c 0
 625 642 593 607 590 603 c 2
 135 83 l 1
 531 83 l 2
 554 83 572 83 576 89 c 0
 585 100 595 176 595 176 c 1
 633 175 l 1
 629 133 624 118 613 0 c 1
 45 0 l 2
 34 0 23 3 23 20 c 0
EndSplineSet
Position2: "'cpsp' Capital Spacing in Latin lookup 2 subtable" dx=5 dy=0 dh=10 dv=0
EndChar

StartChar: period
Encoding: 46 46 54
Width: 254
VWidth: 0
Flags: W
HStem: -10 96<80.9705 144.508>
VStem: 65 95<4.92969 70.5159>
LayerCount: 3
Fore
SplineSet
65 41 m 0
 65 56 102 86 113 86 c 0
 133 86 160 48 160 36 c 0
 160 19 125 -10 110 -10 c 0
 98 -10 65 23 65 41 c 0
EndSplineSet
EndChar

StartChar: hyphen
Encoding: 45 45 55
Width: 294
VWidth: 0
Flags: W
HStem: 241 133
VStem: 24 247
DStem2: 24 301 24 241 0.958994 0.283427<0 240.273>
LayerCount: 3
Fore
SplineSet
24 241 m 25
 24 301 l 25
 271 374 l 25
 271 313 l 25
 24 241 l 25
EndSplineSet
EndChar

StartChar: comma
Encoding: 44 44 56
Width: 242
VWidth: 0
Flags: W
HStem: -146 223
VStem: 105 59<-81.7627 9.04013>
LayerCount: 3
Fore
SplineSet
35 -132 m 0
 35 -113 105 -105 105 -32 c 0
 105 16 62 12 62 30 c 0
 62 46 100 77 108 77 c 0
 111 77 164 71 164 -2 c 0
 164 -43 143 -92 119 -115 c 0
 93 -140 59 -146 48 -146 c 0
 35 -146 35 -135 35 -132 c 0
EndSplineSet
Layer: 2
SplineSet
34.66796875 -132.32421875 m 4
 34.66796875 -113.76953125 105.46875 -104.98046875 105.46875 -31.73828125 c 4
 105.46875 16.6015625 62.5 11.71875 62.5 29.78515625 c 4
 62.5 45.41015625 100.5859375 77.1484375 108.3984375 77.1484375 c 5
 112.79296875 76.66015625 164.0625 70.80078125 164.0625 -2.44140625 c 4
 164.0625 -43.45703125 142.578125 -92.28515625 118.65234375 -115.234375 c 4
 92.28515625 -140.13671875 58.59375 -145.99609375 47.8515625 -145.99609375 c 4
 35.15625 -145.99609375 34.66796875 -135.25390625 34.66796875 -132.32421875 c 4
EndSplineSet
EndChar

StartChar: exclam
Encoding: 33 33 57
Width: 254
VWidth: 0
Flags: W
HStem: -9 94<81.0633 139.858>
VStem: 69 85<5.33283 72.4416> 104 34<159.148 321.84>
LayerCount: 3
Fore
SplineSet
69 38 m 0xc0
 69 57 100 85 113 85 c 0
 130 85 154 53 154 38 c 0
 154 26 125 -9 107 -9 c 0
 92 -9 69 26 69 38 c 0xc0
119 159 m 0
 110 159 104 167 104 187 c 0
 104 207 118 443 118 591 c 0
 118 613 136 618 172 632 c 0
 177 634 183 636 187 636 c 0
 193 636 196 633 196 625 c 0
 196 600 183 534 138 213 c 0xa0
 133 178 135 159 119 159 c 0
EndSplineSet
Position2: "'cpsp' Capital Spacing in Latin lookup 2 subtable" dx=2 dy=0 dh=4 dv=0
EndChar

StartChar: question
Encoding: 63 63 58
Width: 368
VWidth: 0
Flags: W
HStem: -9 94<133.063 190.631> 604 63<140.603 245.719>
VStem: 104 52<177.817 275.646> 121 84<4.44037 72.4416> 277 64<482.964 564.806>
LayerCount: 3
Fore
SplineSet
341 486 m 0xe8
 341 422 156 307 156 220 c 0
 156 180 178 167 178 157 c 0
 178 150 172 146 165 146 c 0
 149 146 104 181 104 257 c 0
 104 356 277 447 277 548 c 0
 277 584 247 604 217 604 c 0
 201 604 160 594 132 594 c 0
 123 594 119 597 119 606 c 0
 119 622 145 667 189 667 c 0
 238 667 341 586 341 486 c 0xe8
121 38 m 0xd8
 121 57 152 85 165 85 c 0
 182 85 205 53 205 38 c 0
 205 26 177 -9 159 -9 c 0
 144 -9 121 26 121 38 c 0xd8
EndSplineSet
Position2: "'cpsp' Capital Spacing in Latin lookup 2 subtable" dx=3 dy=0 dh=6 dv=0
EndChar

StartChar: semicolon
Encoding: 59 59 59
Width: 254
VWidth: 0
Flags: W
HStem: 302 94<113.063 170.631>
VStem: 101 84<315.44 383.442> 103 43<-78.5778 34>
LayerCount: 3
Fore
SplineSet
101 349 m 0xc0
 101 368 132 396 145 396 c 0
 162 396 185 364 185 349 c 0
 185 337 157 302 139 302 c 0
 124 302 101 337 101 349 c 0xc0
103 -27 m 0xa0
 103 16 60 3 60 27 c 0
 60 59 98 86 111 86 c 0
 132 86 146 55 146 13 c 0
 146 -75 83 -154 59 -154 c 0
 45 -154 43 -143 43 -138 c 0
 43 -122 103 -88 103 -27 c 0xa0
EndSplineSet
EndChar

StartChar: colon
Encoding: 58 58 60
Width: 254
VWidth: 0
Flags: W
HStem: -9 94<86.0633 144.858> 302 94<113.063 170.631>
VStem: 74 85<5.33283 72.4416> 101 84<315.44 383.442>
LayerCount: 3
Fore
SplineSet
101 349 m 0xd0
 101 368 132 396 145 396 c 0
 162 396 185 364 185 349 c 0
 185 337 157 302 139 302 c 0
 124 302 101 337 101 349 c 0xd0
74 38 m 0xe0
 74 57 105 85 118 85 c 0
 135 85 159 53 159 38 c 0
 159 26 130 -9 112 -9 c 0
 97 -9 74 26 74 38 c 0xe0
EndSplineSet
EndChar

StartChar: emdash
Encoding: 8212 8212 61
Width: 1000
VWidth: 488
Flags: W
HStem: 264 43<0 1000>
LayerCount: 3
Fore
SplineSet
0 264 m 1
 0 307 l 1
 1000 307 l 1
 1000 264 l 1
 0 264 l 1
EndSplineSet
EndChar

StartChar: endash
Encoding: 8211 8211 62
Width: 500
VWidth: 488
Flags: W
HStem: 264 43<0 500>
LayerCount: 3
Fore
SplineSet
0 264 m 1
 0 307 l 1
 500 307 l 1
 500 264 l 1
 0 264 l 1
EndSplineSet
EndChar

StartChar: afii00208
Encoding: 8213 8213 63
Width: 1000
VWidth: 488
Flags: W
HStem: 264 43<0 1000>
LayerCount: 3
Fore
SplineSet
0 264 m 1
 0 307 l 1
 1000 307 l 1
 1000 264 l 1
 0 264 l 1
EndSplineSet
EndChar

StartChar: quoteleft
Encoding: 8216 8216 64
Width: 243
VWidth: 0
Flags: HW
HStem: 468 212<136 179>
VStem: 69 60<542.261 615.925>
AnchorPoint: "l;s;quote" 136 589 basechar 0
AnchorPoint: "r;s;quote" 307 589 basechar 0
AnchorPoint: "l;x" 0 376 basechar 0
AnchorPoint: "l;hi" 0 684 basechar 0
AnchorPoint: "l;o" 0 195 basechar 0
AnchorPoint: "r;x" 243 376 basechar 0
AnchorPoint: "r;hi" 243 684 basechar 0
AnchorPoint: "r;o" 243 195 basechar 0
LayerCount: 3
Fore
SplineSet
69 545 m 0
 69 628 150 680 179 680 c 0
 186 680 190 676 190 670 c 0
 190 646 129 643 129 581 c 0
 129 531 180 540 180 524 c 0
 180 522 178 519 176 515 c 2
 151 479 l 2
 149 476 142 468 136 468 c 0
 131 468 122 472 107 481 c 0
 86 494 69 501 69 545 c 0
EndSplineSet
EndChar

StartChar: quotesinglbase
Encoding: 8218 8218 65
Width: 243
VWidth: 0
Flags: HW
HStem: -127 211<81 124>
VStem: 131 59<-64.2699 11.0149>
AnchorPoint: "l;s;quote" 124 589 basechar 0
AnchorPoint: "r;s;quote" 294 589 basechar 0
AnchorPoint: "l;bl" 0 15 basechar 0
AnchorPoint: "l;o" 0 195 basechar 0
AnchorPoint: "l;lo" 0 -244 basechar 0
AnchorPoint: "r;bl" 243 15 basechar 0
AnchorPoint: "r;o" 243 195 basechar 0
AnchorPoint: "r;lo" 243 -244 basechar 0
LayerCount: 3
Fore
SplineSet
69 -118 m 0
 69 -94 131 -90 131 -28 c 0
 131 22 80 12 80 28 c 0
 80 30 82 34 84 38 c 2
 108 73 l 2
 110 76 118 84 124 84 c 0
 129 84 137 80 152 71 c 0
 173 58 190 51 190 7 c 0
 190 -76 110 -127 81 -127 c 0
 74 -127 69 -124 69 -118 c 0
EndSplineSet
EndChar

StartChar: quotedblleft
Encoding: 8220 8220 66
Width: 414
VWidth: 0
Flags: HW
HStem: 468 212<136 179 307 350>
VStem: 69 60<542.261 615.925> 240 60<542.261 615.925>
AnchorPoint: "r;hi" 414 684 basechar 0
AnchorPoint: "r;s;quote" 478 589 basechar 0
AnchorPoint: "l;x" 0 376 basechar 0
AnchorPoint: "r;o" 414 195 basechar 0
AnchorPoint: "l;s;quote" 136 589 basechar 0
AnchorPoint: "l;o" 0 195 basechar 0
AnchorPoint: "l;hi" 0 684 basechar 0
AnchorPoint: "r;x" 414 376 basechar 0
LayerCount: 3
Fore
Refer: 64 8216 N 1 0 0 1 171 0 2
Refer: 64 8216 N 1 0 0 1 0 0 2
Layer: 2
SplineSet
69.3359375 545.41015625 m 4
 69.3359375 628.90625 149.4140625 679.6875 178.7109375 679.6875 c 4
 186.03515625 679.6875 190.4296875 676.26953125 190.4296875 670.41015625 c 4
 190.4296875 645.99609375 128.90625 642.578125 128.90625 580.56640625 c 4
 128.90625 530.76171875 179.6875 540.0390625 179.6875 523.92578125 c 4
 179.6875 521.484375 178.22265625 518.5546875 175.78125 514.6484375 c 6
 151.3671875 479.4921875 l 6
 149.4140625 476.5625 142.08984375 467.7734375 136.23046875 467.7734375 c 4
 130.859375 467.7734375 122.0703125 472.16796875 107.421875 481.4453125 c 4
 86.42578125 494.62890625 69.3359375 501.46484375 69.3359375 545.41015625 c 4
240.234375 545.41015625 m 4
 240.234375 628.90625 320.3125 679.6875 349.609375 679.6875 c 4
 356.93359375 679.6875 361.328125 676.26953125 361.328125 670.41015625 c 4
 361.328125 645.99609375 299.8046875 642.578125 299.8046875 580.56640625 c 4
 299.8046875 530.76171875 350.5859375 540.0390625 350.5859375 523.92578125 c 4
 350.5859375 521.484375 349.12109375 518.5546875 346.6796875 514.6484375 c 6
 322.265625 479.4921875 l 6
 320.3125 476.5625 312.98828125 467.7734375 307.12890625 467.7734375 c 4
 301.7578125 467.7734375 292.96875 472.16796875 278.3203125 481.4453125 c 4
 257.32421875 494.62890625 240.234375 501.46484375 240.234375 545.41015625 c 4
EndSplineSet
EndChar

StartChar: oe
Encoding: 339 339 69
Width: 724
VWidth: 0
Flags: W
HStem: -15 39<176.934 291.158> -13 68<488.152 629.718> 226 35<425 479.727> 367 34<156.539 269.135 473.168 550.335>
VStem: 20 79<115.943 297.115> 343 79<124.243 226 261 292.499>
LayerCount: 3
Fore
SplineSet
20 195 m 0xbc
 20 299 80 401 217 401 c 0
 304 401 363 359 381 299 c 1
 410 363 466 399 524 399 c 0
 633 399 689 306 689 271 c 0
 689 260 678 256 674 256 c 2
 422 226 l 1
 422 223 422 217 422 212 c 0
 422 111 485 55 569 55 c 0
 648 55 686 102 703 102 c 0
 708 102 711 99 711 90 c 0
 711 71 647 -13 539 -13 c 0x7c
 466 -13 411 14 384 91 c 1
 357 22 293 -15 219 -15 c 0
 84 -15 20 94 20 195 c 0xbc
99 219 m 0
 99 127 150 24 232 24 c 0xbc
 314 24 343 104 343 187 c 0
 343 308 280 367 208 367 c 0
 150 367 99 317 99 219 c 0
425 261 m 1
 597 283 l 1
 597 283 569 365 514 365 c 0
 474 365 436 327 425 261 c 1
EndSplineSet
Layer: 2
SplineSet
19.53125 195.3125 m 0
 19.53125 298.828125 80.078125 401.3671875 216.796875 401.3671875 c 0
 304.19921875 401.3671875 358.3984375 364.74609375 381.34765625 315.4296875 c 1
 409.66796875 364.74609375 466.30859375 399.4140625 523.92578125 399.4140625 c 0
 633.30078125 399.4140625 689.453125 305.6640625 689.453125 270.99609375 c 0
 689.453125 259.765625 677.734375 256.34765625 673.828125 255.859375 c 2
 422.36328125 225.5859375 l 1
 421.875 222.16796875 421.875 217.28515625 421.875 212.40234375 c 0
 421.875 111.81640625 485.3515625 54.6875 569.3359375 54.6875 c 0
 647.94921875 54.6875 686.5234375 102.05078125 703.125 102.05078125 c 0
 708.0078125 102.05078125 711.42578125 98.6328125 711.42578125 89.84375 c 0
 711.42578125 71.2890625 637.6953125 -12.6953125 529.296875 -12.6953125 c 0
 456.54296875 -12.6953125 408.69140625 21.97265625 384.765625 65.91796875 c 1
 354.4921875 19.04296875 293.45703125 -14.6484375 219.23828125 -14.6484375 c 0
 83.984375 -14.6484375 19.53125 94.23828125 19.53125 195.3125 c 0
99.12109375 219.23828125 m 0
 99.12109375 126.953125 149.90234375 24.4140625 231.93359375 24.4140625 c 0
 313.96484375 24.4140625 343.26171875 104.00390625 343.26171875 186.5234375 c 0
 343.26171875 307.12890625 279.78515625 366.69921875 208.0078125 366.69921875 c 0
 149.90234375 366.69921875 99.12109375 316.89453125 99.12109375 219.23828125 c 0
424.8046875 261.23046875 m 1
 596.6796875 283.203125 l 1
 596.6796875 283.203125 569.3359375 364.74609375 514.16015625 364.74609375 c 0
 474.609375 364.74609375 435.546875 327.63671875 424.8046875 261.23046875 c 1
EndSplineSet
EndChar

StartChar: ae
Encoding: 230 230 70
Width: 622
VWidth: 0
Flags: W
HStem: -16 57<104.091 207.319> -13 68<383.469 516.77> 191 27<186.743 252> 228 36<321 379> 349 48<115.842 234.672> 365 34<364.097 447.995>
VStem: 24 73<49.549 123.753> 50 54<250.294 317.158> 253 64<124.243 191 218 228 264 316.671>
LayerCount: 3
Fore
SplineSet
24 60 m 0xb280
 24 150 139 218 252 218 c 1
 252 229 253 241 253 252 c 0
 253 304 247 349 176 349 c 0
 106 349 95 318 95 318 c 1
 99 300 104 285 104 274 c 0
 104 258 81 248 73 248 c 0
 53 248 50 272 50 284 c 0
 50 318 97 397 200 397 c 0xb980
 283 397 292 332 299 307 c 1
 315 356 365 399 420 399 c 0
 519 399 581 312 581 271 c 0
 581 260 569 256 565 256 c 2
 317 228 l 1
 317 225 317 217 317 212 c 0
 317 111 379 55 463 55 c 0
 542 55 577 97 594 97 c 0
 599 97 603 94 603 85 c 0
 603 66 531 -13 423 -13 c 0x7580
 356 -13 304 30 278 79 c 1
 278 79 236 -16 125 -16 c 0
 83 -16 24 6 24 60 c 0xb280
97 88 m 0xb280
 97 55 123 41 149 41 c 0
 232 41 269 101 269 101 c 1
 262 129 255 158 253 191 c 1
 170 191 97 132 97 88 c 0xb280
321 264 m 1
 488 283 l 1
 488 283 467 365 408 365 c 0x3480
 368 365 332 330 321 264 c 1
EndSplineSet
Layer: 2
SplineSet
419.921875 399.4140625 m 4
 519.04296875 399.4140625 580.56640625 312.01171875 580.56640625 270.99609375 c 4
 580.56640625 259.765625 568.84765625 256.34765625 564.94140625 255.859375 c 6
 317.3828125 228.02734375 l 5
 316.89453125 224.609375 316.89453125 217.28515625 316.89453125 212.40234375 c 4
 316.89453125 111.81640625 378.90625 54.6875 462.890625 54.6875 c 4
 541.50390625 54.6875 577.63671875 97.16796875 594.23828125 97.16796875 c 4
 599.12109375 97.16796875 602.5390625 93.75 602.5390625 84.9609375 c 4
 602.5390625 66.40625 531.25 -12.6953125 422.8515625 -12.6953125 c 4
 340.33203125 -12.6953125 299.31640625 29.296875 273.4375 78.61328125 c 5
 273.4375 78.61328125 235.3515625 -15.625 124.51171875 -15.625 c 4
 82.51953125 -15.625 24.4140625 6.34765625 24.4140625 60.05859375 c 4
 24.4140625 150.390625 134.27734375 217.7734375 247.55859375 217.7734375 c 5
 247.55859375 278.3203125 l 6
 247.55859375 316.89453125 236.328125 348.6328125 175.78125 348.6328125 c 4
 105.46875 348.6328125 95.21484375 318.359375 95.21484375 318.359375 c 5
 99.12109375 300.29296875 104.4921875 285.15625 104.4921875 274.4140625 c 4
 104.4921875 258.7890625 81.0546875 248.046875 72.75390625 248.046875 c 4
 52.734375 248.046875 50.29296875 272.4609375 50.29296875 284.1796875 c 4
 50.29296875 317.87109375 97.16796875 396.97265625 199.70703125 396.97265625 c 4
 279.78515625 396.97265625 297.36328125 346.19140625 303.22265625 326.66015625 c 5
 323.2421875 363.28125 365.234375 399.4140625 419.921875 399.4140625 c 4
96.6796875 88.37890625 m 4
 96.6796875 55.17578125 123.53515625 41.015625 149.4140625 41.015625 c 4
 232.421875 41.015625 263.671875 101.07421875 263.671875 101.07421875 c 5
 256.34765625 128.90625 250.48828125 157.71484375 248.53515625 190.91796875 c 5
 165.52734375 190.4296875 96.6796875 132.32421875 96.6796875 88.37890625 c 4
320.80078125 263.671875 m 5
 487.79296875 283.203125 l 5
 487.79296875 283.203125 466.796875 364.74609375 407.71484375 364.74609375 c 4
 368.1640625 364.74609375 331.54296875 330.078125 320.80078125 263.671875 c 5
EndSplineSet
EndChar

StartChar: f_i
Encoding: 65537 -1 71
Width: 449
VWidth: 0
Flags: HMW
HStem: -258 35<-31 40> -5 10G<297 310> 360 32<28 98 159 312> 664 39<224 318>
DStem2: 76 76 140 79 0.0772214 0.997014<-219.647 233.735 324.279 534.146> 286 17 354 102 0.0820396 0.996629<0 90.7695 321.396 369.547>
LayerCount: 3
Back
SplineSet
313.4765625 702.63671875 m 0
 377.9296875 702.63671875 387.6953125 670.8984375 387.6953125 649.90234375 c 0
 387.6953125 630.37109375 376.953125 612.79296875 361.328125 612.79296875 c 0
 325.1953125 612.79296875 327.1484375 663.57421875 275.87890625 663.57421875 c 0
 245.1171875 663.57421875 199.21875 652.34375 182.12890625 587.40234375 c 0
 168.45703125 535.64453125 166.015625 463.37890625 158.69140625 391.6015625 c 1
 269.04296875 391.6015625 l 2
 332.51953125 391.6015625 352.05078125 398.4375 364.74609375 398.4375 c 0
 374.0234375 398.4375 377.44140625 396.484375 377.44140625 379.8828125 c 0
 377.44140625 348.14453125 354.4921875 130.37109375 354.4921875 102.05078125 c 0
 354.4921875 84.47265625 357.91015625 78.61328125 362.79296875 78.61328125 c 0
 377.9296875 78.61328125 429.6875 161.1328125 429.6875 161.1328125 c 1
 446.2890625 147.94921875 l 1
 446.2890625 147.94921875 428.22265625 104.00390625 385.25390625 59.08203125 c 0
 365.72265625 38.57421875 317.3828125 -5.37109375 302.734375 -5.37109375 c 0
 291.9921875 -5.37109375 286.1328125 0.9765625 286.1328125 16.6015625 c 0
 286.1328125 40.0390625 312.5 247.55859375 312.5 336.9140625 c 0
 312.5 345.703125 309.5703125 359.86328125 300.78125 359.86328125 c 2
 156.73828125 359.86328125 l 1
 149.046875 249.81640625 144.53125 156.73828125 139.6484375 79.1015625 c 0
 124.0234375 -164.0625 106.192382812 -257.8125 -13.671875 -257.8125 c 0
 -48.828125 -257.8125 -82.51953125 -240.72265625 -82.51953125 -205.078125 c 0
 -82.51953125 -184.08203125 -71.77734375 -161.1328125 -51.7578125 -161.1328125 c 0
 -32.71484375 -161.1328125 -26.85546875 -179.6875 -17.578125 -195.80078125 c 0
 -8.7890625 -210.44921875 3.41796875 -223.14453125 19.53125 -223.14453125 c 0
 57.12890625 -223.14453125 61.03515625 -136.23046875 75.68359375 76.171875 c 0
 81.0546875 153.3203125 87.40234375 247.55859375 97.65625 359.86328125 c 1
 28.3203125 359.86328125 l 1
 28.3203125 391.6015625 l 1
 99.609375 391.6015625 l 1
 113.28125 521.97265625 111.328125 542.48046875 125.9765625 581.0546875 c 0
 149.4140625 643.5546875 215.33203125 702.63671875 313.4765625 702.63671875 c 0
EndSplineSet
Fore
SplineSet
157 360 m 1
 149 252 145 160 140 82 c 0
 125 -158 108 -258 -14 -258 c 0
 -49 -258 -83 -241 -83 -205 c 0
 -83 -184 -72 -161 -52 -161 c 0
 -33 -161 -27 -180 -18 -196 c 0
 -9 -211 4 -223 20 -223 c 0
 58 -223 61 -136 76 76 c 0
 81 153 88 248 98 360 c 1
 28 360 l 1
 28 392 l 1
 100 392 l 1
 114 522 111 542 126 581 c 0
 149 643 215 703 313 703 c 0
 375 703 388 671 388 650 c 0
 388 630 377 613 361 613 c 0
 326 613 325 664 276 664 c 0
 245 664 199 652 182 587 c 0
 168 535 166 464 159 392 c 1
 269 392 l 2
 332 392 352 398 365 398 c 0
 374 398 377 397 377 380 c 0
 377 348 354 130 354 102 c 0
 354 84 358 79 363 79 c 0
 378 79 430 161 430 161 c 1
 446 148 l 1
 446 148 428 104 385 59 c 0
 365 38 318 -5 303 -5 c 0
 292 -5 286 1 286 17 c 0
 286 40 312 248 312 337 c 0
 312 346 310 360 301 360 c 2
 157 360 l 1
EndSplineSet
Ligature2: "'liga' Standard Ligatures in Latin lookup 9 subtable" f i
LCarets2: 1 0 
EndChar

StartChar: f_l
Encoding: 65538 -1 72
Width: 463
VWidth: 0
Flags: HMW
HStem: -258 35<-31.5 40.8282> -10 21G<303.5 313> 360 32<28 98 159 232> 661 41<216.408 304.164>
DStem2: 76 76 139 76 0.0772334 0.997013<-220.656 4.8657 321.466 535.376> 297 67 359 98 0.0769523 0.997035<17.3349 223.227>
LayerCount: 3
Fore
SplineSet
329 619 m 1
 300 638 297 661 261 661 c 0
 220 661 188 616 177 554 c 0
 169 507 165 449 159 392 c 1
 234 392 l 1
 232 360 l 1
 157 360 l 1
 149 249 144 154 139 76 c 0
 124 -165 105 -258 -14 -258 c 0
 -49 -258 -83 -241 -83 -205 c 0
 -83 -184 -72 -161 -52 -161 c 0
 -33 -161 -27 -180 -18 -196 c 0
 -9 -211 4 -223 20 -223 c 0
 58 -223 61 -136 76 76 c 0
 81 153 88 248 98 360 c 1
 28 360 l 1
 28 392 l 1
 99 392 l 1
 109 490 107 586 167 646 c 0
 199 678 246 702 295 702 c 0
 335 702 360 686 360 686 c 1
 360 686 388 708 397 708 c 0
 405 708 406 702 405 694 c 0
 383 479 359 113 359 98 c 0
 359 91 360 79 367 79 c 0
 386 79 435 166 435 166 c 1
 457 150 l 1
 457 150 405 48 337 0 c 0
 326 -8 316 -10 310 -10 c 0
 297 -10 293 3 293 20 c 0
 293 33 296 48 297 67 c 0
 313 362 329 619 329 619 c 1
EndSplineSet
Ligature2: "'liga' Standard Ligatures in Latin lookup 9 subtable" f l
LCarets2: 1 0 
EndChar

StartChar: f_f
Encoding: 65539 -1 73
Width: 470
VWidth: 0
Flags: MW
HStem: -258 35<-31 40> -229 37<204 265> 360 32<28 98 159 319 380 454> 631 39<218 310> 661 42<441 549>
DStem2: 76 76 142 111 0.0772214 0.997014<-186.7 40.1416 392.732 500.132> 299 111 363 111 0.08029 0.996772<-221.267 5.09654 285.877 474.465>
LayerCount: 3
Fore
SplineSet
157 360 m 1x68
 150 265 146 182 142 111 c 0
 126 -154 111 -258 -14 -258 c 0
 -49 -258 -83 -241 -83 -205 c 0
 -83 -184 -72 -161 -52 -161 c 0
 -33 -161 -27 -180 -18 -196 c 0
 -9 -211 4 -223 20 -223 c 0
 58 -223 61 -136 76 76 c 0
 81 153 88 248 98 360 c 1
 28 360 l 1
 28 392 l 1
 99 392 l 1
 102 418 103 443 105 468 c 0
 122 643 246 670 299 670 c 4xb0
 356 670 374 629 374 629 c 1
 374 629 382 640 388 646 c 0
 420 678 477 702 526 702 c 0
 570 702 587 674 587 650 c 0
 587 630 577 613 561 613 c 0
 550 613 541 620 533 629 c 0
 512 651 495 661 478 661 c 0
 435 661 404 597 394 519 c 0
 389 479 384 435 380 392 c 1
 456 392 l 1
 454 360 l 1
 378 360 l 1
 371 260 367 178 363 111 c 0
 353 -63 345 -138 302 -188 c 0
 280 -213 241 -229 208 -229 c 0
 174 -229 146 -214 146 -179 c 0
 146 -160 157 -143 173 -143 c 0
 204 -143 195 -192 236 -192 c 0
 257 -192 274 -175 283 -123 c 0
 289 -91 290 -25 299 111 c 0
 303 176 310 258 319 360 c 1
 157 360 l 1x68
348 586 m 2
 335 586 302 631 259 631 c 0
 184 631 171 524 166 468 c 2
 159 392 l 1
 320 392 l 1
 327 462 329 530 350 586 c 1
 348 586 l 2
174 -144 m 0
EndSplineSet
Layer: 2
SplineSet
347.65625 585.9375 m 6
 334.47265625 585.9375 302.24609375 630.859375 259.27734375 630.859375 c 4
 183.984375 630.859375 171.368164062 523.439453125 166.015625 467.7734375 c 6
 158.69140625 391.6015625 l 5
 320.3125 391.6015625 l 5
 327.63671875 461.42578125 328.61328125 530.2734375 350.09765625 585.9375 c 5
 347.65625 585.9375 l 6
378.41796875 359.86328125 m 5
 346.6796875 -94.23828125 366.2109375 -257.8125 208.0078125 -257.8125 c 4
 172.8515625 -257.8125 139.16015625 -240.72265625 139.16015625 -205.078125 c 4
 139.16015625 -184.08203125 149.90234375 -161.1328125 169.921875 -161.1328125 c 4
 188.96484375 -161.1328125 194.82421875 -179.6875 204.1015625 -195.80078125 c 4
 212.890625 -210.44921875 225.09765625 -223.14453125 241.2109375 -223.14453125 c 4
 278.80859375 -223.14453125 282.71484375 -136.23046875 297.36328125 76.171875 c 4
 302.734375 153.3203125 309.08203125 247.55859375 319.3359375 359.86328125 c 5
 156.73828125 359.86328125 l 5
 125 -94.23828125 144.53125 -257.8125 -13.671875 -257.8125 c 4
 -48.828125 -257.8125 -82.51953125 -240.72265625 -82.51953125 -205.078125 c 4
 -82.51953125 -184.08203125 -71.77734375 -161.1328125 -51.7578125 -161.1328125 c 4
 -32.71484375 -161.1328125 -26.85546875 -179.6875 -17.578125 -195.80078125 c 4
 -8.7890625 -210.44921875 3.41796875 -223.14453125 19.53125 -223.14453125 c 4
 57.12890625 -223.14453125 61.03515625 -136.23046875 75.68359375 76.171875 c 4
 81.0546875 153.3203125 87.40234375 247.55859375 97.65625 359.86328125 c 5
 28.3203125 359.86328125 l 5
 28.3203125 391.6015625 l 5
 98.6328125 391.6015625 l 5
 101.5625 417.48046875 103.02734375 442.87109375 105.46875 467.7734375 c 4
 122.0703125 642.578125 246.58203125 670.41015625 299.31640625 670.41015625 c 4
 355.95703125 670.41015625 373.53515625 628.90625 373.53515625 628.90625 c 5
 373.53515625 628.90625 382.32421875 640.13671875 388.18359375 645.99609375 c 4
 419.921875 677.734375 477.5390625 702.1484375 526.3671875 702.1484375 c 4
 570.80078125 702.1484375 587.40234375 674.31640625 587.40234375 649.90234375 c 4
 587.40234375 630.37109375 576.66015625 612.79296875 561.03515625 612.79296875 c 4
 550.29296875 612.79296875 541.50390625 620.1171875 533.203125 628.90625 c 4
 512.6953125 650.87890625 494.140625 660.64453125 477.5390625 660.64453125 c 4
 434.08203125 660.64453125 403.80859375 596.6796875 393.5546875 518.5546875 c 4
 388.18359375 479.00390625 384.765625 435.05859375 380.37109375 391.6015625 c 5
 456.0546875 391.6015625 l 5
 454.1015625 359.86328125 l 5
 378.41796875 359.86328125 l 5
EndSplineSet
Ligature2: "'liga' Standard Ligatures in Latin lookup 9 subtable" f f
LCarets2: 1 0 
EndChar

StartChar: f_f_i
Encoding: 65540 -1 74
Width: 673
VWidth: 0
Flags: MW
HStem: -258 35<-31 40> -229 37<204 265> -5 10G<520 533> 360 32<28 98 159 319 380 535> 631 39<218 310> 661 42<443 536>
DStem2: 76 76 142 111 0.0772214 0.997014<-184.492 40.1416 392.732 500.132> 299 111 363 111 0.08029 0.996772<-223.001 5.09654 285.877 474.465> 509 17 577 102 0.0820396 0.996629<0 90.7695 321.396 369.547>
LayerCount: 3
Fore
SplineSet
576 613 m 0xb8
 545 613 544 661 482 661 c 0
 431 661 404 597 394 519 c 0
 389 479 384 435 380 392 c 1
 492 392 l 2
 555 392 574 398 587 398 c 0
 596 398 600 397 600 380 c 0
 600 348 577 130 577 102 c 0
 577 84 580 79 585 79 c 0
 600 79 652 161 652 161 c 1
 669 148 l 1
 669 148 651 104 608 59 c 0
 588 38 540 -5 525 -5 c 0
 514 -5 509 1 509 17 c 0
 509 40 535 248 535 337 c 0
 535 346 532 360 523 360 c 2
 378 360 l 1
 371 259 367 177 363 111 c 0
 352 -68 344 -139 302 -188 c 0
 280 -213 241 -229 208 -229 c 0
 174 -229 146 -214 146 -179 c 0
 146 -160 157 -143 173 -143 c 0
 204 -143 195 -192 236 -192 c 0x74
 257 -192 274 -175 283 -123 c 0
 289 -91 289 -33 299 111 c 0
 303 175 310 256 319 360 c 1
 157 360 l 1
 150 265 146 182 142 111 c 0
 127 -149 113 -258 -14 -258 c 0
 -49 -258 -83 -241 -83 -205 c 0
 -83 -184 -72 -161 -52 -161 c 0
 -33 -161 -27 -180 -18 -196 c 0
 -9 -211 4 -223 20 -223 c 0
 58 -223 61 -136 76 76 c 0
 81 153 88 248 98 360 c 1
 28 360 l 1
 28 392 l 1
 99 392 l 1
 102 418 103 443 105 468 c 0
 122 643 246 670 299 670 c 0
 356 670 374 629 374 629 c 1
 374 629 382 640 388 646 c 0
 420 678 479 702 531 702 c 0
 575 702 602 674 602 650 c 0
 602 630 592 613 576 613 c 0xb8
348 586 m 2
 335 586 302 631 259 631 c 0x38
 184 631 171 524 166 468 c 2
 159 392 l 1
 320 392 l 1
 327 462 329 530 350 586 c 1
 348 586 l 2
174 -144 m 0
EndSplineSet
Ligature2: "'liga' Standard Ligatures in Latin lookup 9 subtable" f f i
LCarets2: 2 0 0 
EndChar

StartChar: f_f_l
Encoding: 65541 -1 75
Width: 692
VWidth: 0
Flags: MW
HStem: -258 35<-31 42> -229 37<204 265> -10 10G<525 535> 360 32<28 98 159 319 380 454> 631 39<218 310> 661 42<438 526>
DStem2: 76 76 140 88 0.0772214 0.997014<-207.169 16.6609 392.732 500.132> 298 88 361 88 0.0787493 0.996894<-223.992 4.99873 309.266 497.925> 519 67 581 98 0.0759471 0.997112<16.5229 223.056>
LayerCount: 3
Fore
SplineSet
157 360 m 1x74
 149 255 144 164 140 88 c 0
 125 -155 110 -258 -14 -258 c 0
 -49 -258 -83 -241 -83 -205 c 0
 -83 -184 -72 -161 -52 -161 c 0
 -33 -161 -27 -180 -18 -196 c 0
 -9 -211 4 -223 20 -223 c 0
 58 -223 61 -136 76 76 c 0
 81 153 88 248 98 360 c 1
 28 360 l 1
 28 392 l 1
 99 392 l 1
 102 418 103 443 105 468 c 0
 122 643 246 670 299 670 c 0xb8
 356 670 374 629 374 629 c 1
 374 629 382 640 388 646 c 0
 420 678 468 702 517 702 c 0
 557 702 582 686 582 686 c 1
 582 686 610 708 619 708 c 0
 627 708 627 702 626 694 c 0
 604 479 581 113 581 98 c 0
 581 91 582 79 589 79 c 0
 608 79 657 166 657 166 c 1
 678 150 l 1
 678 150 627 48 559 0 c 0
 548 -8 538 -10 532 -10 c 0
 519 -10 515 3 515 20 c 0
 515 33 518 48 519 67 c 0
 535 362 550 619 550 619 c 1
 521 638 518 661 482 661 c 0
 443 661 414 620 401 564 c 0
 392 524 382 410 380 392 c 1
 456 392 l 1
 454 360 l 1
 378 360 l 1
 370 247 365 159 361 88 c 0
 351 -74 343 -141 302 -188 c 0
 280 -213 241 -229 208 -229 c 0
 174 -229 146 -214 146 -179 c 0
 146 -160 157 -143 173 -143 c 0
 204 -143 195 -192 236 -192 c 0
 257 -192 274 -175 283 -123 c 0
 289 -92 290 -39 298 88 c 0
 302 155 308 243 319 360 c 1
 157 360 l 1x74
348 586 m 2
 335 586 302 631 259 631 c 0
 184 631 171 524 166 468 c 2
 159 392 l 1
 320 392 l 1
 327 462 329 530 350 586 c 1
 348 586 l 2
174 -144 m 0
EndSplineSet
Ligature2: "'liga' Standard Ligatures in Latin lookup 9 subtable" f f l
LCarets2: 2 0 0 
EndChar

StartChar: f_j
Encoding: 65542 -1 76
Width: 460
VWidth: 0
Flags: HMW
HStem: -258 35<-31 40> -226 37<206 265> 360 32<28 98 159 312> 664 39<224 318>
DStem2: 76 76 140 80 0.0772214 0.997014<-215.998 234.253 324.279 534.146> 289 -83 360 92 0.0568186 0.998385<-48.3921 179.088 421.091 472.583>
LayerCount: 3
Fore
SplineSet
276 664 m 0xb0
 245 664 199 652 182 587 c 0
 168 535 166 464 159 392 c 1
 267 392 l 2
 330 392 354 398 367 398 c 0
 376 398 378 395 378 385 c 0
 378 374 365 184 360 92 c 0
 354 -12 352 -67 338 -121 c 0
 313 -221 237 -226 226 -226 c 0
 193 -226 165 -217 165 -179 c 0
 165 -160 176 -143 192 -143 c 0
 222 -143 216 -189 248 -189 c 0x70
 269 -189 279 -165 289 -83 c 0
 305 46 312 287 312 337 c 0
 312 346 310 360 301 360 c 2
 157 360 l 1
 149 251 145 158 140 80 c 0
 126 -156 108 -258 -14 -258 c 0
 -49 -258 -83 -241 -83 -205 c 0
 -83 -184 -72 -161 -52 -161 c 0
 -33 -161 -27 -180 -18 -196 c 0
 -9 -211 4 -223 20 -223 c 0
 58 -223 61 -136 76 76 c 0
 81 153 88 248 98 360 c 1
 28 360 l 1
 28 392 l 1
 100 392 l 1
 114 522 111 542 126 581 c 0
 149 643 215 703 313 703 c 0
 375 703 388 671 388 650 c 0
 388 630 377 613 361 613 c 0
 326 613 325 664 276 664 c 0xb0
EndSplineSet
Layer: 2
SplineSet
381.34765625 384.765625 m 4
 381.34765625 374.0234375 362.79296875 183.59375 357.91015625 91.796875 c 4
 352.05078125 -12.6953125 344.7265625 -99.609375 331.0546875 -153.3203125 c 4
 305.6640625 -253.41796875 215.33203125 -257.8125 204.1015625 -257.8125 c 4
 161.1328125 -257.8125 116.2109375 -233.88671875 116.2109375 -198.73046875 c 4
 116.2109375 -176.7578125 129.39453125 -153.3203125 151.3671875 -153.3203125 c 4
 186.5234375 -153.3203125 172.8515625 -222.65625 220.703125 -222.65625 c 4
 252.9296875 -222.65625 270.01953125 -171.38671875 276.85546875 -115.234375 c 4
 293.45703125 20.5078125 312.5 305.6640625 312.5 336.9140625 c 4
 312.5 345.703125 309.5703125 359.86328125 300.78125 359.86328125 c 6
 156.73828125 359.86328125 l 5
 148.92578125 250 144.53125 156.73828125 139.6484375 79.1015625 c 4
 124.0234375 -164.0625 105.95703125 -257.8125 -13.671875 -257.8125 c 4
 -48.828125 -257.8125 -82.51953125 -240.72265625 -82.51953125 -205.078125 c 4
 -82.51953125 -184.08203125 -71.77734375 -161.1328125 -51.7578125 -161.1328125 c 4
 -32.71484375 -161.1328125 -26.85546875 -179.6875 -17.578125 -195.80078125 c 4
 -8.7890625 -210.44921875 3.41796875 -223.14453125 19.53125 -223.14453125 c 4
 57.12890625 -223.14453125 61.03515625 -136.23046875 75.68359375 76.171875 c 4
 81.0546875 153.3203125 87.40234375 247.55859375 97.65625 359.86328125 c 5
 28.3203125 359.86328125 l 5
 28.3203125 391.6015625 l 5
 99.609375 391.6015625 l 5
 113.28125 521.97265625 111.328125 542.48046875 125.9765625 581.0546875 c 4
 149.4140625 643.5546875 215.33203125 702.63671875 313.4765625 702.63671875 c 4
 377.9296875 702.63671875 387.6953125 670.8984375 387.6953125 649.90234375 c 4
 387.6953125 630.37109375 376.953125 612.79296875 361.328125 612.79296875 c 4
 325.1953125 612.79296875 327.1484375 663.57421875 275.87890625 663.57421875 c 4
 245.1171875 663.57421875 199.21875 652.34375 182.12890625 587.40234375 c 4
 168.45703125 535.64453125 166.015625 463.37890625 158.69140625 391.6015625 c 5
 266.6015625 391.6015625 l 6
 329.58984375 391.6015625 358.3984375 397.94921875 371.09375 397.94921875 c 4
 379.8828125 397.94921875 381.34765625 395.01953125 381.34765625 384.765625 c 4
EndSplineSet
Ligature2: "'liga' Standard Ligatures in Latin lookup 9 subtable" f j
LCarets2: 1 0 
EndChar

StartChar: f_f_j
Encoding: 65543 -1 77
Width: 675
VWidth: 0
Flags: MW
HStem: -258 35<-31 40> -229 37<204 265 445 490> 360 32<28 98 159 319 380 534> 631 39<218 310> 661 42<443 536>
DStem2: 76 76 142 111 0.0772214 0.997014<-184.492 40.1416 392.732 500.132> 299 111 363 111 0.08029 0.996772<-223.001 5.09654 285.877 474.465> 510 -83 582 92 0.0568186 0.998385<-48.3921 179.088 421.091 472.583>
LayerCount: 3
Back
SplineSet
575.68359375 612.79296875 m 4
 544.921875 612.79296875 543.9453125 660.64453125 482.421875 660.64453125 c 4
 431.15234375 660.64453125 403.80859375 596.6796875 393.5546875 518.5546875 c 4
 388.18359375 479.00390625 384.765625 435.05859375 380.37109375 391.6015625 c 5
 491.69921875 391.6015625 l 6
 555.17578125 391.6015625 574.70703125 398.4375 587.40234375 398.4375 c 4
 596.6796875 398.4375 600.09765625 396.484375 600.09765625 379.8828125 c 4
 600.09765625 348.14453125 577.1484375 130.37109375 577.1484375 102.05078125 c 4
 577.1484375 84.47265625 580.56640625 78.61328125 585.44921875 78.61328125 c 4
 600.5859375 78.61328125 652.34375 161.1328125 652.34375 161.1328125 c 5
 668.9453125 147.94921875 l 5
 668.9453125 147.94921875 650.87890625 104.00390625 607.91015625 59.08203125 c 4
 588.37890625 38.57421875 540.0390625 -5.37109375 525.390625 -5.37109375 c 4
 514.6484375 -5.37109375 508.7890625 0.9765625 508.7890625 16.6015625 c 4
 508.7890625 40.0390625 535.15625 247.55859375 535.15625 336.9140625 c 4
 535.15625 345.703125 532.2265625 359.86328125 523.4375 359.86328125 c 6
 378.41796875 359.86328125 l 5
 371.58203125 259.27734375 366.69921875 177.734375 362.79296875 111.328125 c 4
 352.05078125 -67.87109375 344.23828125 -139.16015625 301.7578125 -188.4765625 c 4
 279.296875 -213.8671875 240.72265625 -229.00390625 207.51953125 -229.00390625 c 4
 173.828125 -229.00390625 145.5078125 -213.37890625 145.5078125 -178.7109375 c 4
 145.5078125 -160.15625 157.2265625 -143.06640625 172.8515625 -143.06640625 c 4
 203.61328125 -143.06640625 194.82421875 -191.89453125 235.83984375 -191.89453125 c 4
 256.8359375 -191.89453125 273.92578125 -174.31640625 283.203125 -122.55859375 c 4
 289.0625 -90.33203125 289.55078125 -32.71484375 299.31640625 111.328125 c 4
 303.7109375 175.29296875 310.05859375 256.34765625 319.3359375 359.86328125 c 5
 156.73828125 359.86328125 l 5
 149.90234375 265.13671875 145.5078125 182.6171875 141.6015625 111.328125 c 4
 126.46484375 -148.4375 113.76953125 -257.8125 -13.671875 -257.8125 c 4
 -48.828125 -257.8125 -82.51953125 -240.72265625 -82.51953125 -205.078125 c 4
 -82.51953125 -184.08203125 -71.77734375 -161.1328125 -51.7578125 -161.1328125 c 4
 -32.71484375 -161.1328125 -26.85546875 -179.6875 -17.578125 -195.80078125 c 4
 -8.7890625 -210.44921875 3.41796875 -223.14453125 19.53125 -223.14453125 c 4
 57.12890625 -223.14453125 61.03515625 -136.23046875 75.68359375 76.171875 c 4
 81.0546875 153.3203125 87.40234375 247.55859375 97.65625 359.86328125 c 5
 28.3203125 359.86328125 l 5
 28.3203125 391.6015625 l 5
 98.6328125 391.6015625 l 5
 101.5625 417.48046875 103.02734375 442.87109375 105.46875 467.7734375 c 4
 122.0703125 642.578125 246.58203125 670.41015625 299.31640625 670.41015625 c 4
 355.95703125 670.41015625 373.53515625 628.90625 373.53515625 628.90625 c 5
 373.53515625 628.90625 382.32421875 640.13671875 388.18359375 645.99609375 c 4
 419.921875 677.734375 479.00390625 702.1484375 531.25 702.1484375 c 4
 575.68359375 702.1484375 602.05078125 674.31640625 602.05078125 649.90234375 c 4
 602.05078125 630.37109375 591.30859375 612.79296875 575.68359375 612.79296875 c 4
347.65625 585.9375 m 6
 334.47265625 585.9375 302.24609375 630.859375 259.27734375 630.859375 c 4
 184.08203125 630.859375 171.38671875 523.4375 166.015625 467.7734375 c 6
 158.69140625 391.6015625 l 5
 320.3125 391.6015625 l 5
 327.63671875 461.42578125 328.61328125 530.2734375 350.09765625 585.9375 c 5
 347.65625 585.9375 l 6
173.828125 -143.5546875 m 4
EndSplineSet
Fore
SplineSet
378 360 m 1x28
 371 259 367 177 363 111 c 0
 352 -68 344 -139 302 -188 c 0
 280 -213 241 -229 208 -229 c 0
 174 -229 146 -214 146 -179 c 0
 146 -160 157 -143 173 -143 c 0
 204 -143 195 -192 236 -192 c 0x68
 257 -192 274 -175 283 -123 c 0
 289 -91 289 -33 299 111 c 0
 303 175 310 256 319 360 c 1
 157 360 l 1
 150 265 146 182 142 111 c 0
 127 -149 113 -258 -14 -258 c 0
 -49 -258 -83 -241 -83 -205 c 0
 -83 -184 -72 -161 -52 -161 c 0
 -33 -161 -27 -180 -18 -196 c 0
 -9 -211 4 -223 20 -223 c 0
 58 -223 61 -136 76 76 c 0
 81 153 88 248 98 360 c 1
 28 360 l 1
 28 392 l 1
 99 392 l 1
 102 418 103 443 105 468 c 0
 122 643 246 670 299 670 c 0xb0
 356 670 374 629 374 629 c 1
 374 629 382 640 388 646 c 0
 420 678 479 702 531 702 c 0
 575 702 602 674 602 650 c 0
 602 630 592 613 576 613 c 0
 545 613 544 661 482 661 c 0
 431 661 404 597 394 519 c 0
 389 479 384 435 380 392 c 1
 488 392 l 2
 551 392 575 398 588 398 c 0
 597 398 600 395 600 385 c 0
 600 374 587 184 582 92 c 0
 576 -12 574 -67 560 -121 c 0
 535 -221 458 -226 447 -226 c 0
 414 -226 387 -217 387 -179 c 0
 387 -160 398 -143 414 -143 c 0
 444 -143 438 -189 470 -189 c 0
 491 -189 500 -165 510 -83 c 0
 526 46 534 287 534 337 c 0
 534 358 526 360 517 360 c 2
 378 360 l 1x28
348 586 m 2
 335 586 302 631 259 631 c 0x30
 184 631 171 524 166 468 c 2
 159 392 l 1
 320 392 l 1
 327 462 329 530 350 586 c 1
 348 586 l 2
174 -144 m 0
EndSplineSet
Ligature2: "'liga' Standard Ligatures in Latin lookup 9 subtable" f f j
LCarets2: 2 0 0 
EndChar

StartChar: f_b
Encoding: 65544 -1 78
Width: 568
VWidth: 0
Flags: HMW
HStem: -258 35<-31 40> -4 44<369 420> 347 52<439 492> 360 32<28 98 159 232> 661 41<210 293>
VStem: 499 48<175 324>
DStem2: 76 76 139 76 0.0772214 0.997014<-220.481 4.90176 320.898 534.297> 279 68 333 135 0.0643264 0.997929<17.7641 204.524 295.753 504.409>
LayerCount: 3
Fore
SplineSet
309 627 m 1xec
 288 643 279 661 249 661 c 0
 177 661 172 527 159 392 c 1
 234 392 l 1
 232 360 l 1
 157 360 l 1
 149 249 144 154 139 76 c 0
 124 -165 106 -258 -14 -258 c 0
 -49 -258 -83 -241 -83 -205 c 0
 -83 -184 -72 -161 -52 -161 c 0
 -33 -161 -27 -180 -18 -196 c 0
 -9 -211 4 -223 20 -223 c 0
 58 -223 61 -136 76 76 c 0
 81 153 88 248 98 360 c 1
 28 360 l 1
 28 392 l 1
 99 392 l 1xdc
 109 490 107 586 167 646 c 0
 204 683 235 702 280 702 c 0
 311 702 338 691 338 691 c 2
 338 691 365 708 374 708 c 0
 380 708 382 704 382 699 c 0
 382 697 379 670 347 360 c 0
 337 270 l 1
 403 366 463 398 494 398 c 0
 508 398 547 384 547 294 c 0
 547 284 536 152 480 78 c 0
 461 53 403 -4 384 -4 c 0
 358 -4 329 19 296 42 c 0
 282 52 279 57 279 68 c 0
 279 74 289 208 297 349 c 0
 303 453 309 562 309 627 c 1xec
406 40 m 0
 437 40 499 150 499 239 c 0
 499 300 472 347 445 347 c 0xec
 425 347 387 315 361 267 c 0
 334 218 333 184 333 135 c 0
 333 73 396 40 406 40 c 0
EndSplineSet
Ligature2: "'liga' Standard Ligatures in Latin lookup 9 subtable" f b
LCarets2: 1 0 
EndChar

StartChar: f_f_b
Encoding: 65545 -1 79
Width: 786
VWidth: 0
Flags: MW
HStem: -258 35<-31 42> -229 37<204 265> -4 44<590 642> 347 52<660 714> 360 32<28 98 159 319 380 454> 631 39<218 310> 661 42<432 515>
VStem: 721 48<175 324>
DStem2: 76 76 140 88 0.0772214 0.997014<-207.169 16.6609 392.732 500.132> 298 88 361 88 0.0787493 0.996894<-223.992 4.99873 309.266 497.925> 500 68 554 135 0.0643264 0.997929<17.7641 204.524 295.753 504.409>
LayerCount: 3
Back
SplineSet
530.2734375 626.953125 m 5xec
 509.765625 643.06640625 500.48828125 660.64453125 470.703125 660.64453125 c 4
 398.4375 660.64453125 393.5546875 526.85546875 380.37109375 391.6015625 c 5
 456.0546875 391.6015625 l 5
 454.1015625 359.86328125 l 5
 378.41796875 359.86328125 l 5
 370.60546875 248.53515625 365.72265625 154.296875 360.83984375 76.171875 c 4
 345.703125 -164.55078125 327.63671875 -257.8125 208.0078125 -257.8125 c 4
 172.8515625 -257.8125 139.16015625 -240.72265625 139.16015625 -205.078125 c 4
 139.16015625 -184.08203125 149.90234375 -161.1328125 169.921875 -161.1328125 c 4
 188.96484375 -161.1328125 194.82421875 -179.6875 204.1015625 -195.80078125 c 4
 212.890625 -210.44921875 225.09765625 -223.14453125 241.2109375 -223.14453125 c 4
 278.80859375 -223.14453125 282.71484375 -136.23046875 297.36328125 76.171875 c 4
 302.734375 153.3203125 309.08203125 247.55859375 319.3359375 359.86328125 c 5
 250 359.86328125 l 5
 250 391.6015625 l 5
 320.3125 391.6015625 l 5xdc
 330.56640625 489.2578125 328.125 585.9375 388.18359375 645.99609375 c 4
 425.29296875 683.10546875 456.54296875 702.1484375 501.953125 702.1484375 c 4
 532.71484375 702.1484375 559.5703125 691.40625 559.5703125 691.40625 c 6
 559.5703125 691.40625 585.9375 708.0078125 595.21484375 708.0078125 c 4
 601.5625 708.0078125 603.515625 704.1015625 603.515625 698.73046875 c 4
 603.515625 696.77734375 600.09765625 669.921875 568.359375 360.3515625 c 4
 559.08203125 269.53125 l 5
 625 365.234375 684.5703125 398.4375 715.8203125 398.4375 c 4
 729.4921875 398.4375 768.5546875 383.7890625 768.5546875 293.9453125 c 4
 768.5546875 283.69140625 757.32421875 152.34375 701.66015625 78.125 c 4
 682.6171875 53.22265625 625 -4.39453125 605.95703125 -4.39453125 c 4
 579.58984375 -4.39453125 550.29296875 18.5546875 517.578125 41.9921875 c 4
 503.90625 51.7578125 500.48828125 57.6171875 500.48828125 68.359375 c 4
 500.48828125 74.70703125 510.25390625 208.0078125 518.5546875 348.6328125 c 4
 524.90234375 453.125 530.2734375 562.01171875 530.2734375 626.953125 c 5xec
627.44140625 39.55078125 m 4
 658.203125 40.0390625 720.703125 149.90234375 720.703125 238.76953125 c 4
 720.703125 299.8046875 693.84765625 346.6796875 666.50390625 346.6796875 c 4xec
 646.484375 346.6796875 609.375 314.453125 583.0078125 266.6015625 c 4
 556.15234375 217.28515625 554.19921875 184.5703125 554.19921875 135.25390625 c 4
 554.19921875 73.2421875 617.1875 39.55078125 627.44140625 39.55078125 c 4
EndSplineSet
Fore
SplineSet
394 519 m 0x2b
 388 470 381 405 380 392 c 1
 456 392 l 1
 454 360 l 1
 378 360 l 1
 370 247 365 159 361 88 c 0
 351 -74 343 -141 302 -188 c 0
 280 -213 241 -229 208 -229 c 0
 174 -229 146 -214 146 -179 c 0
 146 -160 157 -143 173 -143 c 0
 204 -143 195 -192 236 -192 c 0x6b
 257 -192 274 -175 283 -123 c 0
 289 -92 290 -39 298 88 c 0
 302 155 308 243 319 360 c 1
 157 360 l 1
 149 255 144 164 140 88 c 0
 125 -155 110 -258 -14 -258 c 0
 -49 -258 -83 -241 -83 -205 c 0
 -83 -184 -72 -161 -52 -161 c 0
 -33 -161 -27 -180 -18 -196 c 0
 -9 -211 4 -223 20 -223 c 0
 58 -223 61 -136 76 76 c 0
 81 153 88 248 98 360 c 1
 28 360 l 1
 28 392 l 1
 99 392 l 1
 102 418 103 443 105 468 c 0
 122 643 246 670 299 670 c 0xad
 356 670 374 629 374 629 c 1
 374 629 382 640 388 646 c 0
 425 683 457 702 502 702 c 0
 533 702 560 691 560 691 c 2
 560 691 586 708 595 708 c 0
 601 708 604 704 604 699 c 0
 604 697 600 670 568 360 c 0
 559 270 l 1
 625 366 685 398 716 398 c 0
 730 398 769 384 769 294 c 0
 769 284 758 152 702 78 c 0
 683 53 625 -4 606 -4 c 0
 580 -4 551 19 518 42 c 0
 504 52 500 57 500 68 c 0
 500 74 511 208 519 349 c 0
 525 453 530 562 530 627 c 1
 509 643 501 661 471 661 c 0
 425 661 406 610 394 519 c 0x2b
627 40 m 0
 658 40 721 150 721 239 c 0
 721 300 694 347 667 347 c 0x31
 647 347 609 315 583 267 c 0
 556 218 554 184 554 135 c 0
 554 73 617 40 627 40 c 0
348 586 m 2
 335 586 302 631 259 631 c 0
 184 631 171 524 166 468 c 2
 159 392 l 1
 320 392 l 1x2d
 327 462 329 530 350 586 c 1
 348 586 l 2
174 -144 m 0
EndSplineSet
Ligature2: "'liga' Standard Ligatures in Latin lookup 9 subtable" f f b
LCarets2: 2 0 0 
EndChar

StartChar: f_h
Encoding: 65546 -1 80
Width: 643
VWidth: 0
Flags: HMW
HStem: -258 35<-31 40> 0 3G<301 319 488 497> 327 67<482 527> 360 32<28 98 159 232> 661 42<210 296>
DStem2: 76 76 139 76 0.0772214 0.997014<-220.492 4.90176 320.898 532.539> 283 15 337 58 0.0597154 0.998215<-12.6958 17.3422 46.1577 124.39 346.71 561.343> 477 19 542 95 0.0895666 0.995981<0 81.1958 272.58 304.815>
AnchorPoint: "top" 515 732 basechar 0
LayerCount: 3
Back
SplineSet
345.21484375 189.94140625 m 1
 405.2734375 292.96875 481.93359375 394.04296875 525.87890625 394.04296875 c 0
 553.22265625 394.04296875 562.98828125 352.5390625 562.98828125 289.55078125 c 0
 562.98828125 216.30859375 541.9921875 142.08984375 541.9921875 94.7265625 c 0
 541.9921875 85.44921875 542.48046875 75.1953125 548.828125 75.1953125 c 0
 559.5703125 75.1953125 584.9609375 106.4453125 603.02734375 131.34765625 c 2
 619.140625 154.296875 l 9
 634.765625 142.578125 l 17
 605.46875 90.8203125 569.3359375 55.17578125 549.31640625 35.64453125 c 0
 510.25390625 -2.44140625 503.90625 -7.32421875 490.72265625 -7.32421875 c 0
 484.86328125 -7.32421875 477.05078125 -4.39453125 477.05078125 19.04296875 c 0
 477.05078125 50.78125 501.46484375 228.515625 501.46484375 290.52734375 c 0
 501.46484375 318.359375 495.1171875 326.66015625 486.81640625 326.66015625 c 0
 459.47265625 326.66015625 363.28125 208.984375 347.65625 136.71875 c 0
 341.30859375 108.3984375 338.37890625 82.51953125 337.40234375 57.6171875 c 2
 336.42578125 28.80859375 l 2
 335.9375 7.32421875 330.56640625 0 307.6171875 0 c 0
 293.9453125 0 282.71484375 2.9296875 282.71484375 14.6484375 c 0
 282.71484375 33.203125 312.5 456.0546875 318.84765625 618.65234375 c 1
 296.38671875 636.71875 282.71484375 660.64453125 248.53515625 660.64453125 c 0
 197.75390625 660.64453125 175.29296875 592.28515625 164.0625 446.77734375 c 0
 152.83203125 303.7109375 146.97265625 186.5234375 140.625 91.796875 c 0
 124.0234375 -163.0859375 106.93359375 -257.8125 -13.671875 -257.8125 c 0
 -48.828125 -257.8125 -82.51953125 -240.72265625 -82.51953125 -205.078125 c 0
 -82.51953125 -184.08203125 -71.77734375 -161.1328125 -51.7578125 -161.1328125 c 0
 -32.71484375 -161.1328125 -26.85546875 -179.6875 -17.578125 -195.80078125 c 0
 -8.7890625 -210.44921875 3.41796875 -223.14453125 19.53125 -223.14453125 c 0
 57.12890625 -223.14453125 61.03515625 -136.23046875 75.68359375 76.171875 c 0
 83.0078125 184.08203125 96.6796875 360.3515625 101.5625 423.33984375 c 0
 109.86328125 530.76171875 118.65234375 598.14453125 166.50390625 645.99609375 c 0
 198.2421875 677.734375 229.98046875 702.1484375 282.71484375 702.1484375 c 0
 322.265625 702.1484375 347.65625 686.03515625 347.65625 686.03515625 c 1
 347.65625 686.03515625 373.046875 708.0078125 382.32421875 708.0078125 c 0
 388.671875 708.0078125 391.11328125 705.56640625 391.11328125 700.1953125 c 0
 391.11328125 689.94140625 378.41796875 566.89453125 366.2109375 435.546875 c 0
 357.91015625 347.16796875 349.609375 254.39453125 345.21484375 189.94140625 c 1
EndSplineSet
Fore
SplineSet
319 619 m 1xe8
 295 639 284 661 248 661 c 0
 177 661 172 521 159 392 c 1
 234 392 l 1
 232 360 l 1
 157 360 l 1
 149 249 144 154 139 76 c 0
 124 -165 105 -258 -14 -258 c 0
 -49 -258 -83 -241 -83 -205 c 0
 -83 -184 -72 -161 -52 -161 c 0
 -33 -161 -27 -180 -18 -196 c 0
 -9 -211 4 -223 20 -223 c 0
 58 -223 61 -136 76 76 c 0
 81 153 88 248 98 360 c 1
 28 360 l 1
 28 392 l 1
 99 392 l 1xd8
 109 490 107 586 167 646 c 0
 195 674 229 703 281 703 c 0
 322 703 348 686 348 686 c 2
 348 686 373 708 382 708 c 0
 388 708 391 705 391 700 c 0
 391 685 374 518 359 357 c 0
 354 298 348 240 345 190 c 1
 405 293 482 394 526 394 c 0
 553 394 563 353 563 290 c 0
 563 217 542 142 542 95 c 0
 542 86 543 75 549 75 c 0
 560 75 585 106 603 131 c 2
 619 154 l 9
 635 143 l 17
 606 91 569 56 549 36 c 0
 510 -2 504 -7 491 -7 c 0
 485 -7 477 -4 477 19 c 0
 477 51 501 229 501 291 c 0
 501 319 495 327 487 327 c 0
 460 327 364 209 348 137 c 0
 342 109 338 83 337 58 c 2
 336 29 l 2
 336 8 331 0 308 0 c 0
 294 0 283 3 283 15 c 0
 283 34 313 456 319 619 c 1xe8
EndSplineSet
Ligature2: "'liga' Standard Ligatures in Latin lookup 9 subtable" f h
LCarets2: 1 0 
EndChar

StartChar: f_f_h
Encoding: 65547 -1 81
Width: 868
VWidth: 0
Flags: MW
HStem: -258 35<-31 42> -229 37<204 265> 0 3G<522 541 709 719> 327 67<704 749> 360 32<28 98 159 319 380 454> 631 39<218 310> 661 42<432 517>
DStem2: 76 76 140 88 0.0772214 0.997014<-207.169 16.6609 392.732 500.132> 298 88 361 88 0.0787493 0.996894<-223.992 4.99873 309.266 497.925> 504 15 559 58 0.0597154 0.998215<-12.6958 17.3422 46.1577 124.39 346.71 561.343> 699 19 764 95 0.0895666 0.995981<0 81.1958 272.58 304.815>
AnchorPoint: "top" 737 732 basechar 0
LayerCount: 3
Back
SplineSet
540.52734375 618.65234375 m 5
 516.6015625 638.18359375 505.37109375 660.64453125 469.23828125 660.64453125 c 4
 397.94921875 660.64453125 393.5546875 520.99609375 380.37109375 391.6015625 c 5
 456.0546875 391.6015625 l 5
 454.1015625 359.86328125 l 5
 378.41796875 359.86328125 l 5
 370.60546875 248.53515625 365.72265625 154.296875 360.83984375 76.171875 c 4
 345.703125 -164.55078125 327.1484375 -257.8125 208.0078125 -257.8125 c 4
 172.8515625 -257.8125 139.16015625 -240.72265625 139.16015625 -205.078125 c 4
 139.16015625 -184.08203125 149.90234375 -161.1328125 169.921875 -161.1328125 c 4
 188.96484375 -161.1328125 194.82421875 -179.6875 204.1015625 -195.80078125 c 4
 212.890625 -210.44921875 225.09765625 -223.14453125 241.2109375 -223.14453125 c 4
 278.80859375 -223.14453125 282.71484375 -136.23046875 297.36328125 76.171875 c 4
 302.734375 153.3203125 309.08203125 247.55859375 319.3359375 359.86328125 c 5
 250 359.86328125 l 5
 250 391.6015625 l 5
 320.3125 391.6015625 l 5
 330.56640625 489.2578125 328.125 585.9375 388.18359375 645.99609375 c 4
 416.015625 673.828125 450.68359375 702.63671875 502.44140625 702.63671875 c 4
 542.96875 702.63671875 568.84765625 686.03515625 569.3359375 686.03515625 c 6
 569.3359375 686.03515625 594.7265625 708.0078125 604.00390625 708.0078125 c 4
 610.3515625 708.0078125 612.79296875 705.56640625 612.79296875 700.1953125 c 4
 612.79296875 685.05859375 595.21484375 518.06640625 580.56640625 357.421875 c 4
 575.1953125 298.33984375 570.3125 239.74609375 566.89453125 189.94140625 c 5
 626.953125 292.96875 703.61328125 394.04296875 747.55859375 394.04296875 c 4
 774.90234375 394.04296875 784.66796875 352.5390625 784.66796875 289.55078125 c 4
 784.66796875 216.30859375 763.671875 142.08984375 763.671875 94.7265625 c 4
 763.671875 85.44921875 764.16015625 75.1953125 770.5078125 75.1953125 c 4
 781.25 75.1953125 806.640625 106.4453125 824.70703125 131.34765625 c 6
 840.8203125 154.296875 l 13
 856.4453125 142.578125 l 21
 827.1484375 90.8203125 791.015625 55.17578125 770.99609375 35.64453125 c 4
 731.93359375 -2.44140625 725.5859375 -7.32421875 712.40234375 -7.32421875 c 4
 706.54296875 -7.32421875 698.73046875 -4.39453125 698.73046875 19.04296875 c 4
 698.73046875 50.78125 723.14453125 228.515625 723.14453125 290.52734375 c 4
 723.14453125 318.359375 716.796875 326.66015625 708.49609375 326.66015625 c 4
 681.15234375 326.66015625 584.9609375 208.984375 569.3359375 136.71875 c 4
 562.98828125 108.3984375 560.05859375 82.51953125 559.08203125 57.6171875 c 6
 558.10546875 28.80859375 l 6
 557.6171875 7.32421875 552.24609375 0 529.296875 0 c 4
 515.625 0 504.39453125 2.9296875 504.39453125 14.6484375 c 4
 504.39453125 33.203125 534.1796875 456.0546875 540.52734375 618.65234375 c 5
EndSplineSet
Fore
SplineSet
401 564 m 0x32
 392 524 382 410 380 392 c 1
 456 392 l 1
 454 360 l 1
 378 360 l 1
 370 247 365 159 361 88 c 0
 351 -74 343 -141 302 -188 c 0
 280 -213 241 -229 208 -229 c 0
 174 -229 146 -214 146 -179 c 0
 146 -160 157 -143 173 -143 c 0
 204 -143 195 -192 236 -192 c 0x6a
 257 -192 274 -175 283 -123 c 0
 289 -92 290 -39 298 88 c 0
 302 155 308 243 319 360 c 1
 157 360 l 1
 149 255 144 164 140 88 c 0
 125 -155 110 -258 -14 -258 c 0
 -49 -258 -83 -241 -83 -205 c 0
 -83 -184 -72 -161 -52 -161 c 0
 -33 -161 -27 -180 -18 -196 c 0
 -9 -211 4 -223 20 -223 c 0
 58 -223 61 -136 76 76 c 0
 81 153 88 248 98 360 c 1
 28 360 l 1
 28 392 l 1
 99 392 l 1
 102 418 103 443 105 468 c 0
 122 643 246 670 299 670 c 0xac
 356 670 374 629 374 629 c 1
 374 629 382 640 388 646 c 0
 416 674 450 703 502 703 c 0
 543 703 569 686 569 686 c 2
 569 686 595 708 604 708 c 0
 610 708 613 705 613 700 c 0
 613 685 596 518 581 357 c 0
 576 298 570 240 567 190 c 1
 627 293 704 394 748 394 c 0
 775 394 785 353 785 290 c 0
 785 217 764 142 764 95 c 0
 764 86 765 75 771 75 c 0
 782 75 807 106 825 131 c 2
 841 154 l 9
 856 143 l 17
 827 91 791 56 771 36 c 0
 732 -2 725 -7 712 -7 c 0
 706 -7 699 -4 699 19 c 0
 699 51 723 229 723 291 c 0
 723 319 716 327 708 327 c 0
 681 327 585 209 569 137 c 0
 563 109 560 83 559 58 c 2
 558 29 l 2
 558 8 552 0 529 0 c 0
 515 0 504 3 504 15 c 0
 504 34 535 456 541 619 c 1
 515 640 505 661 469 661 c 0
 414 661 403 572 401 564 c 0x32
348 586 m 2
 335 586 302 631 259 631 c 0x2c
 184 631 171 524 166 468 c 2
 159 392 l 1
 320 392 l 1
 327 462 329 530 350 586 c 1
 348 586 l 2
174 -144 m 0
EndSplineSet
Ligature2: "'liga' Standard Ligatures in Latin lookup 9 subtable" f f h
LCarets2: 2 0 0 
EndChar

StartChar: f_k
Encoding: 65548 -1 82
Width: 631
VWidth: 0
Flags: MW
HStem: -258 35<-31.5 42.662> -8 67<503.84 539.287> 360 32<28 98 159 232 438.561 507.988> 364 21<437 506.625> 661 41<210.342 292.683>
DStem2: 76 76 139 70 0.0619497 0.998079<-229.131 0 320.535 511.455> 269 12 331 55 0.0808602 0.996725<-10.9503 18.8866 410.359 621.634>
LayerCount: 3
Back
SplineSet
245.60546875 660.58984375 m 4
 176.643554688 657.500976562 171.72265625 522.881835938 158.69140625 391.6015625 c 5
 234.375 391.6015625 l 5
 232.421875 359.86328125 l 5
 156.73828125 359.86328125 l 5
 148.92578125 248.046875 144.04296875 154.296875 139.16015625 76.171875 c 4
 123.53515625 -166.9921875 104.98046875 -257.8125 -13.671875 -257.8125 c 4
 -48.828125 -257.8125 -82.51953125 -240.72265625 -82.51953125 -205.078125 c 4
 -82.51953125 -184.08203125 -71.77734375 -161.1328125 -51.7578125 -161.1328125 c 4
 -32.71484375 -161.1328125 -26.85546875 -179.6875 -17.578125 -195.80078125 c 4
 -8.7890625 -210.44921875 3.41796875 -223.14453125 19.53125 -223.14453125 c 4
 57.12890625 -223.14453125 61.03515625 -136.23046875 75.68359375 76.171875 c 4
 81.0546875 153.3203125 87.40234375 247.55859375 97.65625 359.86328125 c 5
 28.3203125 359.86328125 l 5
 28.3203125 391.6015625 l 5
 98.6328125 391.6015625 l 5
 108.88671875 489.2578125 106.4453125 585.9375 166.50390625 645.99609375 c 4
 197.603515625 677.095703125 230.109375 701.163085938 277.34375 702.119140625 c 4
 277.915039062 702.130859375 280.24609375 702.13671875 282.229492188 702.13671875 c 4
 285.15625 702.127929688 l 4
 323.109375 701.485351562 342.7734375 686.03515625 342.7734375 686.03515625 c 5
 342.7734375 686.03515625 373.046875 708.0078125 382.32421875 708.0078125 c 4
 388.671875 708.0078125 391.11328125 707.51953125 391.11328125 697.75390625 c 4
 391.11328125 687.532226562 377.465820312 548.15625 364.294921875 416.015625 c 4
 340.33203125 177.734375 l 5
 340.33203125 177.734375 508.30078125 286.1328125 508.30078125 347.16796875 c 4
 508.30078125 363.28125 491.2109375 363.76953125 483.3984375 363.76953125 c 6
 463.8671875 363.76953125 l 6
 456.0546875 363.76953125 446.77734375 363.76953125 435.546875 363.28125 c 5
 437.01171875 384.765625 l 5
 469.7265625 387.6953125 523.4375 388.671875 545.41015625 388.671875 c 4
 583.49609375 388.671875 588.37890625 385.25390625 588.37890625 379.39453125 c 4
 588.37890625 362.79296875 559.08203125 324.70703125 530.76171875 295.8984375 c 4
 487.79296875 251.953125 434.5703125 215.8203125 434.5703125 215.8203125 c 5
 434.5703125 215.8203125 497.0703125 59.08203125 531.25 59.08203125 c 4
 550.78125 59.08203125 587.890625 135.7421875 587.890625 135.7421875 c 5
 610.3515625 122.55859375 l 5
 610.3515625 122.55859375 599.12109375 100.09765625 583.0078125 73.73046875 c 4
 560.05859375 36.62109375 527.34375 -8.30078125 507.8125 -8.30078125 c 4
 466.796875 -8.30078125 386.23046875 183.59375 386.23046875 183.59375 c 5
 338.37890625 150.87890625 l 5
 338.37890625 150.87890625 332.03125 80.078125 331.0546875 55.17578125 c 6
 330.078125 26.3671875 l 6
 329.58984375 4.8828125 324.21875 -2.44140625 301.26953125 -2.44140625 c 4
 287.59765625 -2.44140625 269.04296875 0.48828125 269.04296875 12.20703125 c 4
 269.04296875 26.7529296875 277.640625 94.6015625 293.963867188 295.8984375 c 4
 300.655273438 378.408203125 308.643554688 483.33984375 317.87109375 616.2109375 c 5
 296.905273438 634.793945312 283.379882812 659.421875 250.9765625 660.600585938 c 4
 250.6171875 660.61328125 249.663085938 660.620117188 248.646484375 660.620117188 c 4
 247.395507812 660.620117188 246.049804688 660.610351562 245.60546875 660.58984375 c 4
EndSplineSet
Fore
SplineSet
318 616 m 1
 297 635 283 661 249 661 c 0
 177 661 172 527 159 392 c 1
 234 392 l 1
 232 360 l 1
 157 360 l 1
 149 246 144 150 139 70 c 0
 124 -166 104 -258 -14 -258 c 0
 -49 -258 -83 -241 -83 -205 c 0
 -83 -184 -72 -161 -52 -161 c 0
 -33 -161 -27 -180 -18 -196 c 0
 -9 -211 4 -223 20 -223 c 0
 58 -223 61 -136 76 76 c 0
 81 153 88 248 98 360 c 1
 28 360 l 1
 28 392 l 1
 99 392 l 1
 109 490 107 586 167 646 c 0
 203 682 235 702 281 702 c 0
 323 702 343 686 343 686 c 2
 343 686 373 708 382 708 c 0
 388 708 391 708 391 698 c 0
 391 688 377 548 364 416 c 2
 340 178 l 1
 340 178 508 286 508 347 c 0
 508 363 491 364 483 364 c 2
 464 364 l 2
 456 364 447 363 436 363 c 1
 437 385 l 1
 470 388 523 389 545 389 c 0
 583 389 588 385 588 379 c 0
 588 362 559 325 531 296 c 0
 488 252 435 216 435 216 c 1
 435 216 497 59 531 59 c 0
 551 59 588 136 588 136 c 1
 610 123 l 1
 610 123 599 100 583 74 c 0
 560 37 528 -8 508 -8 c 0
 467 -8 386 184 386 184 c 1
 338 151 l 1
 338 151 332 80 331 55 c 2
 330 26 l 2
 330 5 324 -2 301 -2 c 0
 287 -2 269 0 269 12 c 0
 269 42 283 106 318 616 c 1
EndSplineSet
Ligature2: "'liga' Standard Ligatures in Latin lookup 9 subtable" f k
LCarets2: 1 0 
EndChar

StartChar: f_f_k
Encoding: 65549 -1 83
Width: 845
VWidth: 0
Flags: HMW
HStem: -258 35<-31 42> -229 37<204 265> -8 67<725 761> 360 32<28 98 159 319 380 454 659 730> 631 39<218 310> 661 42<432 515>
DStem2: 76 76 142 111 0.0772214 0.997014<-186.7 40.1416 392.732 500.132> 299 111 363 111 0.08029 0.996772<-221.267 5.09654 285.877 474.465> 491 12 562 178 0.0805779 0.996748<-11.7044 19.0322 410.168 621.269>
LayerCount: 3
Back
SplineSet
539.55078125 616.2109375 m 5xfb
 518.5546875 634.765625 503.90625 660.64453125 470.21484375 660.64453125 c 4
 397.94921875 660.64453125 393.5546875 526.3671875 380.37109375 391.6015625 c 5
 456.0546875 391.6015625 l 5
 454.1015625 359.86328125 l 5
 378.41796875 359.86328125 l 5
 370.60546875 245.60546875 365.72265625 149.90234375 360.3515625 70.3125 c 4
 345.21484375 -166.015625 326.171875 -257.8125 208.0078125 -257.8125 c 4
 172.8515625 -257.8125 139.16015625 -240.72265625 139.16015625 -205.078125 c 4
 139.16015625 -184.08203125 149.90234375 -161.1328125 169.921875 -161.1328125 c 4
 188.96484375 -161.1328125 194.82421875 -179.6875 204.1015625 -195.80078125 c 4
 212.890625 -210.44921875 225.09765625 -223.14453125 241.2109375 -223.14453125 c 4
 278.80859375 -223.14453125 282.71484375 -136.23046875 297.36328125 76.171875 c 4
 302.734375 153.3203125 309.08203125 247.55859375 319.3359375 359.86328125 c 5
 250 359.86328125 l 5
 250 391.6015625 l 5
 320.3125 391.6015625 l 5
 330.56640625 489.2578125 328.125 585.9375 388.18359375 645.99609375 c 4
 424.31640625 682.12890625 457.03125 702.1484375 502.9296875 702.1484375 c 4
 544.43359375 702.1484375 563.96484375 686.03515625 564.453125 686.03515625 c 6
 564.453125 686.03515625 594.7265625 708.0078125 604.00390625 708.0078125 c 4
 610.3515625 708.0078125 612.79296875 707.51953125 612.79296875 697.75390625 c 4
 612.79296875 687.5 599.12109375 548.33984375 585.9375 416.015625 c 6xfb
 562.01171875 177.734375 l 5
 562.01171875 177.734375 729.98046875 286.1328125 729.98046875 347.16796875 c 4
 729.98046875 363.28125 712.890625 363.76953125 705.078125 363.76953125 c 6
 685.546875 363.76953125 l 6
 677.734375 363.76953125 668.45703125 363.76953125 657.2265625 363.28125 c 5
 658.69140625 384.765625 l 5
 691.40625 387.6953125 745.1171875 388.671875 767.08984375 388.671875 c 4
 805.17578125 388.671875 810.05859375 385.25390625 810.05859375 379.39453125 c 4
 810.05859375 362.79296875 780.76171875 324.70703125 752.44140625 295.8984375 c 4
 709.47265625 251.953125 656.25 215.8203125 656.25 215.8203125 c 5
 656.25 215.8203125 718.75 59.08203125 752.9296875 59.08203125 c 4
 772.4609375 59.08203125 809.5703125 135.7421875 809.5703125 135.7421875 c 5
 832.03125 122.55859375 l 5
 832.03125 122.55859375 820.80078125 100.09765625 804.6875 73.73046875 c 4
 781.73828125 36.62109375 749.0234375 -8.30078125 729.4921875 -8.30078125 c 4
 688.4765625 -8.30078125 607.91015625 183.59375 607.91015625 183.59375 c 5
 560.05859375 150.87890625 l 5
 560.05859375 150.87890625 553.7109375 80.078125 552.734375 55.17578125 c 6
 551.7578125 26.3671875 l 6
 551.26953125 4.8828125 545.8984375 -2.44140625 522.94921875 -2.44140625 c 4
 509.27734375 -2.44140625 490.72265625 0.48828125 490.72265625 12.20703125 c 4xfd
 490.72265625 41.9921875 504.39453125 106.4453125 539.55078125 616.2109375 c 5xfb
EndSplineSet
Fore
SplineSet
394 519 m 0x34
 389 479 384 435 380 392 c 1
 456 392 l 1
 454 360 l 1
 378 360 l 1
 371 260 367 178 363 111 c 0
 353 -63 345 -138 302 -188 c 0
 280 -213 241 -229 208 -229 c 0
 174 -229 146 -214 146 -179 c 0
 146 -160 157 -143 173 -143 c 0
 204 -143 195 -192 236 -192 c 0x74
 257 -192 274 -175 283 -123 c 0
 289 -91 290 -25 299 111 c 0
 303 176 310 258 319 360 c 1
 157 360 l 1
 150 265 146 182 142 111 c 0
 126 -154 111 -258 -14 -258 c 0
 -49 -258 -83 -241 -83 -205 c 0
 -83 -184 -72 -161 -52 -161 c 0
 -33 -161 -27 -180 -18 -196 c 0
 -9 -211 4 -223 20 -223 c 0
 58 -223 61 -136 76 76 c 0
 81 153 88 248 98 360 c 1
 28 360 l 1
 28 392 l 1
 99 392 l 1
 102 418 103 443 105 468 c 0
 122 643 246 670 299 670 c 0xb8
 356 670 374 629 374 629 c 1
 374 629 382 640 388 646 c 0
 424 682 457 702 503 702 c 0
 545 702 564 686 564 686 c 2
 564 686 595 708 604 708 c 0
 610 708 613 708 613 698 c 0
 613 688 599 548 586 416 c 2
 562 178 l 1
 562 178 730 286 730 347 c 0
 730 363 713 364 705 364 c 2
 686 364 l 2
 678 364 668 363 657 363 c 1
 659 385 l 1
 692 388 745 389 767 389 c 0
 805 389 810 385 810 379 c 0
 810 362 780 325 752 296 c 0
 709 252 656 216 656 216 c 1
 656 216 719 59 753 59 c 0
 773 59 810 136 810 136 c 1
 832 123 l 1
 832 123 821 100 805 74 c 0
 782 37 749 -8 729 -8 c 0
 688 -8 608 184 608 184 c 1
 560 151 l 1
 560 151 554 80 553 55 c 2
 552 26 l 2
 552 5 546 -2 523 -2 c 0
 509 -2 491 0 491 12 c 0
 491 42 505 106 540 616 c 1
 519 635 504 661 470 661 c 0
 419 661 404 597 394 519 c 0x34
348 586 m 2
 335 586 302 631 259 631 c 0x38
 184 631 171 524 166 468 c 2
 159 392 l 1
 320 392 l 1
 327 462 329 530 350 586 c 1
 348 586 l 2
174 -144 m 0
EndSplineSet
Ligature2: "'liga' Standard Ligatures in Latin lookup 9 subtable" f f k
LCarets2: 2 2 0 
EndChar

StartChar: ampersand
Encoding: 38 38 84
Width: 833
VWidth: 0
Flags: W
HStem: -20 68<275.401 467.577> -15 77<663.25 774.762> 444 39<493 614.934 666.018 758> 635 38<199.545 307.154>
VStem: 30 93<173.907 309.313> 93 78<494.897 600.12> 338 75<517.022 609.394> 630 49<222.622 432.059>
DStem2: 543 167 425 143 0.766134 -0.642681<-332.426 31.397>
LayerCount: 3
Fore
SplineSet
30 225 m 0xbb
 30 361 159 391 162 392 c 1
 157 396 93 461 93 526 c 0
 93 602 155 673 264 673 c 0
 342 673 413 622 413 562 c 0
 413 521 383 470 328 470 c 0
 306 470 272 480 272 494 c 0
 272 509 338 503 338 557 c 0
 338 603 297 635 254 635 c 0
 212 635 171 604 171 561 c 0
 171 498 224 448 359 323 c 0
 468 221 512 191 543 167 c 2
 570 146 l 1
 572 150 630 224 630 331 c 0
 630 360 630 369 623 400 c 0
 613 445 605 443 493 444 c 1
 491 483 l 1
 758 483 l 1
 759 444 l 1
 690 443 666 446 666 432 c 0
 666 421 679 422 679 328 c 0
 679 227 607 121 607 121 c 1
 650 92 686 62 737 62 c 0
 774 62 789 73 802 73 c 0
 809 73 812 70 812 62 c 0
 812 22 761 -15 693 -15 c 0x77
 641 -15 549 53 549 53 c 1
 549 53 490 -20 337 -20 c 0
 185 -20 30 60 30 225 c 0xbb
123 256 m 0xbb
 123 127 269 48 383 48 c 0
 470 48 508 79 511 80 c 1
 425 143 l 1
 374 182 277 270 188 364 c 1
 156 356 123 316 123 256 c 0xbb
EndSplineSet
Position2: "'cpsp' Capital Spacing in Latin lookup 2 subtable" dx=6 dy=0 dh=12 dv=0
EndChar

StartChar: m
Encoding: 109 109 85
Width: 609
VWidth: 0
Flags: MW
HStem: -0 15G<85.5 116.5 274 307 456 478> 378 20G<289.5 328.5 500.5 520.5> 384 20G<142 154.5>
VStem: 67 67<0.081543 150.698> 257 65<-0.854946 153.793> 444 71<21.8903 222.241>
LayerCount: 3
Fore
SplineSet
67 14 m 0xdc
 67 24 93 282 93 327 c 0
 93 346 88 351 80 351 c 0
 74 351 67 348 59 345 c 2
 17 327 l 1
 8 354 l 1
 54 375 134 404 150 404 c 0xbc
 159 404 167 401 167 392 c 0
 167 350 147 278 146 195 c 1
 146 195 259 396 320 396 c 0
 337 396 341 365 341 328 c 0
 341 277 335 200 335 200 c 1
 335 200 384 281 433 339 c 0
 461 372 492 398 509 398 c 0
 532 398 532 356 532 332 c 0
 532 266 515 154 515 110 c 0
 515 92 520 81 529 81 c 0
 536 81 551 100 562 117 c 0
 573 133 578 146 578 146 c 1
 596 137 l 1
 563 65 493 -6 463 -6 c 0
 449 -6 444 11 444 36 c 0
 444 82 470 223 470 279 c 0
 470 301 470 314 458 314 c 0
 437 314 359 218 329 116 c 0
 328 110 324 103 322 20 c 0
 322 7 318 -1 296 -1 c 2
 280 -1 l 2
 268 -1 257 2 257 13 c 0
 257 31 281 222 281 283 c 0
 281 302 273 312 266 312 c 0
 237 312 147 155 143 115 c 0
 140 86 136 67 134 19 c 0
 134 7 123 0 110 -0 c 2
 91 -0 l 2
 80 0 67 2 67 14 c 0xdc
EndSplineSet
Layer: 2
SplineSet
532.2265625 332.03125 m 4xca80
 532.2265625 265.625 515.13671875 154.78515625 515.13671875 110.3515625 c 4
 515.13671875 92.28515625 519.53125 81.0546875 528.80859375 81.0546875 c 4
 536.1328125 81.0546875 550.29296875 100.09765625 561.5234375 117.1875 c 4
 572.265625 133.30078125 578.125 146.484375 578.125 146.484375 c 5
 595.703125 136.71875 l 5
 562.98828125 64.453125 492.67578125 -5.859375 462.890625 -5.859375 c 4
 449.21875 -5.859375 444.3359375 10.7421875 444.3359375 36.1328125 c 4xc1
 444.3359375 82.03125 470.21484375 222.65625 470.21484375 278.80859375 c 4
 470.21484375 301.26953125 470.21484375 314.453125 458.49609375 314.453125 c 4
 437.5 314.453125 358.3984375 218.26171875 328.61328125 116.2109375 c 4
 327.1484375 110.3515625 324.21875 103.02734375 322.265625 19.53125 c 4
 321.77734375 6.34765625 318.359375 -1.46484375 296.38671875 -1.46484375 c 6
 280.2734375 -1.46484375 l 6
 268.06640625 -1.46484375 256.8359375 2.44140625 256.8359375 13.18359375 c 4xc480
 256.8359375 30.76171875 280.76171875 222.65625 280.76171875 283.203125 c 4
 280.76171875 302.24609375 273.4375 312.5 266.11328125 312.5 c 4
 237.3046875 312.5 146.97265625 154.296875 142.578125 114.74609375 c 4
 139.16015625 85.9375 136.23046875 66.89453125 133.7890625 18.5546875 c 4
 133.30078125 6.8359375 123.53515625 -0.48828125 110.3515625 -0.48828125 c 6
 90.8203125 -0.48828125 l 6
 79.58984375 -0.48828125 67.3828125 2.44140625 67.3828125 14.16015625 c 4xd2
 67.3828125 25.390625 92.7734375 285.15625 92.7734375 326.66015625 c 4
 92.7734375 345.703125 87.890625 351.07421875 80.078125 351.07421875 c 4
 74.21875 351.07421875 66.40625 348.14453125 58.59375 344.7265625 c 6
 16.6015625 327.1484375 l 5
 7.8125 353.515625 l 5
 53.7109375 374.51171875 134.27734375 404.296875 150.390625 404.296875 c 4xa8
 159.66796875 404.296875 166.9921875 400.87890625 166.9921875 391.6015625 c 4
 166.9921875 350.09765625 146.97265625 278.3203125 145.99609375 194.82421875 c 5
 145.99609375 194.82421875 259.27734375 395.5078125 319.82421875 395.5078125 c 4
 336.9140625 395.5078125 340.8203125 364.74609375 340.8203125 327.63671875 c 4
 340.8203125 276.85546875 334.9609375 200.1953125 334.9609375 200.1953125 c 5
 334.9609375 200.1953125 383.7890625 280.76171875 433.10546875 338.8671875 c 4
 461.42578125 372.0703125 491.69921875 397.94921875 508.7890625 397.94921875 c 4
 532.2265625 397.94921875 532.2265625 355.95703125 532.2265625 332.03125 c 4xca80
EndSplineSet
EndChar

StartChar: zero.lining
Encoding: 65550 -1 86
Width: 519
VWidth: 0
Flags: W
HStem: -10 39<200.24 323.628> 594 39<193.884 318.478>
VStem: 24 66<183.922 446.398> 424 76<183.27 454.13>
LayerCount: 3
Fore
SplineSet
24 326 m 0
 24 485 132 633 255 633 c 0
 419 633 500 477 500 319 c 0
 500 156 414 -10 253 -10 c 0
 81 -10 24 151 24 326 c 0
90 330 m 0
 90 184 149 29 262 29 c 0
 368 29 424 169 424 309 c 0
 424 499 340 594 256 594 c 0
 153 594 90 464 90 330 c 0
EndSplineSet
EndChar

StartChar: one.lining
Encoding: 65551 -1 87
Width: 335
VWidth: 0
Flags: W
HStem: 0 32<23 126.522 201.905 322> 569 32<31 125.945>
VStem: 128 71<35.3181 565.39>
LayerCount: 3
Fore
SplineSet
23 0 m 1
 23 32 l 1
 72 32 l 2
 122 32 128 34 128 65 c 2
 128 529 l 2
 128 565 123 569 85 569 c 2
 30 569 l 1
 31 601 l 1
 139 601 l 2
 176 601 180 622 190 641 c 1
 207 641 l 1
 207 641 199 505 199 410 c 2
 199 65 l 2
 199 27 218 34 322 32 c 1
 322 0 l 1
 23 0 l 1
EndSplineSet
Layer: 2
SplineSet
199.70703125 418.45703125 m 5xd0
 199.70703125 418.45703125 196.2890625 314.94140625 196.2890625 219.7265625 c 6
 196.2890625 62.5 l 6
 196.2890625 24.90234375 216.796875 34.1796875 295.41015625 31.73828125 c 5
 295.41015625 0 l 5
 30.76171875 0 l 5
 30.76171875 31.73828125 l 5
 121.58203125 32.71484375 125.9765625 27.34375 125.9765625 62.98828125 c 6
 125.9765625 329.58984375 l 6xe0
 125.9765625 343.75 125.9765625 360.3515625 92.28515625 360.3515625 c 4
 75.68359375 360.3515625 32.71484375 359.86328125 32.71484375 359.86328125 c 5
 33.203125 389.16015625 l 5
 136.71875 389.16015625 l 6
 173.828125 389.16015625 171.875 399.90234375 177.734375 418.45703125 c 5
 199.70703125 418.45703125 l 5xd0
EndSplineSet
EndChar

StartChar: two.lining
Encoding: 65552 -1 88
Width: 516
VWidth: 0
Flags: W
HStem: 0 42<140.006 353.891> 578 48<146.77 289.566>
VStem: 339 86<375.295 527.799>
LayerCount: 3
Fore
SplineSet
63 8 m 0
 63 20 105 51 182 141 c 0
 255 226 339 347 339 449 c 0
 339 560 255 578 222 578 c 0
 118 578 117 524 95 524 c 0
 87 524 84 529 84 535 c 0
 84 575 150 626 251 626 c 0
 356 626 425 547 425 463 c 0
 425 385 360 282 294 204 c 0
 220 118 140 55 140 46 c 0
 140 42 148 42 158 42 c 0
 344 42 446 93 464 93 c 0
 469 93 472 91 472 84 c 0
 472 78 459 12 449 6 c 0
 446 4 448 0 405 0 c 2
 87 0 l 2
 77 0 63 1 63 8 c 0
EndSplineSet
EndChar

StartChar: three.lining
Encoding: 65553 -1 89
Width: 472
VWidth: 0
Flags: W
HStem: -13 42<84.4856 282.343> 577 59<128.347 268.57>
VStem: 307 84<432.823 540.003> 352 86<96.2927 239.166>
LayerCount: 3
Fore
SplineSet
30 50 m 0xd0
 30 62 42 64 47 64 c 0
 67 64 97 29 195 29 c 0
 320 29 352 121 352 172 c 0xd0
 352 235 290 308 214 322 c 0
 183 328 163 323 163 340 c 0
 163 359 181 359 208 365 c 0
 292 385 307 460 307 488 c 0
 307 526 269 577 200 577 c 0
 112 577 99 534 76 534 c 0
 68 534 64 540 64 549 c 0
 64 566 113 636 227 636 c 0
 309 636 391 586 391 504 c 0xe0
 391 392 252 351 252 351 c 1
 252 351 438 323 438 178 c 0
 438 46 316 -13 201 -13 c 0
 112 -13 30 21 30 50 c 0xd0
EndSplineSet
EndChar

StartChar: four.lining
Encoding: 65554 -1 90
Width: 531
VWidth: 0
Flags: HMW
HStem: 160 62<115 337 407 494> 614 10G<398 403>
VStem: 337 70<-24 160 222 490>
LayerCount: 3
Fore
SplineSet
28 167 m 0
 28 193 107 256 386 612 c 0
 392 620 397 624 400 624 c 0
 406 624 407 612 407 599 c 2
 407 222 l 9
 515 222 l 25
 494 160 l 25
 407 160 l 25
 407 -24 l 25
 337 -40 l 25
 337 160 l 17
 42 160 l 2
 35 160 28 160 28 167 c 0
115 222 m 9
 337 222 l 25
 337 490 l 17
 115 222 l 9
EndSplineSet
EndChar

StartChar: five.lining
Encoding: 65555 -1 91
Width: 468
VWidth: 0
Flags: HMW
HStem: -9 37<64 241> 380 33<108 215> 565 45<119 321>
VStem: 75 32<414 552> 343 82<122 286>
LayerCount: 3
Fore
SplineSet
10 55 m 0
 10 63 21 65 21 65 c 0
 52 65 32 27 168 27 c 0
 266 27 343 114 343 204 c 0
 343 346 201 380 121 380 c 0
 107 380 93 379 78 378 c 1
 75 453 l 2
 71 583 65 569 65 600 c 0
 65 610 70 613 80 613 c 0
 106 613 180 610 227 610 c 0
 259 610 292 611 332 617 c 0
 348 619 349 655 349 655 c 1
 373 652 l 1
 361 570 l 2
 358 549 353 542 340 542 c 0
 300 542 156 565 143 565 c 0
 119 565 107 527 107 444 c 0
 107 415 113 414 129 414 c 0
 132 414 l 0
 155 414 169 417 197 417 c 0
 328 417 425 353 425 215 c 0
 425 142 376 -9 171 -9 c 0
 44 -9 10 45 10 55 c 0
EndSplineSet
Layer: 2
SplineSet
20.5078125 64.94140625 m 4
 51.26953125 64.94140625 32.2265625 27.34375 167.96875 27.34375 c 4
 265.625 27.34375 342.7734375 113.28125 342.7734375 203.61328125 c 4
 342.7734375 345.21484375 201.171875 380.37109375 121.09375 380.37109375 c 4
 106.93359375 380.37109375 92.28515625 379.39453125 77.63671875 377.9296875 c 5
 75.1953125 452.63671875 l 6
 71.2890625 582.51953125 64.94140625 568.84765625 64.94140625 600.09765625 c 4
 64.94140625 610.3515625 69.3359375 613.28125 79.58984375 613.28125 c 4
 105.46875 613.28125 180.17578125 609.86328125 227.05078125 609.86328125 c 4
 258.7890625 609.86328125 291.9921875 611.328125 331.54296875 617.1875 c 4
 347.65625 619.62890625 349.12109375 654.78515625 349.12109375 654.78515625 c 5
 373.046875 652.34375 l 5
 361.328125 570.3125 l 6
 358.3984375 549.8046875 353.02734375 541.9921875 339.84375 541.9921875 c 4
 300.29296875 541.9921875 155.76171875 564.94140625 142.578125 564.94140625 c 4
 118.1640625 564.94140625 106.93359375 526.85546875 106.93359375 444.3359375 c 4
 106.93359375 413.57421875 113.76953125 413.57421875 132.32421875 413.57421875 c 4
 155.76171875 413.57421875 168.9453125 416.9921875 197.265625 416.9921875 c 4
 328.125 416.9921875 424.8046875 352.5390625 424.8046875 214.84375 c 4
 424.8046875 142.08984375 375.9765625 -9.27734375 170.8984375 -9.27734375 c 4
 43.45703125 -9.27734375 10.25390625 44.921875 10.25390625 54.6875 c 4
 10.25390625 62.98828125 20.01953125 64.94140625 20.5078125 64.94140625 c 4
EndSplineSet
EndChar

StartChar: six.lining
Encoding: 65556 -1 92
Width: 507
VWidth: 0
Flags: W
HStem: -11 35<225.181 328.417> 344 52<198.681 313.063> 598 37<290.698 421.215>
VStem: 47 90<138.835 346.491> 384 79<104.843 266.181>
LayerCount: 3
Fore
SplineSet
47 274 m 0
 47 473 195 635 348 635 c 0
 364 635 434 624 434 603 c 0
 434 595 426 591 420 591 c 0
 412 591 395 598 370 598 c 0
 335 598 301 587 272 571 c 0
 135 496 130 318 122 299 c 1
 163 369 230 396 271 396 c 0
 454 396 463 221 463 209 c 0
 463 67 364 -11 262 -11 c 0
 122 -11 47 116 47 274 c 0
137 229 m 0
 137 115 208 24 277 24 c 0
 329 24 384 73 384 167 c 0
 384 275 323 344 247 344 c 0
 184 344 137 286 137 229 c 0
EndSplineSet
EndChar

StartChar: seven.lining
Encoding: 65557 -1 93
Width: 468
VWidth: 0
Flags: HMW
HStem: -8 10G<178 260> 608 10G<75 400>
VStem: 365 45<460 612>
LayerCount: 3
Fore
SplineSet
50 539 m 0
 50 555 55 583 61 611 c 0
 62 617 71 618 81 618 c 2
 393 618 l 2
 407 618 410 617 410 605 c 0
 410 546 374 386 346 276 c 0
 314 149 324 188 281 41 c 0
 268 -3 267 -8 253 -8 c 2
 184 -8 l 2
 173 -8 166 -2 166 5 c 0
 166 20 221 63 304 313 c 0
 342 425 365 523 365 547 c 0
 365 559 355 562 341 562 c 0
 307 562 208 552 153 543 c 0
 90 533 69 520 61 520 c 0
 53 520 50 523 50 539 c 0
EndSplineSet
Layer: 2
SplineSet
33.69140625 311.5234375 m 4
 33.69140625 327.1484375 38.57421875 355.95703125 44.43359375 383.7890625 c 4
 45.8984375 390.13671875 54.19921875 390.13671875 64.453125 390.13671875 c 6
 376.953125 390.13671875 l 6
 391.11328125 390.13671875 394.04296875 390.13671875 394.04296875 377.9296875 c 4
 394.04296875 238.28125 258.7890625 -259.765625 231.4453125 -259.765625 c 5
 184.5703125 -249.0234375 159.1796875 -250.48828125 159.1796875 -237.3046875 c 4
 159.1796875 -209.47265625 208.984375 -178.22265625 292.48046875 71.2890625 c 4
 330.56640625 183.59375 349.12109375 295.8984375 349.12109375 319.82421875 c 4
 349.12109375 332.03125 338.8671875 333.984375 325.1953125 333.984375 c 4
 291.015625 333.984375 191.40625 324.70703125 136.71875 315.91796875 c 4
 73.2421875 306.15234375 52.734375 292.48046875 44.921875 292.48046875 c 4
 37.109375 292.48046875 33.69140625 295.8984375 33.69140625 311.5234375 c 4
EndSplineSet
EndChar

StartChar: eight.lining
Encoding: 65558 -1 94
Width: 498
VWidth: 0
Flags: W
HStem: -12 37<176.899 318.68> 600 37<167.653 299.396>
VStem: 40 60<89.5188 220.445> 66 64<443.962 560.505> 362 57<425.469 546.577> 380 64<88.4698 207.186>
LayerCount: 3
Fore
SplineSet
40 150 m 0xe4
 40 257 172 313 185 321 c 1
 118 359 66 418 66 482 c 0
 66 577 143 637 250 637 c 0
 336 637 419 575 419 500 c 0xd8
 419 392 295 338 295 338 c 1
 319 325 444 271 444 170 c 0
 444 73 361 -12 242 -12 c 0
 132 -12 40 50 40 150 c 0xe4
100 155 m 0xe4
 100 74 182 25 251 25 c 0
 323 25 380 79 380 146 c 0
 380 219 315 248 211 307 c 1
 211 307 100 245 100 155 c 0xe4
130 502 m 0xd8
 130 419 258 356 258 356 c 1
 258 356 362 399 362 485 c 0
 362 547 299 600 237 600 c 0
 151 600 130 548 130 502 c 0xd8
EndSplineSet
EndChar

StartChar: nine.lining
Encoding: 65559 -1 95
Width: 479
VWidth: 0
Flags: W
HStem: 3 43<88.3771 249.017> 226 49<181.19 297.321> 604 31<170.823 260.922>
VStem: 35 74<355.796 521.514> 357 85<254.684 482.109> 373 69<209.032 302>
LayerCount: 3
Fore
SplineSet
33 77 m 0xf8
 33 87 38 92 46 92 c 0
 71 92 85 46 165 46 c 0
 354 46 373 302 373 302 c 1xf4
 373 302 311 226 200 226 c 0
 68 226 35 353 35 424 c 0
 35 541 118 635 223 635 c 0
 355 635 442 520 442 342 c 0
 442 170 355 3 182 3 c 0
 90 3 33 45 33 77 c 0xf8
109 449 m 0
 109 406 131 275 256 275 c 0
 324 275 357 320 357 374 c 0xf8
 357 475 297 604 217 604 c 0
 187 604 161 586 141 560 c 0
 121 534 109 502 109 449 c 0
EndSplineSet
EndChar

StartChar: dollar.lining
Encoding: 65560 -1 96
Width: 500
VWidth: 0
Flags: W
HStem: -8 30<154.685 230 262 307.459> 598 28<181.541 231 263 321.673> 691 20G<231 263>
VStem: 50 70<439.649 541.201> 230 32<-176 -8 23 277 371 598 626 711> 389 69<90.6608 203.17>
LayerCount: 3
Fore
SplineSet
23 133 m 0
 23 145 30 147 35 147 c 0
 69 147 34 64 180 28 c 0
 200 23 220 22 230 22 c 1
 230 290 l 1
 174 319 50 371 50 465 c 0
 50 612 231 626 231 626 c 1
 231 711 l 1
 263 711 l 1
 263 626 l 1
 371 614 364 611 373 611 c 0
 379 611 402 618 403 618 c 0
 415 618 413 604 421 551 c 0
 421 546 424 527 424 525 c 2
 424 517 l 2
 424 512 423 507 417 507 c 0
 404 507 395 523 384 538 c 0
 343 595 263 598 263 598 c 1
 263 358 l 1
 371 302 458 277 458 173 c 0
 458 12 262 -7 262 -7 c 1
 262 -176 l 1
 230 -176 l 1
 230 -8 l 1
 230 -8 117 -6 62 18 c 0
 37 29 37 32 31 77 c 0
 28 102 23 128 23 133 c 0
120 496 m 0
 120 422 231 371 231 371 c 1
 231 598 l 1
 231 598 120 590 120 496 c 0
262 23 m 1
 262 23 296 26 330 48 c 0
 352 62 389 100 389 146 c 0
 389 230 262 277 262 277 c 1
 262 23 l 1
EndSplineSet
Layer: 2
SplineSet
258.30078125 356.93359375 m 1
 366.2109375 299.31640625 447.75390625 274.90234375 447.75390625 172.8515625 c 0
 447.75390625 19.53125 269.53125 -4.8828125 257.32421875 -4.8828125 c 1
 257.32421875 -173.33984375 l 1
 225.5859375 -173.33984375 l 1
 225.5859375 -5.37109375 l 1
 157.2265625 -5.37109375 89.84375 6.8359375 60.05859375 20.01953125 c 0
 36.62109375 30.2734375 37.109375 33.203125 31.25 77.63671875 c 0
 28.80859375 97.16796875 23.4375 128.41796875 23.4375 132.8125 c 0
 23.4375 141.6015625 26.85546875 145.01953125 32.2265625 145.01953125 c 0
 62.01171875 145.01953125 31.25 62.01171875 175.78125 25.87890625 c 0
 190.4296875 22.4609375 205.56640625 20.01953125 225.5859375 20.01953125 c 1
 225.5859375 292.96875 l 1
 171.38671875 321.2890625 49.8046875 372.0703125 49.8046875 464.84375 c 0
 49.8046875 604.98046875 213.8671875 623.53515625 226.5625 623.53515625 c 1
 226.5625 708.49609375 l 1
 258.30078125 708.49609375 l 1
 258.30078125 624.0234375 l 1
 368.1640625 611.81640625 356.93359375 608.88671875 365.234375 608.88671875 c 0
 372.55859375 608.88671875 392.08984375 615.234375 395.5078125 615.72265625 c 1
 404.78515625 615.72265625 403.80859375 602.5390625 411.1328125 550.78125 c 0
 412.109375 545.41015625 414.0625 526.85546875 414.0625 524.90234375 c 2
 414.0625 517.08984375 l 2
 414.0625 511.71875 413.0859375 509.765625 409.66796875 509.765625 c 0
 398.92578125 509.765625 391.6015625 521.484375 378.90625 539.0625 c 0
 342.7734375 589.84375 275.390625 600.5859375 258.30078125 600.5859375 c 1
 258.30078125 356.93359375 l 1
115.234375 495.60546875 m 0
 115.234375 420.8984375 220.703125 372.0703125 226.5625 368.1640625 c 1
 226.5625 600.5859375 l 1
 210.44921875 600.5859375 115.234375 584.47265625 115.234375 495.60546875 c 0
383.7890625 145.99609375 m 0
 383.7890625 231.93359375 261.23046875 279.296875 259.765625 279.78515625 c 1
 257.32421875 279.78515625 l 1
 257.32421875 20.5078125 l 1
 374.0234375 43.9453125 383.7890625 126.46484375 383.7890625 145.99609375 c 0
395.5078125 615.72265625 m 1
 395.5078125 615.72265625 l 1
EndSplineSet
EndChar

StartChar: zero.denom
Encoding: 65571 -1 107
Width: 410
VWidth: 0
Flags: W
HStem: -13 34<157.515 256.817> 405 35<147.477 250.076>
VStem: 16 62<115.613 322.856> 318 73<109.456 323.061>
LayerCount: 3
Fore
SplineSet
16 224 m 0
 16 345 106 440 199 440 c 0
 324 440 391 330 391 219 c 0
 391 95 316 -13 201 -13 c 0
 92 -13 16 76 16 224 c 0
78 226 m 0
 78 136 124 21 207 21 c 0
 298 21 318 141 318 212 c 0
 318 341 261 405 200 405 c 0
 127 405 78 317 78 226 c 0
EndSplineSet
EndChar

StartChar: one.denom
Encoding: 65572 -1 108
Width: 262
VWidth: 0
Flags: W
HStem: 0 29<18 94.3718 161.72 252> 393 28<23 94.9443>
VStem: 96 64<30.88 392.712>
LayerCount: 3
Fore
SplineSet
18 0 m 1
 18 29 l 1
 83 30 96 25 96 57 c 2
 96 366 l 2
 96 390 91 393 63 393 c 2
 22 393 l 1
 23 421 l 1
 111 421 l 2
 141 421 144 437 152 450 c 1
 166 449 l 1
 166 449 160 356 160 290 c 2
 160 57 l 2
 160 26 173 30 252 29 c 1
 252 0 l 1
 18 0 l 1
EndSplineSet
EndChar

StartChar: two.denom
Encoding: 65573 -1 109
Width: 399
VWidth: 0
Flags: W
HStem: 0 38<125.004 305.964> 395 43<102.845 226.633>
VStem: 255 82<240.295 367.742>
LayerCount: 3
Fore
SplineSet
48 6 m 0
 48 19 255 179 255 307 c 0
 255 383 192 395 167 395 c 0
 89 395 88 359 71 359 c 0
 65 359 63 363 63 368 c 0
 63 399 115 438 194 438 c 0
 284 438 337 383 337 312 c 0
 337 187 125 52 125 41 c 0
 125 39 131 38 139 38 c 0
 285 38 347 72 361 72 c 0
 365 72 367 70 367 64 c 0
 367 59 357 9 349 4 c 0
 347 2 348 0 314 0 c 2
 66 0 l 2
 58 0 48 1 48 6 c 0
EndSplineSet
EndChar

StartChar: three.denom
Encoding: 65574 -1 110
Width: 367
VWidth: 0
Flags: W
HStem: -11 35<60.1099 215.264> 397 43<87.2188 200.258>
VStem: 221 79<296.58 376.64> 259 78<60.9062 174.779>
LayerCount: 3
Fore
SplineSet
22 38 m 0xd0
 22 48 31 49 35 49 c 0
 50 49 72 24 146 24 c 0
 240 24 259 88 259 122 c 0xd0
 259 164 217 213 158 222 c 0
 134 226 119 223 119 234 c 0
 119 247 132 247 152 251 c 0
 214 264 221 314 221 333 c 0
 221 358 196 397 146 397 c 0
 82 397 73 364 56 364 c 0
 50 364 47 368 47 375 c 0
 47 389 85 440 173 440 c 0
 236 440 300 410 300 351 c 0xe0
 300 270 184 242 184 242 c 1
 184 242 337 225 337 121 c 0
 337 29 246 -11 156 -11 c 0
 86 -11 22 15 22 38 c 0xd0
EndSplineSet
EndChar

StartChar: four.denom
Encoding: 65575 -1 111
Width: 409
VWidth: 0
Flags: W
HStem: -10 21G<253 316> 120 56<110 253 316 381>
VStem: 253 63<-10 120 176 341>
LayerCount: 3
Fore
SplineSet
31 125 m 0
 31 144 82 178 299 437 c 0
 304 443 309 444 311 444 c 0
 316 444 316 436 316 427 c 2
 316 176 l 9
 397 176 l 25
 381 120 l 25
 316 120 l 25
 316 -10 l 25
 253 -10 l 25
 253 120 l 17
 41 120 l 2
 36 120 31 120 31 125 c 0
110 176 m 9
 253 176 l 25
 253 341 l 17
 110 176 l 9
EndSplineSet
EndChar

StartChar: five.denom
Encoding: 65576 -1 112
Width: 356
VWidth: 0
Flags: HMW
HStem: -8 33<54 190> 262 30<86 171> 387 41<91 242>
VStem: 48 37<292 386> 250 76<80 208>
LayerCount: 3
Fore
SplineSet
18 42 m 0
 18 48 25 50 25 50 c 0
 47 50 33 25 132 25 c 0
 203 25 250 83 250 144 c 0
 250 239 146 262 88 262 c 0
 78 262 63 261 52 260 c 1
 49 342 48 379 48 407 c 0
 48 428 49 431 60 431 c 0
 79 431 133 428 167 428 c 0
 190 428 214 429 243 433 c 0
 255 435 256 459 256 459 c 1
 277 458 l 1
 269 395 l 2
 267 379 263 373 253 373 c 0
 224 373 121 387 111 387 c 0
 93 387 85 364 85 312 c 0
 85 292 88 292 102 292 c 0
 120 292 130 295 151 295 c 0
 238 295 327 249 327 151 c 0
 327 99 280 -8 140 -8 c 0
 43 -8 18 34 18 42 c 0
EndSplineSet
EndChar

StartChar: six.denom
Encoding: 65577 -1 113
Width: 405
VWidth: 0
Flags: W
HStem: -10 32<173.861 267.964> 233 46<150.539 262.656> 412 33<225.72 337.891>
VStem: 36 75<86.5158 247.435> 307 66<65.3347 188.517>
LayerCount: 3
Fore
SplineSet
36 191 m 0
 36 331 154 445 277 445 c 0
 290 445 347 435 347 416 c 0
 347 409 341 406 336 406 c 0
 330 406 316 412 296 412 c 0
 269 412 243 404 220 393 c 0
 113 341 104 217 98 204 c 1
 130 259 188 279 220 279 c 0
 365 279 373 155 373 147 c 0
 373 46 293 -10 210 -10 c 0
 97 -10 36 80 36 191 c 0
111 157 m 0
 111 87 164 22 222 22 c 0
 264 22 307 58 307 117 c 0
 307 189 256 233 199 233 c 0
 152 233 111 195 111 157 c 0
EndSplineSet
EndChar

StartChar: seven.denom
Encoding: 65578 -1 114
Width: 358
VWidth: 0
Flags: HMW
HStem: -7 10G<131 198> 382 51<89 270>
VStem: 270 50<307 428>
LayerCount: 3
Back
SplineSet
37.109375 361.81640625 m 4xd0
 37.109375 375.9765625 41.015625 401.85546875 45.41015625 426.7578125 c 4
 46.38671875 432.6171875 53.22265625 432.6171875 61.03515625 432.6171875 c 6xd0
 306.640625 432.6171875 l 6
 317.3828125 432.6171875 319.3359375 432.6171875 319.3359375 423.828125 c 4
 319.3359375 362.3046875 251.46484375 145.5078125 242.67578125 116.2109375 c 5
 213.8671875 27.34375 l 6
 203.61328125 -3.41796875 203.61328125 -6.8359375 192.3828125 -6.8359375 c 6
 135.7421875 -6.8359375 l 6
 126.953125 -6.8359375 122.0703125 -2.9296875 122.0703125 1.953125 c 4
 122.0703125 11.71875 163.57421875 41.9921875 226.07421875 212.40234375 c 5
 254.8828125 289.0625 269.53125 355.95703125 269.53125 372.0703125 c 4
 269.53125 380.37109375 261.71875 381.8359375 251.46484375 381.8359375 c 4xb0
 225.5859375 381.8359375 155.76171875 373.53515625 114.74609375 365.72265625 c 4
 66.89453125 356.93359375 51.7578125 344.7265625 45.8984375 344.7265625 c 4
 40.0390625 344.7265625 37.109375 347.65625 37.109375 361.81640625 c 4xd0
EndSplineSet
Fore
SplineSet
37 362 m 0
 37 376 41 402 45 427 c 0
 46 433 53 433 61 433 c 2
 307 433 l 2
 318 433 319 433 319 424 c 0
 319 362 252 145 243 116 c 2
 214 27 l 2
 204 -4 203 -7 192 -7 c 2
 136 -7 l 2
 127 -7 122 -3 122 2 c 0
 122 12 163 42 226 212 c 0
 254 289 270 356 270 372 c 0
 270 380 261 382 251 382 c 0
 225 382 156 374 115 366 c 0
 67 357 52 345 46 345 c 0
 40 345 37 348 37 362 c 0
EndSplineSet
EndChar

StartChar: eight.denom
Encoding: 65579 -1 115
Width: 376
VWidth: 0
Flags: W
HStem: -12 30<130.984 238.897> 416 30<136.379 232.672>
VStem: 28 55<52.2494 157.515> 49 64<298.373 398.802> 268 46<290.334 389.636> 272 67<48.7272 150.068>
LayerCount: 3
Fore
SplineSet
28 98 m 0xe4
 28 181 131 215 142 221 c 1
 89 247 49 285 49 337 c 0
 49 404 110 446 189 446 c 0
 252 446 314 403 314 350 c 0xd8
 314 273 226 242 226 242 c 1
 245 233 339 192 339 117 c 0
 339 49 283 -12 184 -12 c 0
 80 -12 28 42 28 98 c 0xe4
83 107 m 0xe4
 83 58 129 18 185 18 c 0
 186 18 187 18 188 18 c 0
 254 19 272 65 272 95 c 0
 272 154 219 177 159 211 c 1
 148 205 83 166 83 107 c 0xe4
113 350 m 0xd8
 113 284 204 253 204 253 c 1
 204 253 268 276 268 335 c 0
 268 391 221 416 181 416 c 0
 130 416 113 380 113 350 c 0xd8
EndSplineSet
Layer: 2
SplineSet
146.97265625 223.6328125 m 5xe4
 93.75 250 53.7109375 291.9921875 53.7109375 337.40234375 c 4
 53.7109375 404.296875 110.3515625 446.2890625 189.453125 446.2890625 c 4
 252.9296875 446.2890625 314.453125 402.83203125 314.453125 349.609375 c 4xd8
 314.453125 272.94921875 218.75 235.83984375 218.75 235.83984375 c 5
 237.79296875 226.5625 336.9140625 187.98828125 336.9140625 117.1875 c 4
 336.9140625 48.828125 273.92578125 -10.25390625 183.59375 -10.25390625 c 4
 100.09765625 -10.25390625 30.2734375 33.203125 30.2734375 103.515625 c 4
 30.2734375 179.19921875 136.23046875 217.7734375 146.97265625 223.6328125 c 5xe4
188.96484375 22.94921875 m 4
 239.2578125 22.94921875 278.3203125 59.08203125 278.3203125 104.98046875 c 4
 278.3203125 154.78515625 234.375 173.828125 164.0625 213.8671875 c 5
 164.0625 213.8671875 83.984375 171.875 83.984375 110.83984375 c 4xe4
 83.984375 55.6640625 140.625 22.94921875 188.96484375 22.94921875 c 4
194.3359375 247.55859375 m 5
 194.3359375 247.55859375 262.6953125 276.85546875 262.6953125 335.44921875 c 4
 262.6953125 377.44140625 221.19140625 413.0859375 181.15234375 413.0859375 c 4
 125 413.0859375 111.328125 377.9296875 111.328125 346.6796875 c 4xd8
 111.328125 290.0390625 194.3359375 247.55859375 194.3359375 247.55859375 c 5
EndSplineSet
EndChar

StartChar: nine.denom
Encoding: 65580 -1 116
Width: 383
VWidth: 0
Flags: W
HStem: -3 39<63.5559 207.475> 152 45<137.534 244.422> 419 29<133.215 216.222>
VStem: 27 67<241.928 372.423> 281 76<169.828 347.373> 292 65<123.471 283.579>
LayerCount: 3
Fore
SplineSet
27 292 m 0xf4
 27 370 84 448 178 448 c 0
 285 448 357 365 357 238 c 0xf8
 357 60 239 -3 144 -3 c 0
 73 -3 30 30 30 54 c 0
 30 62 34 65 40 65 c 0
 60 65 71 36 134 36 c 0
 248 36 292 144 292 207 c 0
 292 212 291 215 291 215 c 1
 291 215 252 152 160 152 c 0
 80 152 27 217 27 292 c 0xf4
94 314 m 0
 94 285 110 197 204 197 c 0
 255 197 281 227 281 264 c 0
 281 342 234 419 174 419 c 0
 147 419 94 396 94 314 c 0
EndSplineSet
EndChar

StartChar: slash
Encoding: 47 47 137
Width: 415
VWidth: 488
Flags: W
HStem: 686 20G<338.721 393>
DStem2: 5 -231 52 -231 0.341985 0.939706<16.0733 997.121>
LayerCount: 3
Fore
SplineSet
5 -231 m 1
 346 706 l 1
 393 706 l 1
 52 -231 l 1
 5 -231 l 1
EndSplineSet
Layer: 2
SplineSet
-4.8828125 -258.7890625 m 5
 353.02734375 724.609375 l 5
 399.4140625 724.609375 l 5
 41.50390625 -258.7890625 l 5
 -4.8828125 -258.7890625 l 5
EndSplineSet
AlternateSubs2: "'aalt' Access All Alternates lookup 0 subtable" fraction
AlternateSubs2: "'aalt' Access All Alternates in Latin lookup 0 subtable" fraction
Substitution2: "numerators subtable" fraction
EndChar

StartChar: fraction
Encoding: 8260 8260 138
Width: 415
VWidth: 488
Flags: W
DStem2: -41 -47 -7 -71 0.574282 0.818657<0 900.132>
LayerCount: 3
Fore
SplineSet
-41 -47 m 1
 476 690 l 1
 510 666 l 1
 -7 -71 l 1
 -41 -47 l 1
EndSplineSet
EndChar

StartChar: bar
Encoding: 124 124 139
Width: 415
VWidth: 488
Flags: W
HStem: 686 20G<182 226>
VStem: 182 44<-231 706>
LayerCount: 3
Fore
SplineSet
182 -231 m 1
 182 706 l 1
 226 706 l 1
 226 -231 l 1
 182 -231 l 1
EndSplineSet
EndChar

StartChar: at
Encoding: 64 64 140
Width: 735
VWidth: 0
Flags: W
HStem: -92 40<258.406 470.198> 58 53<280.183 362.202> 259 27<335.763 401> 450 36<234.428 365.953>
VStem: 39 68<95.0271 309.818> 200 71<120.638 201.121> 401 71<127.969 259 286 418.412> 633 39<106.759 321.197>
LayerCount: 3
Fore
SplineSet
39 197 m 0
 39 342 140 486 332 486 c 0
 415 486 472 420 472 340 c 2
 472 197 l 2
 472 154 478 122 536 106 c 0
 543 104 546 101 546 98 c 0
 546 95 543 91 536 87 c 0
 513 72 480 52 477 51 c 1
 442 76 431 96 410 122 c 1
 384 87 337 58 293 58 c 0
 251 58 200 79 200 133 c 0
 200 215 288 286 401 286 c 1
 401 365 l 2
 401 391 380 450 312 450 c 0
 183 450 107 327 107 203 c 0
 107 76 186 -52 368 -52 c 0
 501 -52 633 27 633 214 c 0
 633 399 497 450 497 469 c 0
 497 472 499 480 507 480 c 0
 528 480 672 412 672 214 c 0
 672 2 512 -92 351 -92 c 0
 140 -92 39 52 39 197 c 0
271 163 m 0
 271 136 286 111 330 111 c 0
 389 111 401 145 401 167 c 2
 401 259 l 1
 318 259 271 207 271 163 c 0
EndSplineSet
EndChar

StartChar: parenleft
Encoding: 40 40 141
Width: 338
VWidth: 0
Flags: W
VStem: 45 67<83.6821 385.185>
LayerCount: 3
Fore
SplineSet
45 229 m 0
 45 548 281 686 281 686 c 1
 297 667 l 1
 297 667 112 523 112 233 c 0
 112 -67 287 -200 287 -200 c 1
 269 -221 l 1
 269 -221 45 -45 45 229 c 0
EndSplineSet
EndChar

StartChar: parenright
Encoding: 41 41 142
Width: 338
VWidth: 0
Flags: W
VStem: 230 67<83.6821 385.185>
LayerCount: 3
Fore
SplineSet
45 667 m 1
 61 686 l 1
 61 686 297 548 297 229 c 0
 297 -45 73 -221 73 -221 c 1
 56 -200 l 1
 56 -200 230 -67 230 233 c 0
 230 523 45 667 45 667 c 1
EndSplineSet
EndChar

StartChar: asterisk
Encoding: 42 42 143
Width: 460
VWidth: 0
Flags: W
HStem: 424 58<195.674 212 244.078 260.488>
VStem: 183 84<262.169 381.359 540.429 651.058> 195 67<439.557 462.078> 212 28<362.208 421.981 482.139 528.725>
LayerCount: 3
Fore
SplineSet
44 371 m 0x90
 44 424 195 434 195 451 c 0xa0
 195 477 45 464 45 530 c 0
 45 561 76 570 84 570 c 0
 118 570 192 482 212 482 c 0x90
 216 482 216 486 216 491 c 0
 216 517 185 594 185 610 c 0
 185 641 207 659 229 659 c 0
 249 659 273 647 273 604 c 0
 273 582 244 507 244 485 c 0
 244 480 245 478 249 478 c 0
 270 478 330 566 372 566 c 0
 395 566 411 552 411 534 c 0
 411 465 262 471 262 451 c 0xa0
 262 428 402 430 402 367 c 0
 402 349 392 331 370 331 c 0
 325 331 258 422 245 422 c 0
 244 422 240 421 240 411 c 0x90
 240 385 267 322 267 298 c 0
 267 273 247 256 226 256 c 0
 205 256 183 274 183 295 c 0xc0
 183 318 212 403 212 420 c 0
 212 422 212 424 210 424 c 0
 196 424 126 334 80 334 c 0
 55 334 44 357 44 371 c 0x90
EndSplineSet
EndChar

StartChar: bracketleft
Encoding: 91 91 144
Width: 400
VWidth: 0
Flags: W
HStem: -231 29<144 303> 676 30<144 303>
VStem: 82 62<-202 676>
LayerCount: 3
Fore
SplineSet
82 -231 m 1
 82 706 l 1
 303 706 l 1
 303 676 l 1
 144 676 l 1
 144 -202 l 1
 303 -202 l 1
 303 -231 l 1
 82 -231 l 1
EndSplineSet
EndChar

StartChar: backslash
Encoding: 92 92 145
Width: 415
VWidth: 488
Flags: W
HStem: 686 20G<5 59.2785>
DStem2: 52 706 5 706 0.341985 -0.939706<0 981.048>
LayerCount: 3
Fore
SplineSet
5 706 m 1
 52 706 l 1
 393 -231 l 1
 346 -231 l 1
 5 706 l 1
EndSplineSet
EndChar

StartChar: bracketright
Encoding: 93 93 146
Width: 404
VWidth: 0
Flags: W
HStem: -231 29<82 241> 676 30<82 241>
VStem: 241 62<-202 676>
LayerCount: 3
Fore
SplineSet
82 -202 m 1
 241 -202 l 1
 241 676 l 1
 82 676 l 1
 82 706 l 1
 303 706 l 1
 303 -231 l 1
 82 -231 l 1
 82 -202 l 1
EndSplineSet
EndChar

StartChar: plus
Encoding: 43 43 147
Width: 843
VWidth: 0
Flags: W
HStem: 206 58<116 393 442 719>
VStem: 388 59<-67 210 260 537>
LayerCount: 3
Fore
SplineSet
116 206 m 1
 116 264 l 1
 365 264 393 260 393 260 c 1
 393 260 388 273 388 537 c 1
 447 537 l 1
 447 273 442 260 442 260 c 1
 442 260 472 264 719 264 c 1
 719 206 l 1
 472 206 442 210 442 210 c 1
 442 210 447 180 447 -67 c 1
 388 -67 l 1
 388 180 393 210 393 210 c 1
 393 210 365 206 116 206 c 1
EndSplineSet
EndChar

StartChar: braceright
Encoding: 125 125 148
Width: 308
VWidth: 488
Flags: W
HStem: -231 29<34 86.403> 230 19<242.281 281> 677 29<34 86.0692>
VStem: 133 65<-150.291 203.185 273.927 623.12>
LayerCount: 3
Fore
SplineSet
34 -202 m 1
 131 -202 138 -112 138 -29 c 0
 138 26 133 71 133 114 c 0
 133 178 150 221 200 240 c 1
 150 259 133 299 133 365 c 0
 133 409 137 454 137 509 c 0
 137 591 130 677 34 677 c 1
 34 706 l 1
 157 706 202 612 202 503 c 0
 202 458 198 417 198 381 c 0
 198 254 236 258 281 249 c 1
 281 230 l 1
 241 221 198 229 198 98 c 0
 198 61 202 20 202 -24 c 0
 202 -144 158 -231 34 -231 c 1
 34 -202 l 1
EndSplineSet
EndChar

StartChar: percent
Encoding: 37 37 149
Width: 870
VWidth: 0
Flags: W
HStem: -11 41<484.259 588.936> 270 40<600.377 698.667> 306 41<166.693 270.958> 577 33<418 620.933> 586 40<283.377 432.102>
VStem: 115 43<355.512 458.085> 389 48<472.383 579.162> 432 43<39.3215 142.201> 707 47<155.777 262.161>
DStem2: 103 -18 142 -40 0.681659 0.73167<10.488 878.678>
LayerCount: 3
Fore
SplineSet
94 -33 m 0x9680
 94 -30 96 -26 103 -18 c 2
 704 623 l 1
 682 612 604 577 490 577 c 0x9680
 468 577 443 580 418 583 c 1
 430 564 437 541 437 510 c 0
 437 398 335 306 232 306 c 0
 152 306 115 361 115 423 c 0
 115 543 240 626 326 626 c 0xae80
 371 626 373 610 488 610 c 0
 638 610 751 666 779 666 c 0
 783 666 787 665 787 661 c 0
 787 654 778 643 769 633 c 2
 142 -40 l 1
 111 -40 l 2
 101 -40 94 -39 94 -33 c 0x9680
158 397 m 0
 158 371 173 347 209 347 c 0
 300 347 389 474 389 542 c 0
 389 568 368 586 340 586 c 0xae80
 273 586 158 468 158 397 c 0
432 107 m 0xc580
 432 228 557 310 643 310 c 0
 704 310 754 275 754 193 c 0
 754 81 653 -11 550 -11 c 0
 470 -11 432 45 432 107 c 0xc580
475 81 m 0
 475 55 491 30 527 30 c 0
 618 30 707 158 707 226 c 0
 707 252 685 270 657 270 c 0
 590 270 475 152 475 81 c 0
EndSplineSet
Layer: 2
SplineSet
345.21484375 636.71875 m 0
 402.83203125 636.71875 407.2265625 616.2109375 555.6640625 616.2109375 c 0
 749.51171875 616.2109375 896.484375 688.96484375 932.12890625 688.96484375 c 0
 937.5 688.96484375 940.4296875 687.5 940.4296875 683.59375 c 0
 940.4296875 675.78125 931.15234375 662.59765625 917.96875 648.4375 c 2
 106.4453125 -228.515625 l 1
 67.3828125 -228.515625 l 2
 52.24609375 -228.515625 46.38671875 -226.07421875 46.38671875 -220.703125 c 0
 46.38671875 -216.30859375 50.78125 -209.9609375 58.10546875 -202.1484375 c 2
 841.796875 638.671875 l 1
 841.796875 638.671875 733.3984375 575.1953125 557.6171875 575.1953125 c 0
 527.34375 575.1953125 495.1171875 578.125 460.9375 583.0078125 c 1
 478.02734375 559.08203125 487.79296875 527.34375 487.79296875 485.83984375 c 0
 487.79296875 341.796875 355.95703125 223.14453125 224.609375 223.14453125 c 0
 122.0703125 223.14453125 73.73046875 293.9453125 73.73046875 374.51171875 c 0
 73.73046875 529.78515625 234.86328125 636.71875 345.21484375 636.71875 c 0
305.6640625 507.32421875 m 0
 305.6640625 414.55078125 232.91015625 280.2734375 158.69140625 280.2734375 c 0
 104.98046875 280.2734375 83.0078125 323.2421875 83.0078125 376.46484375 c 0
 83.0078125 491.69921875 173.828125 601.5625 239.74609375 601.5625 c 0
 269.53125 601.5625 414.0625 613.28125 455.078125 725.5859375 c 1
 495.1171875 708.49609375 l 1
 108.3984375 -190.91796875 l 1
 73.2421875 -175.29296875 l 1
 418.9453125 619.62890625 l 1
 397.94921875 605.46875 346.6796875 572.265625 274.4140625 567.87109375 c 1
 300.29296875 554.6875 305.6640625 517.08984375 305.6640625 507.32421875 c 0
194.82421875 272.4609375 m 0
 313.4765625 272.4609375 429.19921875 437.98828125 429.19921875 528.3203125 c 0
 429.19921875 562.5 402.34375 587.40234375 363.28125 587.40234375 c 0
 275.87890625 587.40234375 125.9765625 433.10546875 125.9765625 339.84375 c 0
 125.9765625 305.17578125 147.4609375 272.4609375 194.82421875 272.4609375 c 0
238.76953125 553.7109375 m 0
 193.84765625 553.7109375 139.6484375 436.5234375 139.6484375 369.140625 c 0
 139.6484375 349.609375 145.01953125 328.125 165.0390625 328.125 c 0
 214.35546875 328.125 269.53125 441.40625 269.53125 508.7890625 c 0
 269.53125 531.25 263.18359375 553.7109375 238.76953125 553.7109375 c 0
424.8046875 222.65625 m 0
 473.14453125 222.65625 492.1875 186.5234375 492.1875 139.16015625 c 0
 492.1875 46.875 417.96875 -97.65625 343.75 -97.65625 c 0
 290.0390625 -97.65625 268.5546875 -55.17578125 268.5546875 -1.953125 c 0
 268.5546875 112.3046875 357.91015625 222.65625 424.8046875 222.65625 c 0
423.828125 175.78125 m 0
 379.8828125 175.78125 325.1953125 60.05859375 325.1953125 -9.27734375 c 0
 325.1953125 -29.296875 330.078125 -50.78125 350.09765625 -50.78125 c 0
 399.90234375 -50.78125 455.078125 63.96484375 455.078125 130.37109375 c 0
 455.078125 152.83203125 448.2421875 175.78125 423.828125 175.78125 c 0
897.94921875 74.21875 m 0
 897.94921875 -69.82421875 766.11328125 -188.4765625 634.765625 -188.4765625 c 0
 532.2265625 -188.4765625 483.88671875 -117.67578125 483.88671875 -37.109375 c 0
 483.88671875 118.1640625 645.01953125 225.09765625 755.37109375 225.09765625 c 0
 833.49609375 225.09765625 897.94921875 179.19921875 897.94921875 74.21875 c 0
604.98046875 -139.16015625 m 0
 723.6328125 -139.16015625 839.35546875 26.3671875 839.35546875 116.69921875 c 0
 839.35546875 150.87890625 812.5 175.78125 773.4375 175.78125 c 0
 686.03515625 175.78125 536.1328125 21.484375 536.1328125 -71.77734375 c 0
 536.1328125 -106.4453125 557.6171875 -139.16015625 604.98046875 -139.16015625 c 0
EndSplineSet
EndChar

StartChar: sterling
Encoding: 163 163 150
Width: 562
VWidth: 0
Flags: W
HStem: -15 40<357.031 427.073> 98 25<192 273.387> 245 39<91 198 267 386> 628 33<307.664 388.382>
VStem: 189 83<285.927 533.078> 198 69<284 392.996> 402 80<529.329 619.376> 434 45<32.5897 107.84>
LayerCount: 3
Fore
SplineSet
81 23 m 0xf5
 81 74 156 94 184 113 c 1
 199 129 205 187 205 216 c 0
 205 218 203 229 202 245 c 1
 91 245 l 1
 91 284 l 1
 198 284 l 1xf5
 194 325 189 373 189 394 c 0
 189 575 270 661 373 661 c 0
 429 661 482 621 482 570 c 0
 482 542 464 523 444 523 c 0
 426 523 409 535 402 572 c 0
 396 600 392 628 350 628 c 0
 318 628 271 602 271 518 c 0
 271 491 272 446 272 359 c 0xfa
 272 332 270 307 267 284 c 1
 386 284 l 1
 386 245 l 1
 261 245 l 1
 245 168 217 120 217 120 c 1
 217 120 222 123 229 123 c 0
 315 123 345 25 398 25 c 0
 419 25 434 48 434 69 c 0
 434 102 394 111 394 144 c 0
 394 161 406 181 425 181 c 0
 457 181 479 137 479 98 c 0
 479 38 431 -15 360 -15 c 0
 297 -15 281 26 249 67 c 0
 232 88 220 98 209 98 c 0
 175 98 175 -13 115 -13 c 0
 95 -13 81 4 81 23 c 0xf5
EndSplineSet
Layer: 2
SplineSet
382.8125 733.88671875 m 4
 445.3125 733.88671875 504.39453125 689.453125 504.39453125 632.8125 c 4
 504.39453125 602.05078125 484.375 581.0546875 461.9140625 581.0546875 c 4
 442.3828125 581.0546875 423.33984375 593.75 415.0390625 634.765625 c 4
 408.69140625 665.52734375 403.80859375 697.265625 357.421875 697.265625 c 4
 322.265625 697.265625 269.04296875 667.48046875 269.04296875 574.21875 c 4
 269.04296875 544.43359375 270.99609375 495.1171875 270.99609375 398.4375 c 4
 270.99609375 368.65234375 268.5546875 340.33203125 265.13671875 314.94140625 c 5
 396.97265625 314.94140625 l 5
 396.97265625 270.99609375 l 5
 257.8125 270.99609375 l 5
 239.74609375 186.03515625 209.47265625 132.8125 209.47265625 132.8125 c 5
 209.47265625 132.8125 215.33203125 136.23046875 223.14453125 136.23046875 c 4
 318.84765625 136.23046875 351.5625 27.34375 410.15625 27.34375 c 4
 434.08203125 27.34375 449.70703125 52.24609375 449.70703125 76.171875 c 4
 449.70703125 112.3046875 405.2734375 123.046875 405.2734375 159.1796875 c 4
 405.2734375 177.734375 419.43359375 200.1953125 440.4296875 200.1953125 c 4
 475.5859375 200.1953125 500.9765625 151.85546875 500.9765625 108.3984375 c 4
 500.9765625 42.48046875 446.77734375 -17.08984375 368.1640625 -17.08984375 c 4
 297.8515625 -17.08984375 280.2734375 28.3203125 244.62890625 73.73046875 c 4
 226.07421875 97.65625 211.9140625 108.3984375 200.1953125 108.3984375 c 4
 162.109375 108.3984375 162.109375 -15.625 95.703125 -15.625 c 4
 74.21875 -15.625 58.10546875 3.90625 58.10546875 24.90234375 c 4
 58.10546875 82.03125 142.08984375 104.00390625 172.8515625 124.51171875 c 5
 188.96484375 142.08984375 195.3125 206.54296875 195.3125 239.2578125 c 4
 195.3125 241.69921875 193.84765625 253.90625 192.3828125 270.99609375 c 5
 68.84765625 270.99609375 l 5
 68.84765625 314.94140625 l 5
 187.98828125 314.94140625 l 5
 183.59375 360.3515625 178.7109375 413.57421875 178.7109375 436.5234375 c 4
 178.7109375 637.20703125 268.5546875 733.88671875 382.8125 733.88671875 c 4
EndSplineSet
EndChar

StartChar: less
Encoding: 60 60 151
Width: 761
VWidth: 10
Flags: W
DStem2: 59 255 163 244 0.901873 0.432001<89.0428 684.017> 163 244 59 233 0.901873 -0.432001<0 594.974>
LayerCount: 3
Fore
SplineSet
59 255 m 1
 702 563 l 1
 702 496 l 1
 163 244 l 1
 702 -8 l 1
 702 -75 l 1
 59 233 l 1
 59 255 l 1
EndSplineSet
EndChar

StartChar: equal
Encoding: 61 61 152
Width: 853
VWidth: 0
Flags: W
HStem: 122 59<120 724> 289 59<120 724>
LayerCount: 3
Fore
SplineSet
120 122 m 1
 120 181 l 1
 724 181 l 1
 724 122 l 1
 120 122 l 1
120 289 m 1
 120 348 l 1
 724 348 l 1
 724 289 l 1
 120 289 l 1
EndSplineSet
EndChar

StartChar: greater
Encoding: 62 62 153
Width: 761
VWidth: 0
Flags: W
DStem2: 59 563 59 496 0.901873 -0.432001<28.9441 623.918> 59 -8 59 -75 0.901873 0.432001<0 594.974>
LayerCount: 3
Fore
SplineSet
702 233 m 1
 59 -75 l 1
 59 -8 l 1
 598 244 l 1
 59 496 l 1
 59 563 l 1
 702 255 l 1
 702 233 l 1
EndSplineSet
EndChar

StartChar: notequal
Encoding: 8800 8800 154
Width: 691
VWidth: 0
Flags: W
HStem: 239 49<57 206 327 622> 378 49<57 350 471 622>
DStem2: 35 74 106 74 0.719033 0.694976<51.0513 237.626 358.682 437.768 558.825 748.227>
LayerCount: 3
Fore
SplineSet
35 74 m 1
 206 239 l 1
 57 239 l 1
 57 288 l 1
 256 288 l 1
 350 378 l 1
 57 378 l 1
 57 427 l 1
 400 427 l 1
 573 594 l 1
 644 594 l 1
 471 427 l 1
 622 427 l 1
 622 378 l 1
 420 378 l 1
 327 288 l 1
 622 288 l 1
 622 239 l 1
 276 239 l 1
 106 74 l 1
 35 74 l 1
EndSplineSet
EndChar

StartChar: uni2053
Encoding: 8275 8275 156
Width: 941
VWidth: 0
Flags: W
HStem: 217 53<633.48 770.2> 389 60<171.812 304.709>
VStem: 32 32<221.469 270.929> 876 32<403.083 443.312>
LayerCount: 3
Fore
SplineSet
32 223 m 1
 32 223 73 449 263 449 c 0
 442 449 579 270 724 270 c 0
 833 270 876 448 876 448 c 1
 908 442 l 1
 903 431 867 217 680 217 c 0
 495 217 358 389 208 389 c 0
 90 389 64 216 64 216 c 1
 32 223 l 1
EndSplineSet
EndChar

StartChar: plusminus
Encoding: 177 177 157
Width: 794
VWidth: 0
Flags: W
HStem: -23 59<135 700> 289 58<135 393 442 700>
VStem: 388 59<75 293 343 561>
LayerCount: 3
Fore
SplineSet
135 -23 m 1
 135 36 l 1
 700 36 l 1
 700 -23 l 1
 135 -23 l 1
135 289 m 1
 135 347 l 1
 353 347 393 343 393 343 c 1
 393 343 388 383 388 561 c 1
 447 561 l 1
 447 392 442 343 442 343 c 1
 442 343 492 347 700 347 c 1
 700 289 l 1
 481 289 442 293 442 293 c 1
 442 293 447 254 447 75 c 1
 388 75 l 1
 388 252 393 293 393 293 c 1
 393 293 353 289 135 289 c 1
EndSplineSet
EndChar

StartChar: minus
Encoding: 8722 8722 158
Width: 806
VWidth: 0
Flags: W
HStem: 206 58<110 694>
LayerCount: 3
Fore
SplineSet
110 206 m 1
 110 264 l 1
 694 264 l 1
 694 206 l 1
 110 206 l 1
EndSplineSet
EndChar

StartChar: multiply
Encoding: 215 215 159
Width: 843
VWidth: 0
Flags: W
DStem2: 417 270 382 235 0.707107 -0.707107<-276.479 0 50.2046 326.683> 382 235 417 200 0.707107 0.707107<-276.479 0 50.2046 326.683>
LayerCount: 3
Fore
SplineSet
183 42 m 1
 359 218 382 235 382 235 c 1
 382 235 370 241 183 428 c 1
 225 469 l 1
 412 282 417 270 417 270 c 1
 417 270 435 294 610 469 c 1
 652 428 l 1
 477 253 453 235 453 235 c 1
 453 235 477 217 652 42 c 1
 610 1 l 1
 435 176 417 200 417 200 c 1
 417 200 401 177 225 1 c 1
 183 42 l 1
EndSplineSet
EndChar

StartChar: divide
Encoding: 247 247 160
Width: 806
VWidth: 0
Flags: W
HStem: 18 121<356.107 447.323> 206 58<110 694> 331 121<356.107 447.323>
VStem: 341 121<32.6773 123.893 346.107 437.323>
CounterMasks: 1 e0
LayerCount: 3
Fore
SplineSet
110 206 m 1
 110 264 l 1
 694 264 l 1
 694 206 l 1
 110 206 l 1
341 78 m 0
 341 111 369 139 402 139 c 0
 435 139 462 111 462 78 c 0
 462 45 435 18 402 18 c 0
 369 18 341 45 341 78 c 0
341 392 m 0
 341 425 369 452 402 452 c 0
 435 452 462 425 462 392 c 0
 462 359 435 331 402 331 c 0
 369 331 341 359 341 392 c 0
EndSplineSet
EndChar

StartChar: underscore
Encoding: 95 95 161
Width: 186
VWidth: 488
Flags: HW
HStem: -102 43<0 186>
VStem: 0 186<-102 -59>
AnchorPoint: "l;bl" 0 15 basechar 0
AnchorPoint: "l;x" 0 376 basechar 0
AnchorPoint: "l;hi" 0 684 basechar 0
AnchorPoint: "l;o" 0 195 basechar 0
AnchorPoint: "l;lo" 0 -244 basechar 0
AnchorPoint: "r;bl" 186 15 basechar 0
AnchorPoint: "r;x" 186 376 basechar 0
AnchorPoint: "r;hi" 186 684 basechar 0
AnchorPoint: "r;o" 186 195 basechar 0
AnchorPoint: "r;lo" 186 -244 basechar 0
LayerCount: 3
Fore
SplineSet
0 -59 m 1
 186 -59 l 1
 186 -102 l 1
 0 -102 l 1
 0 -59 l 1
EndSplineSet
EndChar

StartChar: asciicircum
Encoding: 94 94 162
Width: 402
VWidth: 0
Flags: W
HStem: 331 320
VStem: 40 326
DStem2: 40 331 103 331 0.440468 0.897768<27.7495 262.123> 209 651 203 543 0.440468 -0.897768<94.3162 328.69>
LayerCount: 3
Fore
SplineSet
40 331 m 1
 197 651 l 1
 209 651 l 1
 366 331 l 1
 303 331 l 1
 203 543 l 1
 103 331 l 1
 40 331 l 1
EndSplineSet
EndChar

StartChar: numbersign
Encoding: 35 35 163
Width: 483
VWidth: 0
Flags: W
HStem: 257 34<49 138 188 261 311 427> 366 34<50 168 218 291 341 428>
DStem2: 53 -49 94 -49 0.267104 0.963668<10.9512 317.586 363.706 430.639 476.759 763.749> 175 -49 215 -49 0.269533 0.962991<10.7813 317.855 364.073 430.907 477.126 764.285>
LayerCount: 3
Fore
SplineSet
49 257 m 1
 49 291 l 1
 147 291 l 1
 168 366 l 1
 50 366 l 1
 50 400 l 1
 178 400 l 1
 257 687 l 1
 298 687 l 1
 218 400 l 1
 301 400 l 1
 381 687 l 1
 421 687 l 1
 341 400 l 1
 428 400 l 1
 428 366 l 1
 332 366 l 1
 311 291 l 1
 427 291 l 1
 427 257 l 1
 301 257 l 1
 215 -49 l 1
 175 -49 l 1
 261 257 l 1
 178 257 l 1
 94 -49 l 1
 53 -49 l 1
 138 257 l 1
 49 257 l 1
188 291 m 1
 270 291 l 1
 291 366 l 1
 209 366 l 1
 188 291 l 1
EndSplineSet
Layer: 2
SplineSet
61.5234375 138.671875 m 5
 61.5234375 172.8515625 l 5
 184.08203125 172.8515625 l 5
 211.42578125 275.390625 l 5
 61.5234375 275.390625 l 5
 61.5234375 309.5703125 l 5
 220.703125 309.5703125 l 5
 318.359375 673.33984375 l 5
 358.3984375 673.33984375 l 5
 260.7421875 309.5703125 l 5
 366.2109375 309.5703125 l 5
 463.8671875 673.33984375 l 5
 504.39453125 673.33984375 l 5
 406.73828125 309.5703125 l 5
 518.5546875 309.5703125 l 5
 518.5546875 275.390625 l 5
 397.4609375 275.390625 l 5
 370.1171875 172.8515625 l 5
 518.5546875 172.8515625 l 5
 518.5546875 138.671875 l 5
 360.83984375 138.671875 l 5
 258.30078125 -243.1640625 l 5
 218.26171875 -243.1640625 l 5
 320.3125 138.671875 l 5
 214.84375 138.671875 l 5
 112.79296875 -243.1640625 l 5
 72.265625 -243.1640625 l 5
 174.8046875 138.671875 l 5
 61.5234375 138.671875 l 5
224.12109375 172.8515625 m 5
 329.58984375 172.8515625 l 5
 356.93359375 275.390625 l 5
 251.953125 275.390625 l 5
 224.12109375 172.8515625 l 5
EndSplineSet
EndChar

StartChar: currency
Encoding: 164 164 164
Width: 527
Flags: W
HStem: 65 55<188.884 336.297> 404 53<189.862 335.383>
VStem: 67 57<185.877 337.198> 403 58<187.408 335.118>
DStem2: 77 487 38 448 0.706249 -0.707963<-33.3796 100.31 481.774 616.81> 38 74 77 35 0.706249 0.707963<-33.4922 100.933 481.664 616.083>
LayerCount: 3
Fore
SplineSet
20 44 m 0
 20 56 29 65 38 74 c 2
 106 143 l 1
 81 176 67 217 67 262 c 0
 67 305 81 347 105 379 c 1
 38 448 l 2
 36 450 20 463 20 478 c 0
 20 494 33 505 46 505 c 0
 58 505 68 496 77 487 c 2
 146 418 l 1
 178 442 220 457 263 457 c 0
 310 457 350 441 381 418 c 1
 450 487 l 2
 452 489 465 504 480 504 c 0
 496 504 507 491 507 478 c 0
 507 466 498 457 489 448 c 2
 420 378 l 1
 444 345 461 304 461 260 c 0
 461 217 444 176 420 144 c 1
 489 74 l 2
 491 72 507 59 507 44 c 0
 507 28 493 17 480 17 c 0
 468 17 459 26 450 35 c 2
 381 104 l 1
 349 80 307 65 263 65 c 0
 220 65 178 79 146 103 c 1
 77 35 l 2
 75 33 61 18 46 18 c 0
 30 18 20 31 20 44 c 0
124 260 m 0
 124 181 187 120 263 120 c 0
 339 120 403 183 403 261 c 0
 403 338 340 404 263 404 c 0
 185 404 124 338 124 260 c 0
EndSplineSet
EndChar

StartChar: dagger
Encoding: 8224 8224 165
Width: 472
VWidth: 0
Flags: W
HStem: 371 91<50.9321 169.078 302.368 416.824> 404 23<175.738 221.984 251.001 297.072>
VStem: 185 99<-55.8613 312.666 530.208 714.114> 202 61<-216.309 56.3524> 223 24<342.609 403.991 427.001 500.31>
LayerCount: 3
Fore
SplineSet
43 414 m 0x88
 43 449 75 462 89 462 c 0x88
 130 462 189 427 220 427 c 0
 222 427 222 428 222 429 c 0
 222 484 185 609 185 650 c 0
 185 702 208 725 234 725 c 0
 261 725 284 705 284 653 c 0
 284 626 251 482 251 435 c 0
 251 427 252 427 254 427 c 0x60
 297 429 329 462 371 462 c 0
 390 462 424 451 424 418 c 0
 424 382 393 371 370 371 c 0xa0
 335 371 293 404 250 404 c 0
 248 404 247 404 247 402 c 0x48
 247 385 284 208 284 208 c 1x60
 284 208 263 122 263 -166 c 0
 263 -186 249 -219 233 -219 c 0
 212 -219 202 -186 202 -167 c 0x50
 202 125 182 208 182 208 c 1
 182 208 223 387 223 403 c 0
 223 404 220 405 220 405 c 0
 182 405 138 371 93 371 c 0
 88 371 43 372 43 414 c 0x88
EndSplineSet
Layer: 2
SplineSet
201.66015625 -166.50390625 m 4
 201.66015625 125 181.640625 208.0078125 181.640625 208.0078125 c 5
 181.640625 208.0078125 223.14453125 386.71875 223.14453125 402.83203125 c 4
 223.14453125 403.80859375 220.21484375 404.78515625 219.7265625 404.78515625 c 4
 181.640625 404.78515625 137.6953125 370.60546875 92.7734375 370.60546875 c 4
 87.890625 370.60546875 42.96875 371.58203125 42.96875 414.0625 c 4
 42.96875 449.21875 75.68359375 462.40234375 89.35546875 462.40234375 c 4
 130.37109375 462.40234375 188.96484375 426.7578125 219.7265625 426.7578125 c 4
 221.6796875 426.7578125 221.6796875 427.734375 221.6796875 428.7109375 c 4
 221.6796875 483.3984375 184.5703125 608.88671875 184.5703125 649.90234375 c 4
 184.5703125 702.1484375 207.51953125 724.609375 233.88671875 724.609375 c 4
 260.7421875 724.609375 283.69140625 705.56640625 283.69140625 653.3203125 c 4
 283.69140625 625.9765625 250.9765625 482.421875 250.9765625 435.05859375 c 4
 250.9765625 427.24609375 251.953125 426.7578125 253.90625 426.7578125 c 4
 296.875 429.19921875 328.61328125 462.40234375 370.60546875 462.40234375 c 4
 389.6484375 462.40234375 424.31640625 451.66015625 424.31640625 418.45703125 c 4
 424.31640625 382.32421875 393.5546875 370.60546875 370.1171875 370.60546875 c 4
 334.9609375 370.60546875 292.48046875 404.296875 249.51171875 404.296875 c 4
 247.0703125 404.296875 247.0703125 403.80859375 247.0703125 401.85546875 c 4
 247.0703125 385.25390625 283.69140625 208.0078125 283.69140625 208.0078125 c 5
 283.69140625 208.0078125 262.6953125 122.0703125 262.6953125 -165.52734375 c 4
 262.6953125 -185.546875 249.0234375 -218.75 233.3984375 -218.75 c 4
 211.9140625 -218.75 201.66015625 -185.546875 201.66015625 -166.50390625 c 4
EndSplineSet
EndChar

StartChar: daggerdbl
Encoding: 8225 8225 166
Width: 472
VWidth: 0
Flags: W
HStem: -33 92<50.9197 163.681 300.1 415.178> 3 22<172.749 215.999 246 288.838> 444 92<51.8219 167.493 303.319 416.824> 478 22<178.889 221.984 251.001 293.301> 692 20G<223 249.5>
VStem: 184 99<-198.947 -68.8828 575.183 701.609> 220 24<26.828 68.8144 435.01 477.999>
LayerCount: 3
Fore
SplineSet
43 11 m 0x8c
 43 47 75 59 98 59 c 0x8c
 133 59 176 25 218 25 c 0
 220 25 220 26 220 28 c 0
 220 45 188 141 188 141 c 1
 220 249 l 1
 187 352 l 1
 187 352 223 460 223 476 c 0
 223 477 220 478 220 478 c 0x5a
 182 478 138 444 93 444 c 0
 88 444 43 445 43 487 c 0
 43 522 76 536 90 536 c 0x2a
 131 536 189 500 220 500 c 0x1a
 222 500 222 501 222 502 c 0
 222 557 185 606 185 647 c 0
 185 695 210 712 236 712 c 0
 263 712 283 698 283 651 c 0
 283 624 251 555 251 508 c 0
 251 500 252 500 254 500 c 0x1c
 296 502 328 536 370 536 c 0
 389 536 424 525 424 492 c 0
 424 456 393 444 370 444 c 0x2c
 335 444 292 478 250 478 c 0
 248 478 247 477 247 475 c 0
 247 458 279 352 279 352 c 1
 247 249 l 1
 281 141 l 1
 281 141 244 43 244 27 c 0
 244 26 248 25 248 25 c 0x5a
 286 25 329 59 374 59 c 0
 379 59 424 58 424 16 c 0
 424 -19 391 -33 377 -33 c 0x8a
 336 -33 279 3 248 3 c 0
 246 3 246 2 246 1 c 0
 246 -54 283 -104 283 -145 c 0
 283 -192 257 -209 231 -209 c 0
 204 -209 184 -194 184 -148 c 0
 184 -121 216 -52 216 -5 c 0
 216 3 215 3 213 3 c 0x4c
 171 1 139 -33 97 -33 c 0
 78 -33 43 -22 43 11 c 0x8c
EndSplineSet
Layer: 2
SplineSet
186.5234375 352.05078125 m 5
 186.5234375 352.05078125 223.14453125 459.9609375 223.14453125 476.07421875 c 4
 223.14453125 477.05078125 220.21484375 478.02734375 219.7265625 478.02734375 c 4
 181.640625 478.02734375 138.18359375 443.84765625 93.26171875 443.84765625 c 4
 88.37890625 443.84765625 43.45703125 444.82421875 43.45703125 487.3046875 c 4
 43.45703125 522.4609375 76.171875 535.64453125 89.84375 535.64453125 c 4
 130.859375 535.64453125 188.96484375 500 219.7265625 500 c 4
 221.6796875 500 221.6796875 500.9765625 221.6796875 501.953125 c 4
 221.6796875 556.640625 184.5703125 606.4453125 184.5703125 647.4609375 c 4
 184.5703125 695.80078125 209.9609375 712.40234375 236.328125 712.40234375 c 4
 263.18359375 712.40234375 283.203125 698.2421875 283.203125 650.87890625 c 4
 283.203125 623.53515625 250.9765625 555.6640625 250.9765625 508.30078125 c 4
 250.9765625 500.48828125 251.953125 500 253.90625 500 c 4
 296.38671875 502.44140625 328.125 535.64453125 370.1171875 535.64453125 c 4
 389.16015625 535.64453125 423.828125 524.90234375 423.828125 491.69921875 c 4
 423.828125 455.56640625 393.06640625 443.84765625 369.62890625 443.84765625 c 4
 334.47265625 443.84765625 291.9921875 477.5390625 249.51171875 477.5390625 c 4
 247.0703125 477.5390625 247.0703125 477.05078125 247.0703125 475.09765625 c 4
 247.0703125 458.49609375 278.80859375 352.05078125 278.80859375 352.05078125 c 5
 247.0703125 248.53515625 l 5
 280.76171875 141.11328125 l 5
 280.76171875 141.11328125 244.140625 42.96875 244.140625 26.85546875 c 4
 244.140625 25.87890625 247.0703125 24.90234375 247.55859375 24.90234375 c 4
 285.64453125 24.90234375 329.1015625 59.08203125 374.0234375 59.08203125 c 4
 378.90625 59.08203125 423.828125 58.10546875 423.828125 15.625 c 4
 423.828125 -19.53125 391.11328125 -32.71484375 377.44140625 -32.71484375 c 4
 336.42578125 -32.71484375 278.3203125 2.9296875 247.55859375 2.9296875 c 4
 245.60546875 2.9296875 245.60546875 1.953125 245.60546875 0.9765625 c 4
 245.60546875 -53.7109375 282.71484375 -103.515625 282.71484375 -144.53125 c 4
 282.71484375 -191.40625 257.32421875 -209.47265625 230.95703125 -209.47265625 c 4
 204.1015625 -209.47265625 184.08203125 -194.3359375 184.08203125 -147.94921875 c 4
 184.08203125 -120.60546875 216.30859375 -52.734375 216.30859375 -5.37109375 c 4
 216.30859375 2.44140625 215.33203125 2.9296875 213.37890625 2.9296875 c 4
 170.8984375 0.48828125 139.16015625 -32.71484375 97.16796875 -32.71484375 c 4
 78.125 -32.71484375 43.45703125 -21.97265625 43.45703125 11.23046875 c 4
 43.45703125 47.36328125 74.21875 59.08203125 97.65625 59.08203125 c 4
 132.8125 59.08203125 175.29296875 25.390625 217.7734375 25.390625 c 4
 220.21484375 25.390625 220.21484375 25.87890625 220.21484375 27.83203125 c 4
 220.21484375 44.43359375 188.4765625 141.11328125 188.4765625 141.11328125 c 5
 220.21484375 248.53515625 l 5
 186.5234375 352.05078125 l 5
EndSplineSet
EndChar

StartChar: paragraph
Encoding: 182 182 167
Width: 668
VWidth: 0
Flags: W
HStem: 662 32<341.482 469.446>
VStem: 37 166<190.893 462.36> 303 37<-6 647> 595 62<-173.971 -113.721>
LayerCount: 3
Back
SplineSet
37.109375 340.8203125 m 4
 37.109375 557.12890625 208.49609375 693.84765625 405.2734375 693.84765625 c 4
 498.046875 693.84765625 529.296875 661.1328125 529.296875 645.5078125 c 4
 529.296875 633.7890625 518.5546875 627.44140625 510.7421875 627.44140625 c 4
 489.2578125 627.44140625 469.7265625 662.109375 396.484375 662.109375 c 4
 369.62890625 662.109375 347.65625 657.2265625 339.84375 656.73828125 c 13
 337.890625 -13.671875 l 21
 440.91796875 -38.57421875 656.73828125 -18.06640625 656.73828125 -130.37109375 c 4
 656.73828125 -159.66796875 642.578125 -191.40625 615.234375 -191.40625 c 4
 608.3984375 -191.40625 588.37890625 -190.4296875 588.37890625 -164.55078125 c 4
 588.37890625 -153.3203125 595.21484375 -147.94921875 595.21484375 -140.13671875 c 4
 595.21484375 -78.61328125 343.26171875 -70.80078125 235.83984375 -21.484375 c 4
 98.14453125 41.9921875 37.109375 178.22265625 37.109375 340.8203125 c 4
203.125 43.45703125 m 21
 230.95703125 19.04296875 257.8125 5.859375 303.22265625 -5.859375 c 13
 303.22265625 647.4609375 l 21
 250 634.765625 220.21484375 613.28125 203.125 598.14453125 c 13
 203.125 43.45703125 l 21
EndSplineSet
Fore
SplineSet
37 341 m 0
 37 557 208 694 405 694 c 0
 498 694 529 662 529 646 c 0
 529 634 519 627 511 627 c 0
 490 627 469 662 396 662 c 0
 369 662 348 657 340 657 c 9
 340 -14 l 17
 443 -39 657 -18 657 -130 c 0
 657 -159 642 -191 615 -191 c 0
 608 -191 588 -191 588 -165 c 0
 588 -154 595 -148 595 -140 c 0
 595 -78 343 -70 236 -21 c 0
 98 42 37 178 37 341 c 0
203 43 m 17
 231 19 258 6 303 -6 c 9
 303 647 l 17
 250 634 220 613 203 598 c 9
 203 43 l 17
EndSplineSet
Layer: 2
SplineSet
584.47265625 590.33203125 m 0
 560.546875 590.33203125 539.0625 628.90625 457.51953125 628.90625 c 0
 427.734375 628.90625 403.80859375 623.046875 395.01953125 622.55859375 c 9
 392.578125 -122.0703125 l 17
 506.8359375 -149.90234375 747.0703125 -126.953125 747.0703125 -251.953125 c 0
 747.0703125 -284.66796875 730.95703125 -319.82421875 700.68359375 -319.82421875 c 0
 693.359375 -319.82421875 670.8984375 -318.84765625 670.8984375 -290.0390625 c 0
 670.8984375 -277.34375 678.7109375 -268.06640625 678.7109375 -264.6484375 c 0
 678.7109375 -192.3828125 403.80859375 -187.98828125 279.296875 -130.859375 c 0
 126.46484375 -60.546875 58.59375 91.30859375 58.59375 271.97265625 c 0
 58.59375 512.20703125 249.0234375 664.0625 467.7734375 664.0625 c 0
 570.80078125 664.0625 605.46875 627.9296875 605.46875 610.3515625 c 0
 605.46875 597.16796875 593.26171875 590.33203125 584.47265625 590.33203125 c 0
242.67578125 557.6171875 m 9
 242.67578125 -58.59375 l 17
 273.4375 -85.9375 303.7109375 -100.5859375 354.00390625 -113.76953125 c 9
 354.00390625 612.3046875 l 17
 294.921875 598.14453125 261.71875 574.21875 242.67578125 557.6171875 c 9
EndSplineSet
EndChar

StartChar: section
Encoding: 167 167 168
Width: 446
VWidth: 0
Flags: W
HStem: -210 31<186.125 288.913> -35 20G<138.5 161.5> 88 19<278.621 337.903> 389 18<131.087 165> 669 33<165.475 249.89>
VStem: 56 45<269.731 371.302> 88 50<531.673 647.275> 96 76<-154.969 -59.9434> 252 91<577.282 659.079> 325 50<-152.37 -42.8794> 358 39<121.739 303.219>
LayerCount: 3
Fore
SplineSet
56 295 m 0xfc40
 56 379 108 407 152 407 c 0
 157 407 162 406 165 406 c 1
 163 411 88 479 88 573 c 0
 88 665 152 702 216 702 c 0
 300 702 343 649 343 604 c 0
 343 562 319 548 293 548 c 0
 263 548 229 568 229 591 c 0
 229 611 252 629 252 646 c 0
 252 659 240 669 223 669 c 0
 181 669 138 653 138 589 c 0
 138 474 397 398 397 204 c 0xfaa0
 397 105 346 88 311 88 c 0
 296 88 287 91 277 93 c 1
 305 67 375 2 375 -87 c 0
 375 -170 307 -210 239 -210 c 0
 169 -210 96 -168 96 -89 c 0
 96 -45 122 -15 155 -15 c 0
 168 -15 211 -41 211 -64 c 0
 211 -88 172 -112 172 -136 c 0xf940
 172 -153 184 -179 241 -179 c 0
 278 -179 325 -150 325 -105 c 0
 325 -25 223 29 143 112 c 0
 78 179 56 245 56 295 c 0xfc40
101 333 m 0xfc20
 101 254 250 107 304 107 c 0
 334 107 358 123 358 153 c 0
 358 231 198 389 170 389 c 0
 128 389 101 365 101 333 c 0xfc20
EndSplineSet
Layer: 2
SplineSet
55.6640625 294.921875 m 4xfc40
 55.6640625 379.39453125 107.421875 406.73828125 151.85546875 406.73828125 c 4
 157.2265625 406.73828125 161.62109375 406.25 165.0390625 405.76171875 c 5
 162.59765625 410.64453125 87.890625 479.00390625 87.890625 572.75390625 c 4
 87.890625 664.55078125 152.34375 702.1484375 216.30859375 702.1484375 c 4
 279.296875 702.1484375 343.75 665.0390625 343.75 605.95703125 c 4
 343.75 578.125 321.2890625 543.9453125 284.66796875 543.9453125 c 4
 256.8359375 543.9453125 229.98046875 559.5703125 229.98046875 590.8203125 c 4
 229.98046875 623.53515625 252.44140625 624.51171875 252.44140625 647.94921875 c 4
 252.44140625 656.25 246.58203125 668.9453125 218.75 668.9453125 c 4
 181.640625 668.9453125 137.6953125 652.34375 137.6953125 588.8671875 c 4
 137.6953125 473.6328125 396.97265625 397.4609375 396.97265625 203.61328125 c 4xfaa0
 396.97265625 104.98046875 345.21484375 87.890625 310.546875 87.890625 c 4
 295.41015625 87.890625 287.59765625 90.8203125 277.34375 93.26171875 c 5
 305.6640625 66.89453125 375.48828125 1.953125 375.48828125 -87.40234375 c 4
 375.48828125 -170.8984375 307.12890625 -210.44921875 238.76953125 -210.44921875 c 4
 168.9453125 -210.44921875 95.703125 -167.96875 95.703125 -89.35546875 c 4
 95.703125 -44.921875 132.8125 -15.625 165.52734375 -15.625 c 4
 195.3125 -15.625 211.42578125 -41.015625 211.42578125 -63.96484375 c 4
 211.42578125 -112.3046875 171.875 -111.81640625 171.875 -136.23046875 c 4xf940
 171.875 -153.3203125 184.08203125 -178.7109375 241.2109375 -178.7109375 c 4
 278.3203125 -178.7109375 325.1953125 -150.390625 325.1953125 -105.46875 c 4
 325.1953125 -34.1796875 245.1171875 15.625 174.8046875 80.56640625 c 5
 85.44921875 159.66796875 55.6640625 236.81640625 55.6640625 294.921875 c 4xfc40
385.25390625 -67.87109375 m 0xf080
 385.25390625 -152.83203125 315.4296875 -193.359375 244.140625 -193.359375 c 0
 170.41015625 -193.359375 95.703125 -150.390625 95.703125 -69.82421875 c 0
 95.703125 -24.4140625 133.7890625 6.34765625 167.96875 6.34765625 c 0
 200.1953125 6.34765625 218.26171875 -20.5078125 218.26171875 -44.43359375 c 0
 218.26171875 -93.26171875 176.7578125 -94.23828125 176.7578125 -116.69921875 c 0xf280
 176.7578125 -132.8125 188.96484375 -156.73828125 246.58203125 -156.73828125 c 0
 284.66796875 -156.73828125 330.078125 -128.90625 330.078125 -85.9375 c 0
 330.078125 -16.11328125 249.51171875 32.71484375 175.78125 98.14453125 c 0
 85.9375 177.734375 55.6640625 255.37109375 55.6640625 314.453125 c 0xf880
 55.6640625 366.69921875 78.61328125 428.22265625 154.296875 428.22265625 c 0
 157.2265625 428.22265625 160.15625 427.734375 163.0859375 427.734375 c 1
 163.0859375 427.734375 87.890625 498.53515625 87.890625 592.28515625 c 0
 87.890625 685.546875 153.3203125 724.12109375 220.703125 724.12109375 c 0
 287.109375 724.12109375 353.515625 686.5234375 353.515625 625.48828125 c 0
 353.515625 596.6796875 330.078125 561.03515625 291.9921875 561.03515625 c 0
 262.6953125 561.03515625 232.421875 577.1484375 232.421875 610.3515625 c 0
 232.421875 643.5546875 256.34765625 645.99609375 256.34765625 667.48046875 c 0
 256.34765625 676.7578125 247.55859375 686.03515625 223.14453125 686.03515625 c 0
 185.546875 686.03515625 142.578125 670.41015625 142.578125 608.3984375 c 0
 142.578125 495.1171875 406.73828125 417.96875 406.73828125 223.14453125 c 0xf540
 406.73828125 120.60546875 351.07421875 104.98046875 317.87109375 104.98046875 c 0
 303.7109375 104.98046875 293.45703125 107.91015625 293.45703125 107.91015625 c 1
 293.45703125 107.91015625 385.25390625 32.71484375 385.25390625 -67.87109375 c 0xf080
169.921875 388.671875 m 4
 128.41796875 388.671875 100.5859375 364.74609375 100.5859375 332.51953125 c 4xfc20
 100.5859375 253.90625 249.51171875 107.421875 303.7109375 107.421875 c 4
 333.49609375 107.421875 357.91015625 123.046875 357.91015625 152.83203125 c 4
 357.91015625 230.46875 197.75390625 388.671875 169.921875 388.671875 c 4
172.36328125 405.76171875 m 0
 132.32421875 405.76171875 105.46875 382.8125 105.46875 352.05078125 c 0
 105.46875 274.4140625 257.32421875 129.39453125 311.03515625 129.39453125 c 0
 339.35546875 129.39453125 362.79296875 144.04296875 362.79296875 172.36328125 c 0xf840
 362.79296875 248.53515625 199.70703125 405.76171875 172.36328125 405.76171875 c 0
EndSplineSet
EndChar

StartChar: brokenbar
Encoding: 166 166 169
Width: 415
VWidth: 488
Flags: W
HStem: 686 20G<182 226>
VStem: 182 44<-231 144 331 706>
LayerCount: 3
Fore
SplineSet
182 144 m 1
 226 144 l 1
 226 -231 l 1
 182 -231 l 1
 182 144 l 1
182 331 m 1
 182 706 l 1
 226 706 l 1
 226 331 l 1
 182 331 l 1
EndSplineSet
EndChar

StartChar: exclamdown
Encoding: 161 161 170
Width: 254
VWidth: 0
Flags: W
HStem: -9 21G<76 81> 541 95<126.369 183.937>
VStem: 112 84<553.172 622.199> 128 34<305.16 467.944>
LayerCount: 3
Fore
SplineSet
196 588 m 0xe0
 196 569 165 541 152 541 c 0
 135 541 112 574 112 589 c 0
 112 601 140 636 158 636 c 0
 173 636 196 600 196 588 c 0xe0
146 468 m 0
 155 468 162 460 162 440 c 0
 162 420 148 183 148 35 c 0
 148 13 130 9 94 -5 c 0
 89 -7 83 -9 79 -9 c 0
 73 -9 69 -6 69 2 c 0
 69 27 83 93 128 414 c 0xd0
 133 449 130 468 146 468 c 0
EndSplineSet
Position2: "'cpsp' Capital Spacing in Latin lookup 2 subtable" dx=2 dy=0 dh=4 dv=0
EndChar

StartChar: questiondown
Encoding: 191 191 171
Width: 368
VWidth: 0
Flags: W
HStem: -9 62<130.794 237.714> 572 95<186.142 244.937>
VStem: 36 65<92.2909 174.036> 172 85<584.172 652.667> 222 51<381.354 479.838>
LayerCount: 3
Fore
SplineSet
36 171 m 0xe8
 36 235 222 350 222 437 c 0
 222 477 200 490 200 500 c 0
 200 507 205 512 212 512 c 0
 228 512 273 476 273 400 c 0
 273 301 101 210 101 109 c 0
 101 73 130 53 160 53 c 0
 176 53 218 63 246 63 c 0
 255 63 259 60 259 51 c 0
 259 35 232 -9 188 -9 c 0
 139 -9 36 71 36 171 c 0xe8
257 619 m 0xf0
 257 600 226 572 213 572 c 0
 196 572 172 605 172 620 c 0
 172 632 201 667 219 667 c 0
 234 667 257 631 257 619 c 0xf0
EndSplineSet
Position2: "'cpsp' Capital Spacing in Latin lookup 2 subtable" dx=3 dy=0 dh=6 dv=0
EndChar

StartChar: cent
Encoding: 162 162 172
Width: 496
VWidth: 0
Flags: W
HStem: -12 34<211.135 338.064> 405 28<229.264 258 296 332.787>
VStem: 58 80<109.38 316.742> 348 73<307.5 379.664>
DStem2: 156 20 181 6 0.267226 0.963634<-221.142 -6.81022 59.8992 395.365 435.392 728.264>
LayerCount: 3
Fore
SplineSet
58 219 m 0
 58 323 126 436 267 436 c 1
 339 725 l 1
 379 720 l 1
 296 433 l 1
 364 422 421 379 421 324 c 0
 421 291 395 263 362 263 c 0
 333 263 309 285 309 310 c 0
 309 344 348 355 348 371 c 0
 348 384 322 404 289 405 c 1
 193 52 l 1
 216 31 245 22 274 22 c 0
 361 22 414 103 415 104 c 1
 437 83 l 1
 429 76 368 -12 263 -12 c 0
 235 -12 207 -6 181 6 c 1
 129 -202 l 1
 94 -193 l 1
 156 20 l 1
 99 56 58 123 58 219 c 0
138 213 m 0
 138 152 150 109 171 78 c 1
 258 402 l 1
 182 387 138 309 138 213 c 0
EndSplineSet
Layer: 2
SplineSet
308.59375 310.05859375 m 4
 308.59375 344.23828125 348.14453125 354.98046875 348.14453125 370.60546875 c 4
 348.14453125 383.7890625 321.2890625 403.80859375 288.57421875 404.78515625 c 5
 193.359375 52.24609375 l 5
 216.796875 31.25 245.60546875 21.97265625 274.4140625 21.97265625 c 4
 361.328125 21.97265625 414.0625 102.5390625 415.0390625 103.515625 c 5
 436.5234375 83.0078125 l 5
 428.7109375 76.171875 368.65234375 -11.71875 263.18359375 -11.71875 c 4
 235.3515625 -11.71875 207.03125 -5.37109375 180.6640625 6.34765625 c 5
 129.39453125 -201.66015625 l 5
 94.23828125 -192.87109375 l 5
 155.76171875 20.01953125 l 5
 99.12109375 56.15234375 57.6171875 123.046875 57.6171875 218.75 c 4
 57.6171875 323.2421875 125.9765625 435.546875 266.6015625 435.546875 c 5
 338.8671875 724.609375 l 5
 378.90625 719.7265625 l 5
 296.38671875 432.6171875 l 5
 364.74609375 421.38671875 420.8984375 378.90625 420.8984375 324.21875 c 4
 420.8984375 291.015625 395.5078125 262.6953125 362.3046875 262.6953125 c 4
 333.49609375 262.6953125 308.59375 284.66796875 308.59375 310.05859375 c 4
171.38671875 77.63671875 m 5
 257.8125 401.85546875 l 5
 182.12890625 386.71875 137.6953125 309.08203125 137.6953125 212.890625 c 4
 137.6953125 152.34375 150.87890625 108.3984375 171.38671875 77.63671875 c 5
EndSplineSet
EndChar

StartChar: minute
Encoding: 8242 8242 174
Width: 231
VWidth: 0
Flags: W
HStem: 475 259<67 161>
VStem: 55 136
LayerCount: 3
Fore
SplineSet
55 487 m 0
 55 501 71 545 79 567 c 0
 108 652 110 734 161 734 c 0
 184 734 191 711 191 701 c 0
 191 669 144 601 118 552 c 0
 87 495 83 475 67 475 c 0
 57 475 55 482 55 487 c 0
EndSplineSet
EndChar

StartChar: second
Encoding: 8243 8243 175
Width: 351
VWidth: 0
Flags: W
HStem: 478 256<162 274>
VStem: 62 54<502.057 597.375>
LayerCount: 3
Fore
SplineSet
62 488 m 0
 62 501 94 663 105 704 c 0
 110 724 127 734 147 734 c 0
 168 734 181 715 181 702 c 0
 181 678 142 611 116 553 c 16
 95 507 88 478 73 478 c 0
 67 478 62 482 62 488 c 0
156 491 m 0
 156 503 170 541 184 571 c 16
 219 647 225 733 274 733 c 0
 299 733 306 718 306 708 c 0
 306 677 254 603 222 554 c 0
 189 504 182 479 167 479 c 0
 162 479 156 480 156 491 c 0
EndSplineSet
EndChar

StartChar: degree
Encoding: 176 176 176
Width: 285
VWidth: 0
Flags: W
HStem: 487 35<88.6243 189.556> 693 36<88.6243 190.888>
VStem: 18 36<556.112 658.376> 225 35<557.444 658.376>
LayerCount: 3
Fore
SplineSet
18 608 m 0
 18 675 72 729 139 729 c 0
 206 729 260 675 260 608 c 0
 260 541 206 487 139 487 c 0
 72 487 18 541 18 608 c 0
54 608 m 0
 54 561 92 522 139 522 c 0
 186 522 225 561 225 608 c 0
 225 655 186 693 139 693 c 0
 92 693 54 655 54 608 c 0
EndSplineSet
EndChar

StartChar: yen
Encoding: 165 165 177
Width: 629
VWidth: 0
Flags: HW
HStem: 0 39<172 265.761 350.465 452> 197 48<122 268 349 505> 344 48<122 216 410 505> 627 40<22 77.3374 174.022 246 435 515.976 560.695 616>
VStem: 268 81<41.4774 197 245 310>
DStem2: 292 423 216 392 0.574946 -0.818192<-223.81 -18.3319 42.2143 72.1114> 335 354 370 344 0.578429 0.815733<0 12.0877 74.38 316.67>
LayerCount: 3
Fore
SplineSet
21 627 m 1
 22 667 l 1
 246 667 l 1
 246 627 l 1
 204 625 174 630 174 614 c 0
 174 606 179 600 292 423 c 2
 335 354 l 1
 510 602 l 2
 513 607 516 611 516 614 c 0
 516 628 483 626 435 627 c 1
 434 667 l 1
 616 667 l 1
 616 627 l 1
 579 626 574 628 544 585 c 2
 410 392 l 1
 517 392 l 1
 505 344 l 1
 370 344 l 1
 349 310 l 1
 349 245 l 1
 517 245 l 1
 505 197 l 1
 349 197 l 1
 349 85 l 2
 349 33 350 41 453 39 c 1
 452 0 l 1
 171 0 l 1
 172 39 l 1
 179 39 185 39 191 39 c 0
 199 39 206 39 212 39 c 0
 261 39 268 41 268 83 c 2
 268 197 l 1
 110 197 l 1
 122 245 l 1
 268 245 l 1
 268 318 l 1
 253 344 l 1
 110 344 l 1
 122 392 l 1
 216 392 l 1
 104 566 l 2
 65 627 70 627 21 627 c 1
EndSplineSet
EndChar

StartChar: dotlessi
Encoding: 305 305 178
Width: 241
VWidth: 0
Flags: HMW
HStem: -5 10G<83 95> 391 10G<142 155>
DStem2: 71 17 140 102 0.0820396 0.996629<0 90.7695 321.396 374.414>
AnchorPoint: "top" 146 488 basechar 0
LayerCount: 3
Fore
SplineSet
163 385 m 0
 163 353 140 130 140 102 c 0
 140 84 143 79 148 79 c 0
 163 79 215 161 215 161 c 1
 231 148 l 1
 231 148 213 104 170 59 c 0
 150 38 103 -5 88 -5 c 0
 77 -5 71 1 71 17 c 0
 71 40 98 248 98 337 c 0
 98 346 95 353 86 353 c 0
 70 353 25 334 25 334 c 1
 17 359 l 1
 17 359 132 400 152 400 c 0
 159 400 163 396 163 385 c 0
EndSplineSet
Layer: 2
SplineSet
137.6953125 629.8828125 m 4
 137.6953125 638.671875 157.2265625 667.96875 180.17578125 667.96875 c 4
 194.82421875 667.96875 211.42578125 643.5546875 211.42578125 625 c 4
 211.42578125 605.46875 179.19921875 583.49609375 171.38671875 583.49609375 c 4
 155.76171875 583.49609375 137.6953125 611.328125 137.6953125 629.8828125 c 4
EndSplineSet
EndChar

StartChar: uni0237
Encoding: 567 567 179
Width: 241
VWidth: 0
Flags: HMW
HStem: -258 35<-10 48> 392 10G<162 175>
DStem2: 77 -115 158 92 0.0785899 0.996907<-17.4999 212.761 453.551 467.93>
AnchorPoint: "top" 156 488 basechar 0
LayerCount: 3
Fore
SplineSet
103 352 m 0
 93 352 75 345 33 328 c 1
 24 354 l 1
 112 389 152 402 171 402 c 0
 179 402 181 396 181 385 c 0
 181 374 163 184 158 92 c 0
 152 -12 145 -99 131 -153 c 0
 106 -253 15 -258 4 -258 c 0
 -39 -258 -84 -234 -84 -199 c 0
 -84 -177 -71 -153 -49 -153 c 0
 -14 -153 -27 -223 21 -223 c 0
 53 -223 70 -171 77 -115 c 0
 94 21 112 306 112 337 c 0
 112 345 109 352 103 352 c 0
EndSplineSet
EndChar

StartChar: bullet
Encoding: 8226 8226 215
Width: 418
Flags: W
HStem: 181 241<142.271 277.412>
VStem: 89 241<233.588 369.412>
LayerCount: 3
Fore
SplineSet
89 301 m 0
 89 367 142 422 209 422 c 0
 275 422 330 369 330 302 c 0
 330 235 277 181 210 181 c 0
 143 181 89 234 89 301 c 0
EndSplineSet
EndChar

StartChar: quotereversed
Encoding: 8219 8219 216
Width: 243
VWidth: 0
Flags: HW
HStem: 468 212<136 179>
VStem: 69 60<531.632 606.23>
AnchorPoint: "r;s;quote" 307 589 basechar 0
AnchorPoint: "l;s;quote" 136 589 basechar 0
AnchorPoint: "l;x" 0 376 basechar 0
AnchorPoint: "l;hi" 0 684 basechar 0
AnchorPoint: "l;o" 0 195 basechar 0
AnchorPoint: "r;x" 243 376 basechar 0
AnchorPoint: "r;hi" 243 684 basechar 0
AnchorPoint: "r;o" 243 195 basechar 0
LayerCount: 3
Fore
SplineSet
69 602 m 0
 69 646 86 653 107 666 c 0
 122 675 131 680 136 680 c 0
 142 680 149 671 151 668 c 2
 176 633 l 2
 178 629 180 626 180 624 c 0
 180 608 129 617 129 567 c 0
 129 505 190 501 190 477 c 0
 190 471 186 468 179 468 c 0
 150 468 69 519 69 602 c 0
EndSplineSet
EndChar

StartChar: figuredash
Encoding: 8210 8210 219
Width: 520
VWidth: 0
Flags: W
HStem: 0 34<211.477 267.957> 129 31<213.238 264.221> 264 43<488 1008> 653 56<166.207 272.136>
VStem: 52 268<452.688 542.016> 52 140<48.5222 114.704> 52 110<206.51 343.002> 52 84<575.006 623.693> 224 224<203.728 297.122> 288 160<48.7331 116.736> 377 71<406.541 545.147>
LayerCount: 3
Fore
SplineSet
52 0 m 17xf120
 52 709 l 9
 448 709 l 25
 448 0 l 25
 52 0 l 17xf120
136 591 m 0
 136 583 139 575 153 575 c 0
 182 575 194 576 208 576 c 0
 265 576 320 537 320 507 c 0xf8
 320 420 162 384 162 279 c 0
 162 205 222 160 248 160 c 0
 258 160 265 165 265 176 c 0
 265 196 224 207 224 253 c 0xf280
 224 299 290 329 351 401 c 0
 371 425 377 444 377 474 c 0
 377 567 262 653 221 653 c 0
 180 653 136 609 136 591 c 0
192 82 m 0xf440
 192 68 221 35 239 34 c 1
 263 35 288 75 288 82 c 0
 288 98 260 129 241 129 c 0
 227 129 192 102 192 82 c 0xf440
488 264 m 1
 488 307 l 1
 1008 307 l 1
 1008 264 l 1
 488 264 l 1
EndSplineSet
EndChar

StartChar: braceleft
Encoding: 123 123 220
Width: 308
VWidth: 488
Flags: W
HStem: -231 29<228.663 281> 230 19<34 72.9713> 677 29<228.996 281>
VStem: 114 64<-143.513 208.252 270.75 615.131>
LayerCount: 3
Fore
SplineSet
34 230 m 1
 34 249 l 1
 79 258 117 254 117 381 c 0
 117 417 114 458 114 503 c 0
 114 612 158 706 281 706 c 1
 281 677 l 1
 185 677 178 591 178 509 c 0
 178 454 183 409 183 365 c 0
 183 299 166 259 116 240 c 1
 166 221 182 178 182 114 c 0
 182 71 178 26 178 -29 c 0
 178 -112 184 -202 281 -202 c 1
 281 -231 l 1
 157 -231 114 -144 114 -24 c 0
 114 20 118 61 118 98 c 0
 118 229 74 221 34 230 c 1
EndSplineSet
EndChar

StartChar: logicalnot
Encoding: 172 172 221
Width: 718
VWidth: 0
Flags: W
HStem: 206 58<61 562>
VStem: 562 59<-33 206>
LayerCount: 3
Fore
SplineSet
61 206 m 1
 61 264 l 1
 621 264 l 1
 621 -33 l 1
 562 -33 l 1
 562 206 l 1
 61 206 l 1
EndSplineSet
Layer: 2
SplineSet
109.86328125 205.56640625 m 5
 109.86328125 264.16015625 l 5
 693.84765625 264.16015625 l 5
 693.84765625 -57.12890625 l 5
 635.25390625 -57.12890625 l 5
 635.25390625 205.56640625 l 5
 109.86328125 205.56640625 l 5
EndSplineSet
EndChar

StartChar: guillemotleft
Encoding: 171 171 222
Width: 359
Flags: HW
HStem: 83 266
VStem: 20 168 152 168
AnchorPoint: "r;s;quote" 359 589 basechar 0
AnchorPoint: "l;x" 0 376 basechar 0
AnchorPoint: "r;bl" 359 15 basechar 0
AnchorPoint: "r;o" 359 195 basechar 0
AnchorPoint: "l;s;quote" 95 589 basechar 0
AnchorPoint: "l;o" 0 195 basechar 0
AnchorPoint: "l;bl" 0 15 basechar 0
AnchorPoint: "r;x" 359 376 basechar 0
LayerCount: 3
Fore
Refer: 224 8249 N 1 0 0 1 132 0 2
Refer: 224 8249 N 1 0 0 1 0 0 2
Layer: 2
SplineSet
19.53125 216.30859375 m 5
 171.875 349.12109375 l 5
 188.4765625 330.56640625 l 5
 94.7265625 216.30859375 l 5
 188.4765625 102.05078125 l 5
 171.875 83.49609375 l 5
 19.53125 216.30859375 l 5
151.85546875 216.30859375 m 5
 304.19921875 349.12109375 l 5
 320.80078125 330.56640625 l 5
 227.05078125 216.30859375 l 5
 320.80078125 102.05078125 l 5
 304.19921875 83.49609375 l 5
 151.85546875 216.30859375 l 5
EndSplineSet
EndChar

StartChar: guilsinglleft
Encoding: 8249 8249 224
Width: 227
Flags: HW
HStem: 83 266
VStem: 20 168
AnchorPoint: "l;s;quote" 95 589 basechar 0
AnchorPoint: "r;s;quote" 227 589 basechar 0
AnchorPoint: "l;bl" 0 15 basechar 0
AnchorPoint: "l;x" 0 376 basechar 0
AnchorPoint: "l;o" 0 195 basechar 0
AnchorPoint: "r;bl" 227 15 basechar 0
AnchorPoint: "r;x" 227 376 basechar 0
AnchorPoint: "r;o" 227 195 basechar 0
LayerCount: 3
Fore
SplineSet
20 216 m 1
 172 349 l 1
 188 331 l 1
 95 216 l 1
 188 102 l 1
 172 83 l 1
 20 216 l 1
EndSplineSet
EndChar

